<svg width="126" height="16" viewBox="0 0 126 16" fill="none" xmlns="http://www.w3.org/2000/svg">
<g clip-path="url(#clip0_1_61)">
<path d="M0.601562 0H6.76499C9.83632 0 11.7455 1.72244 11.7455 3.98443C11.787 5.35408 11.04 6.64073 9.83632 7.3048C11.5173 7.82361 12.6586 9.38003 12.6586 11.1232C12.6586 13.8833 10.5211 15.7302 7.03476 15.7302H0.601562V0ZM6.82724 6.45396C8.2799 6.45396 9.13074 5.83139 9.13074 4.46174C9.13074 3.09209 8.30065 2.49027 6.82724 2.49027H3.21635V6.47471H6.82724V6.45396ZM7.49132 13.2607C8.92322 13.2607 9.91933 12.5344 9.91933 11.1025C9.91933 9.67056 8.92322 8.92348 7.49132 8.92348H3.2371V13.2607H7.49132ZM13.7585 10.1271C13.7585 6.35019 16.228 4.27497 19.1126 4.27497C20.5237 4.27497 21.7274 4.93904 22.5782 5.72763L23.4498 4.50324H25.1307V15.751H22.5575V14.3606C21.8311 15.1284 20.7105 15.9792 19.0296 15.9792C16.394 15.9585 13.7585 13.904 13.7585 10.1271ZM22.5782 10.9572V9.31777C22.5782 7.69909 21.2086 6.49546 19.5484 6.49546C17.8052 6.49546 16.3525 7.65758 16.3525 10.1271C16.3525 12.5966 17.7844 13.7588 19.5691 13.7588C21.1878 13.7588 22.5575 12.5759 22.5782 10.9572ZM49.0996 4.50324H45.966L41.359 9.71206V0H38.8065V15.7302H41.359V10.5214L45.966 15.7302H49.1204L44.1191 10.1064L49.0996 4.50324ZM55.5536 4.50324H52.3992L47.4187 10.1271L52.3992 15.751H55.5536L50.5523 10.1271L55.5536 4.50324ZM70.2877 0L65.6184 10.0441L60.9284 0H58.1061V15.7302H60.6586V5.08431L64.4148 13.1984H66.8013L70.5575 5.08431V15.7302H73.0892V0H70.2877ZM74.6664 10.1271C74.6664 6.35019 77.1359 4.27497 80.0205 4.27497C81.4317 4.27497 82.6353 4.93904 83.4861 5.72763L84.3785 4.50324H86.0594V15.751H83.4861V14.3606C82.7598 15.1284 81.6392 15.9792 79.9582 15.9792C77.3227 15.9585 74.6664 13.904 74.6664 10.1271ZM83.4861 10.9572V9.31777C83.4861 7.69909 82.1165 6.49546 80.4563 6.49546C78.6923 6.49546 77.2604 7.65758 77.2604 10.1271C77.2604 12.5966 78.6923 13.7588 80.477 13.7588C82.1165 13.7588 83.4861 12.5759 83.4861 10.9572ZM87.8649 4.50324H89.5458L90.4381 5.72763C91.206 4.85603 91.953 4.31647 93.0944 4.31647H94.9829V6.74449H92.1191C91.0607 6.74449 90.4381 7.24254 90.4381 8.44618V15.7302H87.8649V4.50324ZM120.01 12.8457V6.70298H117.935V4.50324H120.01V2.32425L122.604 0.830091V4.50324H125.115V6.70298H122.604V12.4306C122.604 13.1777 123.04 13.5097 123.891 13.5097H125.011V15.7302H123.123C121.276 15.7302 120.01 14.9416 120.01 12.8457ZM114.781 11.9118C114.365 13.0324 113.432 13.8003 111.875 13.8003C110.07 13.8003 108.825 12.6796 108.7 10.8327H117.312V10.0441C117.312 6.4332 115.03 4.29572 111.834 4.29572C108.845 4.29572 106.21 6.64072 106.21 10.1479C106.21 13.655 108.451 16 111.834 16C114.449 16 116.254 14.7341 117.022 12.4306C116.358 12.2438 115.59 12.0778 114.781 11.9118ZM111.834 6.37095C113.452 6.37095 114.739 7.28405 114.884 8.96498H108.742C109.053 7.3048 110.298 6.37095 111.834 6.37095ZM106.604 4.50324H103.45L98.8428 9.69131V0H96.2695V15.7302H98.8428V10.5421L103.45 15.7302H106.604L101.603 10.1064L106.604 4.50324ZM32.2695 13.6965C30.4018 13.6965 29.0114 12.4099 29.0114 10.1271C29.0114 7.84435 30.4018 6.53696 32.2695 6.53696C33.8882 6.53696 34.9258 7.3463 35.2786 8.59144C35.8597 8.46692 37.0633 8.23865 37.5614 8.11414C37.001 5.70687 35.0296 4.27497 32.2488 4.27497C29.0114 4.27497 26.5004 6.64072 26.5004 10.1271C26.5004 13.6135 29.0114 15.9792 32.2488 15.9792C34.9881 15.9792 36.8973 14.5888 37.5406 12.1193C37.0218 11.9948 35.8389 11.7665 35.2579 11.642C34.8428 12.9287 33.8882 13.6965 32.2695 13.6965Z" fill="#2F2F2F"/>
</g>
<defs>
<clipPath id="clip0_1_61">
<rect width="126" height="16" fill="white"/>
</clipPath>
</defs>
</svg>
