<svg width="49" height="16" viewBox="0 0 49 16" fill="none" xmlns="http://www.w3.org/2000/svg">
<g clip-path="url(#clip0_1_63)">
<path fill-rule="evenodd" clip-rule="evenodd" d="M6.55012 5.68474V7.38141L10.6026 7.37627C10.4777 8.31214 10.1623 8.99698 9.68342 9.47586C9.09126 10.068 8.16955 10.7181 6.54883 10.7181C4.05146 10.7181 2.09733 8.70477 2.09733 6.20739C2.09733 3.71002 4.05146 1.69667 6.54883 1.69667C7.89664 1.69667 8.88143 2.22704 9.60748 2.90803L10.8047 1.71083C9.79156 0.742776 8.44375 0 6.55141 0C3.12975 0 0.253906 2.78573 0.253906 6.20739C0.253906 9.62905 3.13104 12.4148 6.55141 12.4148C8.3974 12.4148 9.79027 11.8097 10.8806 10.6743C12.0019 9.55439 12.3494 7.98001 12.3494 6.70815C12.3494 6.32969 12.3198 5.98082 12.2645 5.68474H6.55012ZM40.7395 12.1728V0.458333H39.0273V12.1728H40.7395ZM17.0399 12.416C19.2489 12.416 21.0499 10.7207 21.0499 8.41896C21.0499 6.10181 19.2502 4.42188 17.0399 4.42188C14.8309 4.42188 13.0299 6.10181 13.0299 8.41896C13.0299 10.7207 14.8309 12.416 17.0399 12.416ZM17.0412 5.99625C18.2513 5.99625 19.2953 6.98104 19.2953 8.41896C19.2953 9.84143 18.2513 10.8417 17.0412 10.8417C15.8311 10.8417 14.7871 9.84272 14.7871 8.41896C14.7871 6.97975 15.8298 5.99625 17.0412 5.99625ZM25.691 12.416C27.9 12.416 29.7009 10.7207 29.7009 8.41896C29.7009 6.10181 27.9013 4.42188 25.691 4.42188C23.4819 4.42188 21.681 6.1031 21.681 8.41896C21.681 10.7207 23.4819 12.416 25.691 12.416ZM25.6922 5.99625C26.9023 5.99625 27.9463 6.98104 27.9463 8.41896C27.9463 9.84143 26.9023 10.8417 25.6922 10.8417C24.4822 10.8417 23.4382 9.84272 23.4382 8.41896C23.4382 6.97975 24.4809 5.99625 25.6922 5.99625ZM37.9915 4.66521V4.66778H36.3257V5.31787H36.2639C35.87 4.848 35.1131 4.42448 34.1592 4.42448C32.16 4.42448 30.3294 6.17908 30.3294 8.43573C30.3294 10.6756 32.16 12.4161 34.1592 12.4174C35.1143 12.4174 35.8713 11.9938 36.2639 11.5085H36.3257V12.084C36.3257 13.6146 35.5083 14.4268 34.1913 14.4268C33.1164 14.4268 32.4496 13.6583 32.178 13.0082L30.65 13.6442C31.0889 14.7036 32.2552 15.9999 34.1926 15.9999C36.251 15.9999 37.9915 14.7937 37.9915 11.8419V4.66778H37.9928L37.9915 4.66521ZM36.4493 8.43573C36.4493 7.0287 35.5108 5.99886 34.3149 5.99886C33.1036 5.99886 32.0892 7.02741 32.0892 8.43573C32.0892 9.82859 33.1036 10.843 34.3149 10.843C35.5108 10.843 36.4493 9.82859 36.4493 8.43573ZM47.4123 9.73588L48.7743 10.6447C48.3341 11.2948 47.2746 12.416 45.4441 12.416C43.1732 12.416 41.4779 10.6602 41.4779 8.41896C41.4779 6.04131 43.1887 4.42188 45.2484 4.42188C47.3222 4.42188 48.3379 6.0722 48.6688 6.9643L48.8503 7.41872L43.5067 9.6316C43.916 10.4336 44.552 10.843 45.4441 10.843C46.3387 10.843 46.9579 10.4027 47.4123 9.73588ZM43.2183 8.29795L46.7906 6.81498C46.5936 6.3155 46.0027 5.96793 45.3076 5.96793C44.4155 5.96793 43.1732 6.75576 43.2183 8.29795Z" fill="#2F2F2F"/>
</g>
<defs>
<clipPath id="clip0_1_63">
<rect width="49" height="16" fill="white"/>
</clipPath>
</defs>
</svg>
