<svg width="25" height="16" viewBox="0 0 25 16" fill="none" xmlns="http://www.w3.org/2000/svg">
<g clip-path="url(#clip0_1_65)">
<path fill-rule="evenodd" clip-rule="evenodd" d="M11.4496 0.00761091C11.281 -0.033438 10.9305 0.0984778 10.562 0.237222C10.2803 0.343256 9.98799 0.453278 9.75816 0.49313C9.58981 0.522495 9.42925 0.700636 9.37248 0.827919C8.5228 2.77978 7.76126 4.64039 7.1015 6.33539C6.25772 6.47948 5.27105 6.66919 4.16688 6.91722C4.95779 4.88842 5.75657 2.88741 6.53573 0.962971C6.91943 0.0154143 5.90927 -0.0746307 5.5177 0.884665C5.00867 2.13176 4.05527 4.46831 3.00004 7.1917C2.22477 7.38179 1.40254 7.59908 0.543082 7.84735C-0.0814577 8.02765 -0.106876 8.19405 0.163297 8.56858C0.246035 8.68455 0.37782 8.72953 0.502753 8.77216C0.60247 8.8062 0.697822 8.83874 0.760381 8.9047C0.838307 8.98711 0.909688 9.07298 0.980144 9.15773C1.23894 9.46905 1.48526 9.76536 1.99765 9.82016C1.4162 11.3755 0.834757 12.9795 0.308135 14.524C-0.0227187 15.4934 0.91894 15.6917 1.28114 14.6659C1.86455 13.0122 2.47928 11.3385 3.11162 9.66977C3.5497 9.56796 4.50532 9.36089 5.49159 9.14718L6.0893 9.01761C5.15547 11.5771 4.54071 13.521 4.30778 14.4672C4.26916 14.6305 4.32344 14.7286 4.36329 14.8006C4.36786 14.8089 4.37226 14.8168 4.37629 14.8244C4.52752 15.0445 4.67515 15.1633 4.83258 15.29C5.00326 15.4274 5.18547 15.574 5.39628 15.8691C5.50594 16.0237 5.874 16.1071 5.99926 15.7263C6.86458 13.1126 7.75535 10.6601 8.58541 8.46159C8.92996 8.38623 9.55056 8.23646 9.93036 7.66969C10.3536 7.03929 10.5878 6.88408 10.7436 6.78079C10.8364 6.71926 10.9014 6.67615 10.9621 6.56199C11.1657 6.17809 11.0306 5.81767 10.3102 5.90672C10.3102 5.90672 10.0381 5.92609 9.53491 5.98345C9.86381 5.1366 10.1758 4.34269 10.4641 3.60891C10.876 2.56072 11.2398 1.63513 11.5357 0.853245C11.7081 0.403082 11.7296 0.0741788 11.4496 0.00761091ZM17.0445 0.484662C17.9255 0.0519881 18.362 0.108767 18.3719 0.547328C18.3836 1.11475 18.3001 1.86855 18.2394 2.4162L18.2387 2.42283C18.1297 3.4159 17.9964 4.34844 17.8655 5.26375C17.6038 7.09462 17.3518 8.85656 17.3244 10.8961C18.7634 7.17091 19.9693 4.58182 21.5238 1.39306C21.9035 0.611063 22.1777 0.543406 22.4686 0.471619C22.5556 0.450132 22.6442 0.428274 22.7376 0.386779C24.3155 -0.316034 24.3743 0.114655 24.1686 0.974116C23.4032 4.15739 21.4435 14.1801 21.144 15.7235C21.0578 16.17 20.5723 15.9807 20.447 15.8061C20.1974 15.4607 19.9334 15.2664 19.7233 15.1118C19.4606 14.9184 19.2822 14.7871 19.3213 14.4999C19.6737 11.9268 20.9423 5.47102 21.2732 3.94985C19.5875 7.40563 17.8393 11.7258 16.9407 14.1753C16.7508 14.6954 16.4043 14.6573 16.189 14.2767C16.0702 14.0676 15.9078 13.8985 15.7481 13.7323C15.4997 13.4736 15.2579 13.222 15.1983 12.8374C14.9992 11.5365 15.2059 9.47219 15.4012 7.52102C15.5074 6.45953 15.6103 5.4315 15.6427 4.57809C14.7246 7.22396 13.1838 12.3608 12.5084 14.6817C12.2304 15.642 11.3024 15.4854 11.5491 14.5494C12.5749 10.6545 14.7852 3.76582 15.7406 1.28929C15.9008 0.874412 16.245 0.764453 16.6065 0.648968C16.7534 0.60205 16.9031 0.554221 17.0445 0.484662ZM10.8193 13.1073C11.0405 13.6747 10.459 13.817 10.2731 13.347C10.2566 13.3057 10.2395 13.262 10.2218 13.2161C9.86821 13.5293 9.45907 13.7263 9.02205 13.5903C8.30356 13.3669 8.12149 12.3556 8.79299 11.5762C9.06179 11.2639 9.26412 11.047 9.43293 10.8738C9.38186 10.7067 9.34068 10.567 9.31372 10.4689C9.22757 10.1534 9.14729 9.78569 9.46445 9.41117C10.0557 8.70856 11.43 9.33207 10.735 10.4137C10.5676 10.6745 10.3719 10.9208 10.1675 11.1705C10.235 11.3855 10.308 11.6136 10.381 11.8376C10.446 11.7751 10.5094 11.7157 10.5706 11.6626C11.0032 11.2875 11.4183 11.6596 10.9896 12.2941C10.8973 12.4308 10.7932 12.5778 10.6788 12.7226C10.7329 12.8768 10.7809 13.0089 10.8193 13.1073ZM9.89241 12.2938C9.82987 12.1099 9.76728 11.9218 9.70726 11.7383C9.64653 11.8162 9.58631 11.8955 9.52712 11.9768C9.17471 12.4619 9.38224 12.6346 9.64653 12.4738C9.72895 12.4232 9.81112 12.3616 9.89241 12.2938ZM9.92765 10.3762C9.98813 10.3134 10.0494 10.2475 10.1144 10.1741C10.553 9.68031 9.68767 9.47377 9.88734 10.229C9.8985 10.2716 9.91205 10.321 9.92765 10.3762Z" fill="#2F2F2F"/>
</g>
<defs>
<clipPath id="clip0_1_65">
<rect width="25" height="16" fill="white"/>
</clipPath>
</defs>
</svg>
