<svg width="90" height="16" viewBox="0 0 90 16" fill="none" xmlns="http://www.w3.org/2000/svg">
<g clip-path="url(#clip0_1_67)">
<path fill-rule="evenodd" clip-rule="evenodd" d="M13.7227 8.06687C13.7227 3.6496 17.2507 0 22.4269 0C27.5547 0 31.1264 3.6496 31.1264 8.06687C31.1264 12.764 27.2307 16 22.4269 16C17.6199 16 13.7227 12.7172 13.7227 8.06687ZM15.8329 8.07119C15.8329 11.538 18.7836 14.4158 22.3648 14.4158C25.9444 14.4158 29.0339 11.5378 29.0339 8.07119C29.0339 4.60917 26.2673 1.5935 22.5036 1.5935C18.6443 1.5935 15.8329 4.60917 15.8329 8.07119ZM53.3477 1.83331L54.8926 0.0976562H58.1977L53.3477 1.83331ZM60.3723 14.9225H48.9609V2.16016H60.3723V3.54894H50.9172V7.65815H58.0191V9.06849H50.9172V13.5287H60.3723V14.9225ZM79.5297 13.5287V2.16016H77.7461V14.9225H89.2821V13.5287H79.5297ZM61.2773 14.9225L67.7666 2.16016H70.2645L76.759 14.9225H74.5882L72.9139 11.6192H65.131L63.4708 14.9225H61.2773ZM69.0103 3.92366L65.9524 10.0196H72.104L69.0103 3.92366ZM42.7708 9.58592C45.6946 8.80575 45.9787 6.63027 45.9639 5.85253C45.7893 3.5726 44.2532 2.16016 41.493 2.16016H33.4492V14.9225H35.2829V9.56889H40.5196L44.3721 14.9225H46.6834C46.6834 14.9225 43.9109 11.3195 42.7708 9.58592ZM41.2426 8.06095H35.2829V3.67075H41.4503C42.8703 3.67075 43.669 4.33364 43.9567 5.17571C44.1471 5.75294 44.0251 6.51067 43.7101 7.02654C43.1947 7.87945 42.2156 8.06095 41.2426 8.06095ZM9.10547 6.67504H10.4286L12.8302 2.16016H10.8976L9.10547 6.67504ZM2.63618 2.16016V13.5287H12.3871V14.9225H0.851562V2.16016H2.63618Z" fill="#2F2F2F"/>
</g>
<defs>
<clipPath id="clip0_1_67">
<rect width="90" height="16" fill="white"/>
</clipPath>
</defs>
</svg>
