<svg width="47" height="16" viewBox="0 0 47 16" fill="none" xmlns="http://www.w3.org/2000/svg">
<g clip-path="url(#clip0_1_71)">
<path fill-rule="evenodd" clip-rule="evenodd" d="M3.74193 12.7528C3.39735 12.3858 3.12769 11.9439 2.93292 11.427C2.73816 10.9101 2.6408 10.3371 2.6408 9.70789V0H0.28125V9.84269C0.28125 10.7716 0.434797 11.6143 0.741942 12.3708C1.04904 13.1274 1.46856 13.7753 2.00035 14.3146C2.53215 14.854 3.16141 15.2697 3.88797 15.5618C4.61459 15.8539 5.39734 16 6.23633 16C7.0603 16 7.82804 15.8502 8.53969 15.5506C9.25129 15.2509 9.86931 14.8239 10.3936 14.2697V15.7303H12.7307V0H10.3712V9.70789C10.3712 10.3371 10.2738 10.9064 10.079 11.4158C9.88427 11.9251 9.61084 12.3633 9.2588 12.7304C8.90675 13.0974 8.49479 13.382 8.02286 13.5843C7.55093 13.7865 7.04534 13.8877 6.50598 13.8877C5.95166 13.8877 5.43856 13.7903 4.96663 13.5956C4.49475 13.4008 4.08652 13.1199 3.74193 12.7528ZM16.7983 5.73033V0H14.5286V15.7303H16.7758V14.2921C17.3002 14.8164 17.9107 15.2322 18.6073 15.5393C19.3039 15.8464 20.0567 16 20.8657 16C21.7046 16 22.4911 15.8427 23.2253 15.5281C23.9593 15.2135 24.596 14.7865 25.1353 14.2471C25.6747 13.7079 26.1017 13.0749 26.4163 12.3483C26.7309 11.6217 26.8882 10.8464 26.8882 10.0225C26.8882 9.19852 26.7309 8.4195 26.4163 7.68537C26.1017 6.9513 25.6747 6.31463 25.1353 5.77528C24.596 5.23592 23.9593 4.80895 23.2253 4.49434C22.4911 4.17974 21.7047 4.02246 20.8657 4.02246C20.0567 4.02246 19.3077 4.17601 18.6185 4.48315C17.9294 4.7903 17.3226 5.20599 16.7983 5.73033ZM17.8994 12.8315C17.5399 12.4719 17.2589 12.0525 17.0567 11.573C16.8545 11.0936 16.7533 10.5768 16.7534 10.0225C16.7534 9.46817 16.8583 8.94756 17.068 8.46067C17.2777 7.97377 17.5624 7.55057 17.9219 7.19102C18.2815 6.83151 18.701 6.55062 19.1804 6.34835C19.6598 6.14607 20.1691 6.04493 20.7084 6.04493C21.2477 6.04493 21.7571 6.14612 22.2365 6.34835C22.7159 6.55057 23.1316 6.83151 23.4837 7.19102C23.8358 7.55057 24.1167 7.97377 24.3264 8.46067C24.5361 8.94756 24.641 9.46817 24.641 10.0225C24.641 10.5768 24.5361 11.0936 24.3264 11.573C24.1167 12.0525 23.8358 12.472 23.4837 12.8315C23.1316 13.1911 22.7159 13.4757 22.2365 13.6855C21.7571 13.8952 21.2478 14.0001 20.7084 14.0001C20.1541 14.0001 19.6373 13.8952 19.1578 13.6855C18.6784 13.4757 18.259 13.191 17.8994 12.8315ZM28.1681 7.70713C28.4677 6.98802 28.8798 6.35509 29.404 5.80828C29.9283 5.26146 30.5501 4.83075 31.2692 4.51615C31.9883 4.20155 32.7674 4.04427 33.6063 4.04427C34.4303 4.04427 35.1943 4.19409 35.8985 4.49368C36.6026 4.79331 37.2093 5.20905 37.7187 5.7409C38.228 6.2727 38.6251 6.90195 38.9097 7.62852C39.1943 8.35513 39.3366 9.14539 39.3366 9.99935V10.7409H30.0108C30.0858 11.2054 30.2356 11.6361 30.4603 12.033C30.685 12.43 30.9659 12.7746 31.3029 13.0667C31.64 13.3589 32.0221 13.5874 32.449 13.7521C32.876 13.9169 33.3291 13.9993 33.8086 13.9993C35.1719 13.9993 36.273 13.4375 37.112 12.3139L38.7524 13.5274C38.1831 14.2914 37.479 14.8907 36.6401 15.3251C35.8011 15.7596 34.8573 15.9768 33.8086 15.9768C32.9547 15.9768 32.157 15.8269 31.4154 15.5274C30.6738 15.2278 30.0296 14.8082 29.4828 14.2689C28.936 13.7295 28.5053 13.0966 28.1907 12.37C27.8761 11.6435 27.7188 10.8532 27.7188 9.99925C27.7187 9.19029 27.8685 8.42624 28.1681 7.70713ZM31.3254 6.81946C30.6887 7.35131 30.2655 8.05918 30.0558 8.94307H37.0446C36.8498 8.05918 36.4341 7.35131 35.7973 6.81946C35.1606 6.28766 34.4153 6.02174 33.5614 6.02174C32.7074 6.02174 31.9621 6.28766 31.3254 6.81946ZM42.8661 9.21343C42.8661 8.31453 43.1058 7.60293 43.5852 7.07859C44.0645 6.55425 44.6788 6.29211 45.4278 6.29206H46.3716V4.17969H45.5852C44.9559 4.17969 44.4128 4.31454 43.9559 4.58424C43.499 4.85389 43.1282 5.22095 42.8435 5.68538V4.26964H40.5964V15.7303H42.8661V9.21343Z" fill="#2F2F2F"/>
</g>
<defs>
<clipPath id="clip0_1_71">
<rect width="47" height="16" fill="white"/>
</clipPath>
</defs>
</svg>
