<svg width="56" height="16" viewBox="0 0 56 16" fill="none" xmlns="http://www.w3.org/2000/svg">
<g clip-path="url(#clip0_1_69)">
<path fill-rule="evenodd" clip-rule="evenodd" d="M4.93668 5.08105L2.83798 0H0.371094L4.7894 11.1194H4.93668L7.4772 5.33879H7.62448L10.2386 11.1194H10.3491L14.5833 0.0736385V0H12.2637L10.165 5.00742H10.0177L7.55084 0.147277H7.40357L5.08396 5.08105H4.93668ZM42.3804 0H40.0977V10.6408H42.3804V0ZM17.7115 2.09896H18.5584V4.05038C18.0797 4.05038 16.2387 4.49221 16.2387 5.52315V10.5306H14.0664V2.20942H16.2387V2.68807C16.6058 2.60068 16.8235 2.46351 17.0139 2.34352C17.2247 2.21072 17.402 2.09896 17.7115 2.09896ZM53.2804 2.20833H51.1081V10.6768H53.2068V5.66934C53.2068 4.67522 54.5323 4.19657 55.6 4.27021V2.20833H54.8268C53.9822 2.26464 53.6327 2.55777 53.4327 2.72554C53.3711 2.77717 53.3237 2.81693 53.2804 2.83426V2.20833ZM46.9836 2.0625C48.8614 2.0625 50.0764 3.35117 50.776 4.49257L45.4004 8.24813C45.8791 8.65314 46.3209 8.98452 46.91 9.02133C47.7568 9.02133 48.4564 8.7636 49.4873 7.76948C49.5242 7.76948 50.3342 9.42635 50.3342 9.42635C50.3342 9.49998 48.751 10.8623 46.9468 10.8623C43.5963 10.8623 42.6758 7.51175 42.6758 6.73854V5.74442C42.6758 4.63985 43.8908 2.0625 46.9836 2.0625ZM44.664 6.03898L44.7008 6.6649L47.8673 4.49257C47.72 4.27165 47.2414 4.01392 46.6523 4.01392C44.9954 4.01392 44.664 5.81806 44.664 6.03898ZM24.1941 2.20833H19.4076C19.3383 2.47173 19.2847 2.66727 19.2329 2.85588C19.1472 3.16817 19.0667 3.46157 18.929 4.01248H22.2427V5.19069C22.1975 5.17132 22.1534 5.14628 22.1039 5.11816C21.8712 4.98597 21.5187 4.78568 20.3649 4.78568C18.5976 4.78568 17.6035 6.36891 17.6403 7.6944C17.6771 9.24081 18.7449 10.5663 20.4386 10.6031C21.1607 10.6309 21.6524 10.3863 21.9926 10.217C22.1033 10.1619 22.1981 10.1148 22.2795 10.0876V10.6031H24.1941V2.20833ZM20.7699 8.72534C20.1808 8.72534 19.6285 8.13623 19.6285 7.76804C19.6285 7.39984 19.7022 6.70028 20.8068 6.7371C21.6168 6.70028 21.985 7.28939 21.985 7.87849C21.985 8.06259 21.6536 8.72534 20.7699 8.72534ZM35.459 2.02604H39.8405V2.24696L39.7966 2.39082C39.562 3.16091 39.3965 3.70415 39.3618 4.0511H38.6622C38.6672 4.071 38.6762 4.10569 38.6881 4.15135L38.6885 4.15283C38.7647 4.44617 38.9568 5.18586 38.9568 5.37659V6.07616C38.9568 7.03346 38.2204 7.91712 38.1468 7.99076C38.1468 7.9955 38.1694 8.01921 38.2094 8.0611C38.4796 8.34418 39.5423 9.45734 39.7668 11.1572C39.8036 11.3781 39.7668 12.225 39.6932 12.4827C39.1041 14.6182 37.7049 15.5387 36.4531 15.8701C36.0113 16.0173 34.9803 16.0173 34.6489 15.9805C34.6351 15.9771 34.6133 15.9736 34.5837 15.969C34.2976 15.9239 33.2924 15.7654 31.9243 14.3973L33.4707 12.8141C33.9494 13.5505 34.7226 13.845 35.3853 13.845C36.674 13.845 37.6313 12.7404 37.6313 11.6359C37.6313 10.2735 36.7108 9.20579 35.1644 9.24261C34.2453 9.24261 33.7851 9.90536 33.5716 10.2128C33.5285 10.2749 33.4955 10.3225 33.4707 10.3472L31.7402 8.98488L31.6666 8.94806V10.5681H29.4206V5.48705C29.4206 5.41341 29.347 4.38247 28.2792 4.38247C27.2851 4.38247 26.8064 5.11886 26.8064 5.9657V10.6049H24.6341V2.21014H26.8064V2.76243C26.8903 2.7205 26.9697 2.67858 27.0474 2.6375C27.516 2.39 27.9262 2.17332 28.9051 2.17332C30.4147 2.17332 31.7034 3.46199 31.6666 4.71385V8.91124C31.7402 8.87443 32.4393 8.17537 32.6237 7.99096C32.6237 7.99096 31.8507 6.95982 31.8507 6.1498V5.37659C31.8139 4.30883 33.0289 2.02604 35.459 2.02604ZM34.0598 5.63433C34.0598 6.62845 34.7594 7.10709 35.459 7.10709C36.0481 7.10709 36.8581 6.51799 36.8581 5.70796C36.8581 5.26613 36.4163 4.30883 35.459 4.30883C34.6858 4.30883 34.0598 4.89794 34.0598 5.63433ZM43.0828 0.662024C43.0828 0.514747 43.1564 0.40429 43.2668 0.293832C43.3773 0.183374 43.5246 0.146555 43.6719 0.146555C43.8191 0.146555 43.9664 0.183374 44.0769 0.293832C44.1873 0.367471 44.261 0.514747 44.261 0.662024C44.261 0.809301 44.1873 0.919759 44.0769 1.03022C43.9664 1.14067 43.8191 1.17749 43.6719 1.17749C43.5246 1.17749 43.3773 1.14067 43.2668 1.03022C43.1564 0.956578 43.0828 0.809301 43.0828 0.662024ZM43.6719 1.32477C43.856 1.32477 44.0032 1.25113 44.1505 1.14067C44.2978 0.993397 44.3714 0.84612 44.3346 0.698844C44.3346 0.514747 44.2978 0.367471 44.1505 0.257013C44.0401 0.146555 43.856 0.0729167 43.6719 0.0729167C43.4878 0.0729167 43.3405 0.146555 43.1932 0.257013C43.0828 0.367471 43.0091 0.514747 43.0091 0.698844C43.0091 0.88294 43.0828 1.03022 43.1932 1.14067C43.3037 1.25113 43.4878 1.32477 43.6719 1.32477ZM43.7708 0.427391C43.7886 0.434792 43.8039 0.441109 43.8191 0.441109C43.8191 0.459519 43.8283 0.477928 43.8375 0.496338C43.8467 0.514747 43.856 0.533157 43.856 0.551567C43.856 0.588386 43.8191 0.662024 43.7823 0.662024H43.6719H43.5614V0.40429H43.6719C43.715 0.40429 43.7455 0.416924 43.7708 0.427391ZM43.8928 0.367471C43.8191 0.330651 43.7823 0.330651 43.6719 0.330651H43.4141V1.03022H43.5614V0.772482H43.6719C43.715 0.772482 43.7455 0.785116 43.7708 0.795583C43.7886 0.802984 43.8039 0.809301 43.8191 0.809301C43.856 0.809301 43.8928 0.88294 43.8928 0.956578V0.993397V1.03022H44.0032V0.993397V0.956578V0.919759C44.0032 0.88294 44.0032 0.84612 43.9664 0.809301C43.9296 0.772482 43.8928 0.735663 43.8191 0.735663C43.8375 0.735663 43.856 0.726458 43.8744 0.717253C43.8928 0.708048 43.9112 0.698844 43.9296 0.698844C43.9664 0.662024 44.0032 0.625205 44.0032 0.551567C44.0032 0.441109 43.9664 0.40429 43.8928 0.367471Z" fill="#2F2F2F"/>
</g>
<defs>
<clipPath id="clip0_1_69">
<rect width="56" height="16" fill="white"/>
</clipPath>
</defs>
</svg>
