<svg width="81" height="18" viewBox="0 0 81 18" fill="none" xmlns="http://www.w3.org/2000/svg">
<path d="M6.92139 11.3047C6.92139 11.0557 6.88232 10.8359 6.8042 10.6455C6.73096 10.4502 6.59912 10.2744 6.40869 10.1182C6.22314 9.96191 5.96436 9.81299 5.63232 9.67139C5.30518 9.52979 4.89014 9.38574 4.38721 9.23926C3.85986 9.08301 3.38379 8.90967 2.95898 8.71924C2.53418 8.52393 2.17041 8.30176 1.86768 8.05273C1.56494 7.80371 1.33301 7.51807 1.17188 7.1958C1.01074 6.87354 0.930176 6.50488 0.930176 6.08984C0.930176 5.6748 1.01562 5.2915 1.18652 4.93994C1.35742 4.58838 1.60156 4.2832 1.91895 4.02441C2.24121 3.76074 2.62451 3.55566 3.06885 3.40918C3.51318 3.2627 4.00879 3.18945 4.55566 3.18945C5.35645 3.18945 6.03516 3.34326 6.5918 3.65088C7.15332 3.95361 7.58057 4.35156 7.87354 4.84473C8.1665 5.33301 8.31299 5.85547 8.31299 6.41211H6.90674C6.90674 6.01172 6.82129 5.65771 6.65039 5.3501C6.47949 5.0376 6.2207 4.79346 5.87402 4.61768C5.52734 4.43701 5.08789 4.34668 4.55566 4.34668C4.05273 4.34668 3.6377 4.42236 3.31055 4.57373C2.9834 4.7251 2.73926 4.93018 2.57812 5.18896C2.42188 5.44775 2.34375 5.74316 2.34375 6.0752C2.34375 6.2998 2.39014 6.50488 2.48291 6.69043C2.58057 6.87109 2.72949 7.03955 2.92969 7.1958C3.13477 7.35205 3.39355 7.49609 3.70605 7.62793C4.02344 7.75977 4.40186 7.88672 4.84131 8.00879C5.44678 8.17969 5.96924 8.37012 6.40869 8.58008C6.84814 8.79004 7.20947 9.02686 7.49268 9.29053C7.78076 9.54932 7.99316 9.84473 8.12988 10.1768C8.27148 10.5039 8.34229 10.875 8.34229 11.29C8.34229 11.7246 8.25439 12.1177 8.07861 12.4692C7.90283 12.8208 7.65137 13.1211 7.32422 13.3701C6.99707 13.6191 6.604 13.812 6.14502 13.9487C5.69092 14.0806 5.18311 14.1465 4.62158 14.1465C4.12842 14.1465 3.64258 14.0781 3.16406 13.9414C2.69043 13.8047 2.2583 13.5996 1.86768 13.3262C1.48193 13.0527 1.17188 12.7158 0.9375 12.3154C0.708008 11.9102 0.593262 11.4414 0.593262 10.9092H1.99951C1.99951 11.2754 2.07031 11.5903 2.21191 11.854C2.35352 12.1128 2.54639 12.3276 2.79053 12.4985C3.03955 12.6694 3.32031 12.7964 3.63281 12.8794C3.9502 12.9575 4.27979 12.9966 4.62158 12.9966C5.11475 12.9966 5.53223 12.9282 5.87402 12.7915C6.21582 12.6548 6.47461 12.4595 6.65039 12.2056C6.83105 11.9517 6.92139 11.6514 6.92139 11.3047ZM14.6118 12.645V8.56543C14.6118 8.25293 14.5483 7.98193 14.4214 7.75244C14.2993 7.51807 14.1138 7.3374 13.8647 7.21045C13.6157 7.0835 13.3081 7.02002 12.9419 7.02002C12.6001 7.02002 12.2998 7.07861 12.041 7.1958C11.7871 7.31299 11.5869 7.4668 11.4404 7.65723C11.2988 7.84766 11.228 8.05273 11.228 8.27246H9.87305C9.87305 7.98926 9.94629 7.7085 10.0928 7.43018C10.2393 7.15186 10.4492 6.90039 10.7227 6.67578C11.001 6.44629 11.333 6.26562 11.7188 6.13379C12.1094 5.99707 12.5439 5.92871 13.0225 5.92871C13.5986 5.92871 14.1064 6.02637 14.5459 6.22168C14.9902 6.41699 15.3369 6.7124 15.5859 7.10791C15.8398 7.49854 15.9668 7.98926 15.9668 8.58008V12.2715C15.9668 12.5352 15.9888 12.8159 16.0327 13.1138C16.0815 13.4116 16.1523 13.668 16.2451 13.8828V14H14.8315C14.7632 13.8438 14.7095 13.6362 14.6704 13.3774C14.6313 13.1138 14.6118 12.8696 14.6118 12.645ZM14.8462 9.19531L14.8608 10.1475H13.4912C13.1055 10.1475 12.7612 10.1792 12.4585 10.2427C12.1558 10.3013 11.9019 10.3916 11.6968 10.5137C11.4917 10.6357 11.3354 10.7896 11.228 10.9751C11.1206 11.1558 11.0669 11.3682 11.0669 11.6123C11.0669 11.8613 11.123 12.0884 11.2354 12.2935C11.3477 12.4985 11.5161 12.6621 11.7407 12.7842C11.9702 12.9014 12.251 12.96 12.583 12.96C12.998 12.96 13.3643 12.8721 13.6816 12.6963C13.999 12.5205 14.2505 12.3057 14.436 12.0518C14.6265 11.7979 14.729 11.5513 14.7437 11.312L15.3223 11.9639C15.2881 12.1689 15.1953 12.396 15.0439 12.645C14.8926 12.894 14.6899 13.1333 14.436 13.3628C14.187 13.5874 13.8892 13.7754 13.5425 13.9268C13.2007 14.0732 12.8149 14.1465 12.3853 14.1465C11.8481 14.1465 11.377 14.0415 10.9717 13.8315C10.5713 13.6216 10.2588 13.3408 10.0342 12.9893C9.81445 12.6328 9.70459 12.2349 9.70459 11.7954C9.70459 11.3706 9.7876 10.9971 9.95361 10.6748C10.1196 10.3477 10.3589 10.0767 10.6714 9.86182C10.9839 9.64209 11.3599 9.47607 11.7993 9.36377C12.2388 9.25146 12.7295 9.19531 13.2715 9.19531H14.8462ZM20.2075 13.1797L22.4121 6.0752H23.8623L20.6836 15.2231C20.6104 15.4185 20.5127 15.6284 20.3906 15.853C20.2734 16.0825 20.1221 16.2998 19.9365 16.5049C19.751 16.71 19.5264 16.876 19.2627 17.0029C19.0039 17.1348 18.6938 17.2007 18.3325 17.2007C18.2251 17.2007 18.0884 17.186 17.9224 17.1567C17.7563 17.1274 17.6392 17.103 17.5708 17.0835L17.5635 15.9849C17.6025 15.9897 17.6636 15.9946 17.7466 15.9995C17.8345 16.0093 17.8955 16.0142 17.9297 16.0142C18.2373 16.0142 18.4985 15.9727 18.7134 15.8896C18.9282 15.8115 19.1089 15.6772 19.2554 15.4868C19.4067 15.3013 19.5361 15.0449 19.6436 14.7178L20.2075 13.1797ZM18.5889 6.0752L20.647 12.2275L20.9985 13.6558L20.0244 14.1538L17.1094 6.0752H18.5889ZM35.9766 7.9209V9.0708H30.2051V7.9209H35.9766ZM30.4248 3.33594V14H29.0112V3.33594H30.4248ZM37.207 3.33594V14H35.8008V3.33594H37.207ZM42.8027 14.1465C42.251 14.1465 41.7505 14.0537 41.3013 13.8682C40.8569 13.6777 40.4736 13.4116 40.1514 13.0698C39.834 12.728 39.5898 12.3228 39.4189 11.854C39.248 11.3853 39.1626 10.8726 39.1626 10.3159V10.0083C39.1626 9.36377 39.2578 8.79004 39.4482 8.28711C39.6387 7.7793 39.8975 7.34961 40.2246 6.99805C40.5518 6.64648 40.9229 6.38037 41.3379 6.19971C41.7529 6.01904 42.1826 5.92871 42.627 5.92871C43.1934 5.92871 43.6816 6.02637 44.0918 6.22168C44.5068 6.41699 44.8462 6.69043 45.1099 7.04199C45.3735 7.38867 45.5688 7.79883 45.6958 8.27246C45.8228 8.74121 45.8862 9.25391 45.8862 9.81055V10.4185H39.9683V9.3125H44.5312V9.20996C44.5117 8.8584 44.4385 8.5166 44.3115 8.18457C44.1895 7.85254 43.9941 7.5791 43.7256 7.36426C43.457 7.14941 43.0908 7.04199 42.627 7.04199C42.3193 7.04199 42.0361 7.10791 41.7773 7.23975C41.5186 7.3667 41.2964 7.55713 41.1108 7.81104C40.9253 8.06494 40.7812 8.375 40.6787 8.74121C40.5762 9.10742 40.5249 9.52979 40.5249 10.0083V10.3159C40.5249 10.6919 40.5762 11.0459 40.6787 11.3779C40.7861 11.7051 40.9399 11.9932 41.1401 12.2422C41.3452 12.4912 41.5918 12.6865 41.8799 12.8281C42.1729 12.9697 42.5049 13.0405 42.876 13.0405C43.3545 13.0405 43.7598 12.9429 44.0918 12.7476C44.4238 12.5522 44.7144 12.291 44.9634 11.9639L45.7837 12.6157C45.6128 12.8745 45.3955 13.1211 45.1318 13.3555C44.8682 13.5898 44.5435 13.7803 44.1577 13.9268C43.7769 14.0732 43.3252 14.1465 42.8027 14.1465ZM48.9404 2.75V14H47.5781V2.75H48.9404ZM52.5879 2.75V14H51.2256V2.75H52.5879ZM54.4043 10.1255V9.95703C54.4043 9.38574 54.4873 8.85596 54.6533 8.36768C54.8193 7.87451 55.0586 7.44727 55.3711 7.08594C55.6836 6.71973 56.062 6.43652 56.5063 6.23633C56.9507 6.03125 57.4487 5.92871 58.0005 5.92871C58.5571 5.92871 59.0576 6.03125 59.502 6.23633C59.9512 6.43652 60.332 6.71973 60.6445 7.08594C60.9619 7.44727 61.2036 7.87451 61.3696 8.36768C61.5356 8.85596 61.6187 9.38574 61.6187 9.95703V10.1255C61.6187 10.6968 61.5356 11.2266 61.3696 11.7148C61.2036 12.2031 60.9619 12.6304 60.6445 12.9966C60.332 13.3579 59.9536 13.6411 59.5093 13.8462C59.0698 14.0464 58.5718 14.1465 58.0151 14.1465C57.4585 14.1465 56.958 14.0464 56.5137 13.8462C56.0693 13.6411 55.6885 13.3579 55.3711 12.9966C55.0586 12.6304 54.8193 12.2031 54.6533 11.7148C54.4873 11.2266 54.4043 10.6968 54.4043 10.1255ZM55.7593 9.95703V10.1255C55.7593 10.521 55.8057 10.8945 55.8984 11.2461C55.9912 11.5928 56.1304 11.9004 56.3159 12.1689C56.5063 12.4375 56.7432 12.6499 57.0264 12.8062C57.3096 12.9575 57.6392 13.0332 58.0151 13.0332C58.3862 13.0332 58.7109 12.9575 58.9893 12.8062C59.2725 12.6499 59.5068 12.4375 59.6924 12.1689C59.8779 11.9004 60.0171 11.5928 60.1099 11.2461C60.2075 10.8945 60.2563 10.521 60.2563 10.1255V9.95703C60.2563 9.56641 60.2075 9.19775 60.1099 8.85107C60.0171 8.49951 59.8755 8.18945 59.6851 7.9209C59.4995 7.64746 59.2651 7.43262 58.9819 7.27637C58.7036 7.12012 58.3765 7.04199 58.0005 7.04199C57.6294 7.04199 57.3022 7.12012 57.019 7.27637C56.7407 7.43262 56.5063 7.64746 56.3159 7.9209C56.1304 8.18945 55.9912 8.49951 55.8984 8.85107C55.8057 9.19775 55.7593 9.56641 55.7593 9.95703ZM66.0059 15.05H81.0059V0.0499999H66.0059V15.05Z" fill="white"/>
</svg>
