<svg width="28" height="28" viewBox="0 0 28 28" fill="none" xmlns="http://www.w3.org/2000/svg">
<g clip-path="url(#clip0_5605_2)">
<path fill-rule="evenodd" clip-rule="evenodd" d="M5.404 4.66667H28L25.6667 17.5H7.42933L7.79917 19.8333H25.6667V22.1667H6.972C6.33033 22.1667 5.72367 21.6475 5.62217 21.014L2.67283 2.33333H0V0H2.33333C3.61667 0 4.83 1.03717 5.03183 2.30417L5.404 4.66667ZM7.06067 15.1667H23.7207L25.2047 7H5.7715L7.06067 15.1667ZM11.6667 25.6667C11.6667 26.2857 11.4208 26.8793 10.9831 27.317C10.5454 27.7547 9.95174 28.0006 9.33275 28.0006C8.71376 28.0006 8.12012 27.7547 7.68242 27.317C7.24473 26.8793 6.99883 26.2857 6.99883 25.6667C6.99883 25.0478 7.24467 24.4543 7.68225 24.0168C8.11984 23.5792 8.71333 23.3333 9.33217 23.3333C9.951 23.3333 10.5445 23.5792 10.9821 24.0168C11.4197 24.4543 11.6655 25.0478 11.6655 25.6667H11.6667ZM22.1667 25.6667C22.1667 26.2857 21.9208 26.8793 21.4831 27.317C21.0454 27.7547 20.4517 28.0006 19.8327 28.0006C19.2138 28.0006 18.6201 27.7547 18.1824 27.317C17.7447 26.8793 17.4988 26.2857 17.4988 25.6667C17.4988 25.0478 17.7447 24.4543 18.1823 24.0168C18.6198 23.5792 19.2133 23.3333 19.8322 23.3333C20.451 23.3333 21.0445 23.5792 21.4821 24.0168C21.9197 24.4543 22.1667 25.0478 22.1667 25.6667Z" fill="black"/>
</g>
<defs>
<clipPath id="clip0_5605_2">
<rect width="28" height="28" fill="white"/>
</clipPath>
</defs>
</svg>
