<svg width="24" height="24" viewBox="0 0 24 24" fill="none" xmlns="http://www.w3.org/2000/svg">
<g clip-path="url(#clip0_1_159)">
<path fill-rule="evenodd" clip-rule="evenodd" d="M4.6317 3.9999H24L21.9999 15H6.3684L6.6846 16.9998H21.9999V18.9999H5.9757C5.4258 18.9999 4.9053 18.5547 4.8195 18.0117L2.2911 1.9998H0V0H2.0001C3.1005 0 4.1406 0.8886 4.3125 1.9746L4.6317 3.9999ZM6.0528 12.9999H20.3313L21.6036 6H4.9473L6.0528 12.9999Z" fill="#2F2F2F"/>
<path d="M9.9999 21.9999C9.9999 23.1036 9.1047 24 8.0001 24C6.8964 24 6 23.1036 6 21.9999C6 20.8944 6.8964 19.9998 8.0001 19.9998C9.1047 19.9998 9.9999 20.8944 9.9999 21.9999Z" fill="#2F2F2F"/>
<path d="M18.9999 21.9999C18.9999 23.1036 18.1047 24 17.0001 24C15.8955 24 15 23.1036 15 21.9999C15 20.8944 15.8955 19.9998 17.0001 19.9998C18.1047 19.9998 18.9999 20.8944 18.9999 21.9999Z" fill="#2F2F2F"/>
</g>
<defs>
<clipPath id="clip0_1_159">
<rect width="24" height="24" fill="white"/>
</clipPath>
</defs>
</svg>
