<svg width="16" height="16" viewBox="0 0 16 16" fill="none" xmlns="http://www.w3.org/2000/svg">
<g clip-path="url(#clip0_1_194)">
<path fill-rule="evenodd" clip-rule="evenodd" d="M8 0C5.7788 0 3.7812 0.916 2.3334 2.3784V0.6666H1V4C1 4.3686 1.2994 4.6666 1.6666 4.6666H5V3.3346L3.2564 3.3334C4.4662 2.1042 6.1392 1.3334 8 1.3334C11.6816 1.3334 14.6666 4.3184 14.6666 8C14.6666 11.6816 11.6816 14.6666 8 14.6666C4.3184 14.6666 1.3334 11.6816 1.3334 8H0C0 12.418 3.582 16 8 16C12.418 16 16 12.418 16 8C16 3.582 12.418 0 8 0ZM8 9C8.55229 9 9 8.55229 9 8C9 7.44772 8.55229 7 8 7C7.44772 7 7 7.44772 7 8C7 8.55229 7.44772 9 8 9ZM6.1146 3.0162C6.7018 2.7936 7.3354 2.6666 8 2.6666C10.9458 2.6666 13.3334 5.0546 13.3334 8C13.3334 10.9458 10.9458 13.3334 8 13.3334C5.0546 13.3334 2.6666 10.9458 2.6666 8C2.6666 7.3354 2.7944 6.7018 3.0156 6.1146H5.1718L5.955 6.8984C5.8808 7.0358 5.8208 7.181 5.7748 7.3334H4.6666V8.6666H5.7748C5.8208 8.819 5.8808 8.9642 5.955 9.1016L5.1718 9.8854L6.1146 10.8282L6.8978 10.045C7.0358 10.1192 7.181 10.1792 7.3334 10.2252V11.3334H8.6666V10.2252C8.819 10.1792 8.9644 10.1192 9.1022 10.045L9.8854 10.8282L10.8288 9.8854L10.045 9.1016C10.1192 8.9634 10.1792 8.819 10.2252 8.6666H11.3334V7.3334H10.2252C10.1792 7.181 10.1192 7.0358 10.045 6.8984L10.8288 6.1146L9.8854 5.1718L9.1016 5.955C8.9642 5.8808 8.819 5.8208 8.6666 5.7748V4.6666H7.3334V5.7748C7.181 5.8208 7.0358 5.8808 6.8984 5.955L6.1146 5.1712V3.0162Z" fill="#2F2F2F"/>
</g>
<defs>
<clipPath id="clip0_1_194">
<rect width="16" height="16" fill="white"/>
</clipPath>
</defs>
</svg>
