<svg width="16" height="16" viewBox="0 0 16 16" fill="none" xmlns="http://www.w3.org/2000/svg">
<path fill-rule="evenodd" clip-rule="evenodd" d="M4.99982 8.00122C4.99982 6.34362 6.34223 5.00122 7.99982 5.00122C9.65662 5.00122 10.9998 6.34362 10.9998 8.00122C10.9998 9.65822 9.65662 11.0013 7.99982 11.0013C6.34223 11.0013 4.99982 9.65822 4.99982 8.00122ZM6.33322 8.00122C6.33322 8.92202 7.07922 9.66802 7.99982 9.66802C8.92042 9.66802 9.66642 8.92202 9.66642 8.00122C9.66642 7.08062 8.92042 6.33462 7.99982 6.33462C7.07922 6.33462 6.33322 7.08062 6.33322 8.00122Z" fill="#2F2F2F"/>
<path fill-rule="evenodd" clip-rule="evenodd" d="M0 8.00137C1.6002 4.81637 4.5794 2.66797 8 2.66797C11.4206 2.66797 14.3998 4.81657 16 8.00137C14.3998 11.187 11.4206 13.3346 8 13.3346C4.5794 13.3346 1.6002 11.187 0 8.00137ZM1.519 8.00137C2.9948 10.485 5.4258 12.0014 8 12.0014C10.5742 12.0014 13.0052 10.485 14.481 8.00137C13.0052 5.51777 10.5742 4.00137 8 4.00137C5.4258 4.00137 2.9948 5.51777 1.519 8.00137Z" fill="#2F2F2F"/>
</svg>
