<svg width="24" height="24" viewBox="0 0 24 24" fill="none" xmlns="http://www.w3.org/2000/svg">
<g clip-path="url(#clip0_1_167)">
<path d="M11.9996 7.99981C13.1041 7.99981 13.9996 7.10437 13.9996 5.99979C13.9996 4.8952 13.1041 3.99976 11.9996 3.99976C10.895 3.99976 9.99951 4.8952 9.99951 5.99979C9.99951 7.10437 10.895 7.99981 11.9996 7.99981Z" fill="#2F2F2F"/>
<path d="M8.53466 13.9993C7.98328 13.0424 6.75963 12.7142 5.80357 13.2671C4.8475 13.8196 4.51931 15.0424 5.07099 15.9994C5.62267 16.9551 6.84723 17.2833 7.80419 16.7316C8.75935 16.1791 9.08754 14.9554 8.53466 13.9993Z" fill="#2F2F2F"/>
<path d="M17.1951 11.0003C18.3 11.0003 19.1957 10.1046 19.1957 8.99965C19.1957 7.89473 18.3 6.99902 17.1951 6.99902C16.0901 6.99902 15.1944 7.89473 15.1944 8.99965C15.1944 10.1046 16.0901 11.0003 17.1951 11.0003Z" fill="#2F2F2F"/>
<path d="M5.0722 7.99941C4.51962 8.95547 4.8466 10.1789 5.80357 10.7317C6.75933 11.2834 7.98299 10.9555 8.53497 9.99853C9.08755 9.04247 8.76026 7.81882 7.80359 7.26624C6.84753 6.71426 5.62298 7.04245 5.0722 7.99941Z" fill="#2F2F2F"/>
<path fill-rule="evenodd" clip-rule="evenodd" d="M11.9996 0C5.3728 0 0 5.3719 0 11.9995C0 18.6272 5.3728 24 11.9996 24C13.6246 24 15.1752 23.6718 16.5894 23.0859C16.8342 22.9845 17.0541 22.8369 17.2386 22.6525C18.0197 21.8713 18.0197 20.6047 17.2386 19.8224L15.8307 18.4145C15.4683 18.0518 15.2448 17.552 15.2448 17.0001C15.2448 15.8955 16.1412 15.0003 17.2446 15.0003L21.9994 14.9991C23.1039 14.9991 23.9994 14.104 23.9994 12.9994V11.9995C23.9991 5.3716 18.6272 0 11.9996 0ZM21.9991 12.9994L17.2443 13.0003C15.0381 13.0003 13.2445 14.7939 13.2445 17.0001C13.2445 18.0689 13.6606 19.0724 14.4163 19.8284L15.8244 21.2362C14.6038 21.7441 13.3168 22.0003 11.9993 22.0003C6.48576 22.0003 1.99973 17.5139 1.99973 11.9995C1.99973 6.48516 6.48606 1.99973 11.9996 1.99973C17.513 1.99973 21.9991 6.48486 21.9991 11.9993V12.9994Z" fill="#2F2F2F"/>
</g>
<defs>
<clipPath id="clip0_1_167">
<rect width="24" height="24" fill="white"/>
</clipPath>
</defs>
</svg>
