<svg width="16" height="14" viewBox="0 0 16 14" fill="none" xmlns="http://www.w3.org/2000/svg">
<path fill-rule="evenodd" clip-rule="evenodd" d="M4 0.332031C2.8952 0.332031 2 1.22723 2 2.33203C2 3.43623 2.8952 4.33203 4 4.33203C5.1042 4.33203 6 3.43623 6 2.33203C6 1.22723 5.1042 0.332031 4 0.332031ZM4 2.99863C3.6314 2.99863 3.3334 2.69983 3.3334 2.33203C3.3334 1.96343 3.6314 1.66543 4 1.66543C4.3686 1.66543 4.6666 1.96343 4.6666 2.33203C4.6666 2.69983 4.3686 2.99863 4 2.99863ZM12 0.332031C10.8952 0.332031 10 1.22723 10 2.33203C10 3.43623 10.8952 4.33203 12 4.33203C13.1042 4.33203 14 3.43623 14 2.33203C14 1.22723 13.1042 0.332031 12 0.332031ZM12 2.99863C11.6314 2.99863 11.3334 2.69983 11.3334 2.33203C11.3334 1.96343 11.6314 1.66543 12 1.66543C12.3686 1.66543 12.6666 1.96343 12.6666 2.33203C12.6666 2.69983 12.3686 2.99863 12 2.99863ZM6 6.33203C6 5.22723 6.8952 4.33203 8 4.33203C9.1042 4.33203 10 5.22723 10 6.33203C10 7.43623 9.1042 8.33203 8 8.33203C6.8952 8.33203 6 7.43623 6 6.33203ZM7.3334 6.33203C7.3334 6.69983 7.6314 6.99863 8 6.99863C8.3686 6.99863 8.6666 6.69983 8.6666 6.33203C8.6666 5.96343 8.3686 5.66543 8 5.66543C7.6314 5.66543 7.3334 5.96343 7.3334 6.33203ZM10 9.6646C11.1048 9.6646 12 10.5604 12 11.6646V13.6652H4V11.6652C4 10.5606 4.8958 9.6652 6 9.6652L10 9.6646ZM10.6666 12.332V11.6652C10.6666 11.2974 10.3686 10.998 10 10.998L6 10.9986C5.6314 10.9986 5.3334 11.2968 5.3334 11.6652V12.332H10.6666ZM14 5.66465C15.1048 5.66465 16 6.56045 16 7.66465V9.6652H12.6666V8.33205H14.6666V7.66545C14.6666 7.29765 14.3686 6.99805 14 6.99805L11.3334 6.99865V5.66545L14 5.66465ZM4.6666 6.99863H2C1.6314 6.99863 1.3334 7.29683 1.3334 7.66543V8.33203H3.3334V9.6652H0V7.66543C0 6.56063 0.8958 5.66543 2 5.66543H4.6666V6.99863Z" fill="#2F2F2F"/>
</svg>
