<svg width="16" height="16" viewBox="0 0 16 16" fill="none" xmlns="http://www.w3.org/2000/svg">
<g clip-path="url(#clip0_1_183)">
<path d="M10.6699 10.045V14.6667H1.33248V5.32936H6.00218L7.28665 3.99487H1.33248C0.979066 3.99593 0.640455 4.13693 0.390738 4.38702C0.14102 4.63711 0.000527488 4.97594 0 5.32936V14.6667C0.00105553 15.0198 0.141781 15.3581 0.391442 15.6078C0.641102 15.8574 0.979412 15.9982 1.33248 15.9992H10.6699C11.0231 15.9982 11.3617 15.8575 11.6116 15.6079C11.8616 15.3583 12.0028 15.02 12.0044 14.6667V8.71058L10.6699 10.045Z" fill="#2F2F2F"/>
<path d="M15.8097 2.08616L13.9251 0.19747C13.7996 0.0734565 13.6303 0.00390625 13.4539 0.00390625C13.2775 0.00390625 13.1082 0.0734565 12.9827 0.19747L6.03619 7.13399L5.45198 10.0771C5.43923 10.1415 5.44256 10.2082 5.46168 10.2711C5.48079 10.3339 5.5151 10.3912 5.56158 10.4376C5.60806 10.4841 5.66527 10.5184 5.72816 10.5375C5.79104 10.5567 5.85767 10.56 5.92215 10.5472L8.86722 9.96302L15.8097 3.0185C15.9317 2.89397 16 2.72662 16 2.55232C16 2.37803 15.9317 2.21068 15.8097 2.08616ZM8.20698 8.74258L7.03056 8.97666L7.26464 7.80023L13.4529 1.60398L14.3952 2.54632L8.20698 8.74258Z" fill="#2F2F2F"/>
</g>
<defs>
<clipPath id="clip0_1_183">
<rect width="16" height="16" fill="white"/>
</clipPath>
</defs>
</svg>
