<svg width="16" height="16" viewBox="0 0 16 16" fill="none" xmlns="http://www.w3.org/2000/svg">
<path d="M14.666 8H12V2.668L12.666 0H9.99997L10.666 2.668V8H8V9.334H9.332V14C9.332 14.5304 9.54272 15.0391 9.91779 15.4142C10.2929 15.7893 10.8016 16 11.332 16C11.8625 16 12.3712 15.7893 12.7462 15.4142C13.1213 15.0391 13.332 14.5304 13.332 14V9.334H14.666V8ZM12 14C12 14.0877 11.9828 14.1746 11.9492 14.2556C11.9156 14.3367 11.8664 14.4103 11.8044 14.4723C11.7424 14.5344 11.6687 14.5836 11.5877 14.6172C11.5066 14.6507 11.4198 14.668 11.332 14.668C11.1552 14.6675 10.9858 14.5969 10.861 14.4716C10.7361 14.3464 10.666 14.1768 10.666 14V9.334H12V14Z" fill="#2F2F2F"/>
<path d="M6.00003 0V3.052C6.00003 3.4058 5.85949 3.74511 5.60931 3.99528C5.35914 4.24545 5.01983 4.386 4.66603 4.386C4.31224 4.386 3.97293 4.24545 3.72275 3.99528C3.47258 3.74511 3.33203 3.4058 3.33203 3.052V0C2.73812 0.259298 2.23264 0.686064 1.87744 1.2281C1.52224 1.77014 1.33271 2.40394 1.33203 3.052C1.33288 3.56732 1.45391 4.07535 1.68548 4.53572C1.91705 4.99609 2.25279 5.39611 2.66603 5.704V14C2.66603 14.5304 2.87675 15.0391 3.25182 15.4142C3.62689 15.7893 4.1356 16 4.66603 16C5.19647 16 5.70518 15.7893 6.08025 15.4142C6.45532 15.0391 6.66603 14.5304 6.66603 14V5.704C7.07927 5.39611 7.41502 4.99609 7.64659 4.53572C7.87816 4.07535 7.99918 3.56732 8.00003 3.052C7.99935 2.40394 7.80982 1.77014 7.45462 1.2281C7.09942 0.686064 6.59395 0.259298 6.00003 0ZM5.33203 14C5.33203 14.1768 5.26193 14.3464 5.13709 14.4716C5.01225 14.5969 4.84285 14.6675 4.66603 14.668C4.48922 14.6675 4.31982 14.5969 4.19498 14.4716C4.07014 14.3464 4.00003 14.1768 4.00003 14V6.668H5.33203V14Z" fill="#2F2F2F"/>
</svg>
