<svg width="20" height="20" viewBox="0 0 20 20" fill="none" xmlns="http://www.w3.org/2000/svg">
<g clip-path="url(#clip0_1_54)">
<path fill-rule="evenodd" clip-rule="evenodd" d="M16.4 6.8H18C18.88 6.8 19.6 7.52 19.6 8.4V18.8C19.6 19.24 19.241 19.6 18.8 19.6H1.20002C0.760024 19.6 0.400024 19.24 0.400024 18.8V7.6C0.400024 7.16 0.735024 6.666 1.14302 6.503L16.401 0.400002L16.4 6.8ZM14.8 6.8V2.763L4.70802 6.8H14.8ZM14.8 14.8H18V11.6H14.8C13.918 11.6 13.2 12.317 13.2 13.2C13.2 14.082 13.918 14.8 14.8 14.8ZM14.8 10H18V8.4H2.00002V18H18V16.4H14.8C13.9513 16.4 13.1374 16.0629 12.5373 15.4627C11.9372 14.8626 11.6 14.0487 11.6 13.2C11.6 12.3513 11.9372 11.5374 12.5373 10.9373C13.1374 10.3371 13.9513 10 14.8 10ZM14.801 14C14.9093 14.0054 15.0176 13.9888 15.1192 13.9511C15.2209 13.9134 15.3138 13.8554 15.3924 13.7807C15.4709 13.7059 15.5335 13.616 15.5762 13.5164C15.619 13.4167 15.641 13.3094 15.641 13.201C15.641 13.0926 15.619 12.9853 15.5762 12.8856C15.5335 12.786 15.4709 12.6961 15.3924 12.6214C15.3138 12.5466 15.2209 12.4886 15.1192 12.4509C15.0176 12.4132 14.9093 12.3966 14.801 12.402C14.596 12.4123 14.4028 12.5009 14.2614 12.6496C14.1199 12.7984 14.041 12.9958 14.041 13.201C14.041 13.4063 14.1199 13.6037 14.2614 13.7524C14.4028 13.9011 14.596 13.9897 14.801 14Z" fill="black"/>
</g>
<defs>
<clipPath id="clip0_1_54">
<rect width="20" height="20" fill="white"/>
</clipPath>
</defs>
</svg>
