<svg width="95" height="24" viewBox="0 0 95 24" fill="none" xmlns="http://www.w3.org/2000/svg">
<g clip-path="url(#clip0_1_33)">
<path fill-rule="evenodd" clip-rule="evenodd" d="M34.8642 9.23665C34.8642 10.191 34.5854 11.1667 32.5192 11.1667H30.4876V7.27329H32.4698C34.592 7.27329 34.8642 8.32273 34.8642 9.23665ZM32.4038 5.63393H28.516V16.3306H30.4876V12.7734H32.5358C36.8853 12.7734 36.8853 10.3846 36.8853 9.23665C36.8853 8.25105 36.8853 5.63393 32.4038 5.63393ZM43.7678 12.4533V12.6288C43.7678 14.0539 42.8786 14.905 41.3899 14.905C40.2182 14.905 39.5727 14.5002 39.5727 13.765C39.5727 13.2294 39.8824 12.8846 41.4645 12.7074L43.7678 12.4533ZM41.6372 7.62609C39.0636 7.62609 37.865 8.63489 37.865 10.801V10.8805L39.7377 10.8624V10.7845C39.7377 9.45569 40.5035 9.18353 41.6537 9.18353C43.3144 9.18353 43.7048 9.86145 43.7644 10.9605L41.1845 11.2166C38.6729 11.457 37.6011 12.2242 37.6011 13.7814C37.6011 15.4498 38.851 16.4458 40.9448 16.4458C42.5728 16.4458 43.7352 15.825 44.2295 15.1678L44.5624 16.3306H45.657V11.4597C45.657 9.43953 45.3494 7.62609 41.6372 7.62609ZM50.92 7.62625C47.4071 7.62625 46.6697 10.0243 46.6697 12.036C46.6697 14.9621 48.1107 16.4458 50.9528 16.4458C53.4281 16.4458 54.7913 15.2013 54.7913 12.9418V12.8629H52.8432L52.8368 12.9346C52.713 14.2408 52.1531 14.773 50.9037 14.773C49.3489 14.773 48.6248 13.8984 48.6248 12.0194C48.6248 10.1072 49.3383 9.21649 50.8708 9.21649C52.1263 9.21649 52.7144 9.80577 52.8368 11.1866L52.8429 11.2586H54.7913V11.1797C54.7913 8.88833 53.4166 7.62625 50.92 7.62625Z" fill="black"/>
<path fill-rule="evenodd" clip-rule="evenodd" d="M63.7017 7.74144H61.0103L57.9407 10.9344V4.5304H56.0186V16.3302H57.9407V12.663L61.3887 16.3302H64.0265L59.3122 11.8064L63.7017 7.74144Z" fill="black"/>
<path fill-rule="evenodd" clip-rule="evenodd" d="M69.1067 7.62624C67.8543 7.62624 66.9784 7.95488 66.4978 8.60352V4.5304H64.6091V16.3304H66.4976L66.5311 11.5256C66.5311 9.9944 66.8424 9.26576 68.6121 9.26576C70.3191 9.26576 70.5946 9.93184 70.5946 11.5254V16.3304H72.4997V11.6902C72.4997 9.25088 71.923 7.62624 69.1067 7.62624Z" fill="black"/>
<path fill-rule="evenodd" clip-rule="evenodd" d="M75.6384 11.2491C75.7575 9.81792 76.4343 9.15056 77.7629 9.15056C78.4114 9.15056 78.9175 9.33024 79.2672 9.68448C79.7146 10.1379 79.8122 10.777 79.8112 11.2493L75.6384 11.2491ZM79.8133 13.6475C79.6779 14.2016 79.3303 14.9379 77.8784 14.9379C76.5043 14.9379 75.7456 14.2211 75.6223 12.8064H81.7763L81.7822 12.7341C81.9248 10.9701 81.5739 9.57632 80.7675 8.70336C80.1074 7.98864 79.1518 7.62624 77.9279 7.62624C75.0744 7.62624 73.6281 9.10448 73.6281 12.0195C73.6281 14.9566 75.0801 16.4456 77.9442 16.4456C81.0622 16.4456 81.7079 14.7093 81.815 13.6744L81.8242 13.5875H79.828L79.8131 13.6477L79.8133 13.6475Z" fill="black"/>
<path fill-rule="evenodd" clip-rule="evenodd" d="M83.0755 16.3306H84.9974V4.53024H83.0755V16.3306ZM92.9521 12.0525C92.9521 13.7152 92.5644 14.8226 90.6733 14.8226C88.8029 14.8226 88.4271 13.7627 88.4271 12.0525C88.4271 10.3602 88.8176 9.23296 90.7226 9.23296C92.5728 9.23296 92.9521 10.3602 92.9521 12.0525ZM91.2008 7.62624C89.1525 7.62624 88.3029 8.38368 87.9788 8.83632L87.6485 7.7416H86.5546V19.6238H88.4437V15.4518C88.8141 15.8896 89.6057 16.4456 91.234 16.4456C93.6493 16.4456 94.8742 14.9675 94.8742 12.0525C94.8742 9.1568 93.604 7.62624 91.2008 7.62624Z" fill="black"/>
<path fill-rule="evenodd" clip-rule="evenodd" d="M10.4055 0L0 6L10.4051 12L20.8108 6L10.4055 0Z" fill="#3900C0"/>
<path fill-rule="evenodd" clip-rule="evenodd" d="M15.861 10.155C15.861 13.1643 13.4184 15.6038 10.4055 15.6038C7.39254 15.6038 4.94994 13.1643 4.94994 10.155C4.94994 7.14592 7.39254 4.7064 10.4055 4.7064C13.4184 4.7064 15.861 7.14592 15.861 10.155Z" fill="white"/>
<path fill-rule="evenodd" clip-rule="evenodd" d="M20.8109 18V6L10.4055 12V24L20.8109 18Z" fill="#3B61FF"/>
<path fill-rule="evenodd" clip-rule="evenodd" d="M10.4055 12L0 6V18L10.4055 24V12Z" fill="#48C7F4"/>
</g>
<defs>
<clipPath id="clip0_1_33">
<rect width="95" height="24" fill="white"/>
</clipPath>
</defs>
</svg>
