<svg width="34" height="24" viewBox="0 0 34 24" fill="none" xmlns="http://www.w3.org/2000/svg">
<path d="M23.8057 24.0005H24.8497L25.3674 23.9207L25.8766 23.8111L26.3689 23.6815L26.8611 23.522L27.3364 23.3326L27.8032 23.1233L28.2615 22.8841L28.7028 22.625L29.1357 22.3359L29.5515 22.0169L29.9589 21.688L30.3408 21.3292L30.7143 20.9504L31.0707 20.5517L31.4102 20.1331L31.7327 19.6945L32.0383 19.236L32.3268 18.7676L32.5899 18.2792L32.836 17.7708L33.0567 17.2525L33.2604 16.7143L33.4386 16.1661L33.5999 15.6079L33.7357 15.0398L33.846 14.4517L33.9394 13.8636L33.9988 13.2556V10.8037L33.9394 10.2056L33.846 9.61753L33.7442 8.90985L33.6084 8.34171L33.4471 7.78354L33.2689 7.23533L33.0482 6.74693L32.8276 6.22863L32.5814 5.73026L32.3183 5.24186L32.0298 4.77339L31.7242 4.32486L31.4017 3.92617L31.0622 3.50754L30.7058 3.10884L30.3323 2.73008L29.9504 2.37126L29.543 2.04233L29.1272 1.73335L28.6943 1.44429L28.253 1.17517L27.7947 0.886119L27.3279 0.666837L26.8526 0.477457L26.3689 0.317979L25.8681 0.188403L25.3589 0.0787624L24.8497 -0.000976562H22.7618L22.2526 0.0787624L21.7434 0.188403L21.2511 0.317979L20.7589 0.477457L20.3175 0.666837L19.8083 0.886119L19.35 1.12534L18.9087 1.39446L18.4758 1.68351L18.06 1.9925L17.6611 2.32142L17.2707 2.68025L16.9227 3.06897L16.5662 3.46767L16.2268 3.8863L15.9042 4.32486L15.5987 4.77339L15.3101 5.24186L15.047 5.73026L14.8009 6.22863L14.5718 6.74693L14.3766 7.28517L14.1983 7.83338L14.0371 8.39155L13.8843 8.90985L13.7655 9.49793L13.6721 10.086L13.6042 10.684V13.136L13.6721 13.744L13.7655 14.3321L13.8843 14.9202L14.0201 15.4883L14.1814 16.0465L14.3596 16.5947L14.5633 17.1329L14.7924 17.6512L15.0386 18.1596L15.3017 18.648L15.5902 19.1164L15.8958 19.5749L16.2183 20.0135L16.5578 20.4321L16.9227 20.8707L17.2961 21.2495L17.6865 21.6083L18.0854 21.9372L18.5013 22.2562L18.9341 22.5452L19.3755 22.8044L19.8338 23.0436L20.3006 23.2529L20.7758 23.4423L21.2681 23.6018L21.7604 23.7313L22.2696 23.841L22.7788 23.9207H23.2965L23.8057 24.0005Z" fill="#0683C2"/>
<path d="M10.2094 24.0005H11.2533L11.7625 23.9207L12.2718 23.8111L12.764 23.6815L13.2478 23.522L13.7231 23.3326L14.1899 23.1233L14.6482 22.8841L15.0895 22.625L15.5223 22.3359L15.9382 22.0169L16.3371 21.688L16.719 21.3292L17.0924 20.9504L17.4489 20.5517L17.7884 20.1331L18.1109 19.6945L18.4164 19.236L18.705 18.7676L18.9681 18.2792L19.2142 17.7708L19.4434 17.2525L19.6471 16.7143L19.8253 16.1661L19.9866 15.6079L20.1223 15.0398L20.2412 14.4517L20.3345 13.8636L20.4024 13.2556V10.8037L20.3345 10.2056L20.2412 9.61753L20.1393 8.90985L20.0035 8.34171L19.8423 7.78354L19.664 7.23533L19.4688 6.74693L19.2397 6.22863L18.9936 5.73026L18.7305 5.24186L18.4419 4.77339L18.1364 4.32486L17.7714 3.92617L17.4319 3.50754L17.0755 3.10884L16.702 2.73008L16.3201 2.37126L15.9212 2.04233L15.5054 1.73335L15.0725 1.44429L14.6312 1.17517L14.2068 0.886119L13.74 0.666837L13.2648 0.477457L12.7725 0.317979L12.2802 0.188403L11.771 0.0787624L11.2618 -0.000976562H9.17396L8.66474 0.0787624L8.15551 0.188403L7.64628 0.317979L7.16252 0.477457L6.68724 0.666837L6.22045 0.886119L5.77063 1.12534L5.3293 1.39446L4.89646 1.68351L4.48059 1.9925L4.08169 2.32142L3.69129 2.68025L3.34331 3.06897L2.98686 3.46767L2.61342 3.92617L2.29091 4.36473L1.98538 4.81326L1.69681 5.28173L1.42523 5.77013L1.1791 6.2685L0.949947 6.7868L0.797179 7.28517L0.610462 7.83338L0.449207 8.39155L0.270977 8.90985L0.160645 9.49793L0.0672866 10.086L-0.000610352 10.684V13.136L0.0672866 13.744L0.160645 14.3321L0.270977 14.9202L0.415258 15.4883L0.576514 16.0465L0.76323 16.5947L0.966921 17.1329L1.19607 17.6512L1.4422 18.1596L1.71379 18.648L2.00235 19.1164L2.30789 19.5749L2.6304 20.0135L2.96988 20.4321L3.34331 20.8707L3.71675 21.2495L4.10715 21.6083L4.50605 21.9372L4.92192 22.2562L5.35476 22.5452L5.79609 22.8044L6.24591 23.0436L6.7127 23.2529L7.18798 23.4423L7.67174 23.6018L8.164 23.7313L8.67322 23.841L9.18245 23.9207H9.70017L10.2094 24.0005Z" fill="#305499"/>
<path d="M15.743 4.52446H20.9371V3.84668H16.2437L15.743 4.52446ZM14.9282 5.91989H20.9371V5.27201H15.2932L14.9282 5.91989ZM14.3257 7.39506H20.9456V6.71728H14.5972L14.3257 7.39506ZM13.9268 8.8204H20.9456V8.14262H14.0965L13.9268 8.8204ZM13.6637 10.2457H20.9371V9.56795H13.7655L13.6637 10.2457ZM13.5279 11.6611H20.9117V10.9933H13.5958L13.5279 11.6611ZM13.6127 13.0864H20.9456V12.4186H13.5279L13.6127 13.0864ZM13.7825 14.5118H20.9371V13.844H13.6806L13.7825 14.5118ZM14.1304 15.9371H20.9201V15.2693H13.9522L14.1304 15.9371ZM14.6482 17.3624H20.9371V16.6946H14.3766L14.6482 17.3624ZM15.3781 18.8077H20.9371V18.11H14.9961L15.3781 18.8077ZM16.371 20.233H20.9456V19.5652H15.8533L16.371 20.233Z" fill="#0683C2"/>
<path d="M31.563 15.3488V15.2392H32.1995V14.8904H32.242V15H32.1571V14.8405L32.1062 14.7707L32.0468 14.7109H31.6648L31.563 15.3488Z" fill="white"/>
<path d="M31.86 15.3489V15.1895H32.1995V15.2891H31.9873V15.3689L31.86 15.3489ZM31.5545 15.4386V15.3489H31.6394V15.4287L31.5545 15.4386Z" fill="white"/>
<path d="M31.86 15.4383V15.3486H31.9449V15.4284H32.2165V15.5081H31.86V15.4383ZM32.4541 15.4383V15.3586H32.539V15.4483L32.4541 15.4383Z" fill="white"/>
<path d="M31.5545 15.4385V15.7674H32.2844V15.4385H32.1995V15.7076L32.1486 15.7774L32.0892 15.8372L32.1995 15.887H31.8855V15.7375H31.8006L31.5545 15.4385Z" fill="white"/>
<path d="M31.86 15.4385V15.6976H31.9449V15.4983H32.0298L32.1316 15.6976H32.1995L32.0977 15.4983H32.1995H31.86V15.4385Z" fill="white"/>
<path d="M32.0552 16.0867H31.8006L31.7157 16.0169L31.6478 15.9272L31.5969 15.8176V15.3192L31.6478 15.2195L31.7242 15.1398L31.8176 15.08H32.0807L32.1995 14.8906H32.2504L32.3438 14.9405L32.4202 15.0102L32.4881 15.0999L32.539 15.1996V15.698L32.4881 15.8076L32.4202 15.8973L32.3438 15.9671H32.0977L32.0552 16.0867ZM32.0552 14.9305H31.8346L31.7667 14.9903L31.7157 15.08V15.5086L31.7582 15.5983L31.8176 15.678L31.8855 15.7379H32.1571L32.3693 15.8874L32.4287 15.8076V15.2295L32.3862 15.1398L32.3268 15.0601L32.2589 15.0003H32.0977L32.0552 14.9305Z" fill="white"/>
<path d="M32.2929 15.7375H32.1231L32.0213 15.5282V15.7375H31.86V15.1494H32.1995V15.3687H32.1486L32.2929 15.7375ZM32.1995 15.6478L32.1062 15.4584L32.225 15.4086V15.3388H31.9704V15.7574V15.5581H32.1146L32.1995 15.6478Z" fill="white"/>
<path d="M32.0722 15.4679H31.9109V15.2188H32.1486V15.3284H32.0977L32.0722 15.4679ZM31.9873 15.3782H32.0892H31.9364V15.458L31.9873 15.3782Z" fill="white"/>
<path d="M32.0552 15.977H31.8855L31.7752 15.8873L31.7157 15.8175V15.3092L31.7752 15.2394L31.8431 15.1796H32.2929L32.3608 15.2394L32.4117 15.3092V15.8973L32.3608 15.977L32.2929 16.0368H32.1401L32.0552 15.977ZM32.0552 14.9803H31.8431L31.7921 15.0401V15.5285L31.8685 15.6182H32.1825L32.1995 15.8873H32.2589L32.3098 15.8375L32.3523 15.7677V15.2693L32.3014 15.2095L32.2504 15.1597H32.1231L32.0552 14.9803ZM31.2405 10.3056H29.3054L29.229 10.3554L29.1611 10.4152L29.1017 10.485L29.0593 10.5548V11.1628L29.1187 11.2525L29.1696 11.3223L29.229 11.3821L29.2969 11.4319H30.4342L30.5191 11.4817L30.6039 11.5415L30.6888 11.6013L30.7652 11.6711L30.8331 11.7509L30.901 11.8406L30.9689 11.9402L31.0283 12.0499L31.0792 12.1695L31.1216 12.2991V13.9536L31.0792 14.0832L31.0283 14.2028L30.9774 14.3224L30.918 14.4321L30.8501 14.5318L30.7822 14.6215L30.7143 14.7112L30.6379 14.7909L30.5615 14.8607L30.4766 14.9304L30.3918 15.0002L30.2984 15.06L30.205 15.1099L30.1117 15.1597H26.4622L26.7253 13.6746H29.1696V12.9669L29.1272 12.8971L29.0678 12.8273L28.9999 12.7675L28.9235 12.7177L28.8386 12.6679H28.4482L28.5331 12.8971H28.4227L28.3124 12.8473L28.2021 12.7875L28.0917 12.7277L27.956 12.618L27.8541 12.5482L27.7523 12.4685L27.6589 12.3788L27.5655 12.2791L27.4807 12.1695L27.4043 12.0499L27.3534 11.9004L27.294 11.7608L27.2515 11.6013V9.75738L27.294 9.65771L27.3449 9.568L27.3958 9.4783L27.4552 9.39856L27.5231 9.31882L27.591 9.23908L27.6674 9.16931L27.956 9.11947L28.0408 9.05967L28.1342 8.99986L28.1936 8.91016H31.529L31.2405 10.3056Z" fill="white"/>
<path d="M28.8047 15.9966H27.8711L27.1667 15.8869L26.7508 15.7773L26.4283 15.6577L26.6999 14.1227L27.0733 14.2523L27.5061 14.3619L28.0323 14.4417H29.1357L29.2205 14.3619L29.2884 14.2722L29.3309 14.1725V13.5147L29.2799 13.4549L29.2205 13.3951L29.1526 13.3452L29.0763 13.2954L28.8047 13.0961L28.1512 12.7871L28.0408 12.7273L27.956 12.6575L27.8541 12.5877L27.7523 12.498L27.6504 12.4083L27.5571 12.3086L27.4722 12.189L27.3958 12.0694L27.3194 11.9L27.26 11.7505L27.2176 11.581V10.2753L27.277 10.0361V9.92644L27.3534 9.71712L27.3958 9.61745L27.5061 9.42807L27.5655 9.33836L27.7013 9.17888L27.7777 9.10911L27.8541 9.03934L27.939 8.96957L28.1766 8.90976L28.2785 8.85993H28.7453L29.0168 8.81009H30.0183L30.9349 8.85993L31.5884 8.97954L31.2914 10.5245H31.0283L30.587 10.4447H29.263L29.1951 10.5045L29.1442 10.5643V11.1524L29.1951 11.2322L29.246 11.292L29.3648 11.4016L29.5091 11.4913H29.5855L29.8401 11.601L30.205 11.7405L30.3918 11.8302H30.4851L30.5785 11.89L30.7482 12.0196L30.8331 12.0993L30.9095 12.1791L30.9774 12.2688L31.0453 12.3684L31.1047 12.4781L31.1556 12.5977L31.198 12.7372V14.4118L31.1556 14.5413L31.1047 14.6609L31.0453 14.7805L30.9859 14.8902L30.918 14.9899L30.8501 15.0895L30.7737 15.1792L30.6973 15.2689L30.6124 15.3487L30.4427 15.4882L30.256 15.5979L30.1626 15.6477H30.0692L29.874 15.7274L29.6534 15.8869L29.4582 15.9368H28.9744L28.8047 15.9966ZM28.3718 15.8869H29.4836L29.6534 15.7872L29.8401 15.7175H30.0268L30.205 15.6178L30.2899 15.558L30.4597 15.4284L30.536 15.3587L30.6124 15.2789L30.6803 15.1892L30.7482 15.0995L30.8076 14.9998L30.867 14.8902L30.918 14.7805L30.9689 14.6609L31.0113 14.5314V12.7871L30.9604 12.6774L30.9095 12.5778L30.8501 12.4781L30.7822 12.3884L30.7143 12.3086L30.6379 12.2389L30.5021 12.0296L30.4172 11.9797L30.239 11.9L29.9674 11.7804L29.5176 11.601L29.3563 11.5112H29.2799L29.1526 11.3916L29.0932 11.3219L29.0338 11.2322L28.9914 11.1325V10.6042L29.0423 10.5344L29.1017 10.4647L29.1781 10.4049L29.263 10.355H30.5445L31.1895 10.4547L31.4696 9.02937L31.0028 8.93967H28.7622L28.5246 9.00944H28.3124L28.1257 9.10911L28.0408 9.16892L27.956 9.22872L27.8796 9.28852L27.8032 9.3583L27.6759 9.50781L27.6165 9.58755L27.5146 9.76696V9.85666L27.4382 10.056V10.1657L27.3873 10.3949V11.6707L27.4298 11.8302L27.4892 11.9697L27.5571 12.0993L27.6334 12.2189L27.7183 12.3286L27.8117 12.4282L27.905 12.508L28.0069 12.5877L28.1087 12.6575L28.2191 12.7273L28.4397 12.8469L29.1696 13.1957L29.2545 13.2555L29.3309 13.3153L29.3988 13.3751L29.4582 13.4449L29.5091 13.5247V14.1825L29.4582 14.2921V14.342L29.3648 14.4317H28.0069L27.5146 14.332L27.0988 14.2124H26.9799L26.7338 15.6178L27.1412 15.7573L27.5231 15.8371H27.8626L28.3718 15.8869ZM8.72415 9.26859L8.43558 9.10911H8.17248L8.13005 8.90976H5.94886L5.88945 9.11908L5.81306 9.18885L5.73668 9.25862L5.6603 9.33836L5.58391 9.42807L5.50753 9.52774L5.43114 9.62741L5.36325 9.74702L5.29535 9.86663L5.22745 9.99621L5.15956 10.1358L5.10015 10.2853L5.04074 10.4447L4.98133 10.6142L4.9304 10.8036L4.87948 11.0029L4.83705 11.2122L4.79461 11.4415V12.7771L4.84553 12.9864L4.91343 13.1758L4.9983 13.3552L5.10015 13.5247L5.21897 13.6841L5.35476 13.8237L5.50753 13.9433L5.67727 14.0529L5.87247 14.1426L6.08465 14.2024H7.86695L7.92636 14.1526L7.98577 14.0928L8.03669 14.033L7.77359 15.8271H5.18502L5.04074 15.8869H4.90494L4.77764 15.8371L4.65033 15.7773L4.52302 15.7075L4.39572 15.6278L4.26841 15.5381L4.19203 15.3786L4.07321 15.2689L3.95439 15.1593L3.84405 15.0397L3.69977 14.8902L3.59793 14.7506L3.50457 14.6011L3.41121 14.4417L3.34331 14.3121L3.26693 14.1426L3.19903 13.9632L3.13962 13.7738L3.0887 13.5745L3.04626 13.3751V11.4016L3.0887 11.1225L3.13962 10.8534L3.19055 10.5942L3.24996 10.3451L3.30937 10.1058L3.34331 9.9065L3.4197 9.68722L3.49608 9.4779L3.58095 9.27856L3.66582 9.07921L3.75918 8.88983L3.85254 8.71042L3.95439 8.54097L4.06472 8.38149L4.19203 8.19211L4.31085 8.05257L4.44664 7.91303L4.57395 7.79342L4.70974 7.67381L4.84553 7.56417L4.98981 7.4645L5.14258 7.37479L5.30384 7.29505L5.46509 7.21531L5.63484 7.15551L5.81306 7.0957H8.92784L8.72415 9.26859Z" fill="white"/>
<path d="M6.29683 16.0267H5.15956L5.04074 15.8872H4.90495L4.76915 15.8374L4.64185 15.7775L4.50605 15.7078L4.37875 15.628L4.25144 15.5383L4.13262 15.4486L4.0138 15.339L3.89498 15.2293L3.78465 15.1097L3.67432 14.9802L3.57247 14.8406L3.47062 14.6911L3.37727 14.5316L3.34332 14.3422L3.26693 14.1728L3.19055 13.9934L3.0887 13.794L3.03778 13.5947L2.99535 13.3854V11.4019L3.03778 11.1228L3.13963 10.5845L3.25845 10.0862L3.34332 9.85693L3.4197 9.63765L3.49609 9.42833L3.58096 9.21902L3.66583 9.01967L3.75919 8.83029L3.85254 8.65088L3.96288 8.48143L4.07321 8.32196L4.19203 8.16248L4.31085 8.02293L4.41269 7.91329L4.54849 7.78372L4.68428 7.66411L4.82856 7.55447L4.98133 7.45479L5.1341 7.36509L5.29535 7.28535L5.45661 7.20561L5.62635 7.14581L5.80458 7.086H7.45957L7.79905 7.13584L8.18946 7.22555L9.03817 7.5146L8.74961 9.44827L8.43559 9.15921L8.164 9.0097L7.79057 8.91003L7.49352 8.85023H6.80606L6.50901 8.91003H6.34776L6.19499 8.96983H6.11861L5.96584 9.05954L5.88945 9.15921L5.73669 9.28879L5.6603 9.36853L5.58392 9.45824L5.50753 9.54794L5.43964 9.64762L5.37174 9.75726L5.24443 10.0064L5.18502 10.146L5.12561 10.2955L5.04074 10.6344L4.9389 11.0231L4.85402 11.4517V12.7873L4.90495 12.9867L4.97284 13.1761L5.05772 13.3555L5.15107 13.515L5.26989 13.6645L5.40569 13.804L5.55846 13.9236L5.7282 14.0233L5.91491 14.113L6.15255 14.1828H7.2389L7.45108 14.123L7.59536 14.0632H7.66326L7.79057 13.9834L7.85846 13.8937L7.9688 13.7841L8.10459 13.6246L7.82452 15.5682L7.58688 15.7177L7.43411 15.8174L7.23042 15.8872H6.64481L6.29683 16.0267ZM7.09462 6.98633H5.81307L5.63484 7.04613L5.4651 7.10594L5.30384 7.17571L5.14259 7.25545L5.04074 7.5146L4.89646 7.61427L4.76067 7.72391L4.62487 7.83355L4.46362 7.91329L4.33631 8.04287L4.19203 8.22228L4.0817 8.37179L3.97985 8.53127L3.87801 8.70072L3.80162 8.91003L3.70826 9.09941L3.62339 9.28879L3.53852 9.48814L3.46214 9.69745L3.38575 9.90677L3.34332 10.1161L3.2245 10.6045L3.12265 11.1328L3.08022 11.4118V13.3754L3.12265 13.5748L3.17358 13.7741L3.23299 13.9635L3.30088 14.1429L3.34332 14.2924L3.42819 14.4519L3.51306 14.6014L3.60642 14.7409L3.70826 14.8805L3.81011 15.0001L3.92044 15.1197L4.03077 15.2293L4.14959 15.329L4.26841 15.4187L4.39572 15.5084L4.52303 15.5782L4.65033 15.648L4.77764 15.7078L4.90495 15.7576H5.41417L5.88945 15.8872H7.00127L7.21344 15.8274L7.42562 15.7476L7.58688 15.648L7.77359 15.4885L8.01123 13.8439L7.9009 13.8937L7.77359 13.9934L7.6378 14.0731L7.49352 14.1429H7.41713L7.19647 14.2027H6.04222L5.83004 14.1429L5.63484 14.0532L5.45661 13.9436L5.30384 13.8937L5.16805 13.7442L5.04074 13.5648L4.9389 13.3953L4.85402 13.206L4.78613 13.0066L4.73521 12.7973V11.4417L4.82008 11.0032L4.92192 10.6145L5.04074 10.2656L5.10015 10.1061L5.16805 9.96657L5.30384 9.70742L5.37174 9.58781L5.44812 9.48814L5.52451 9.38846L5.60089 9.29876L5.67728 9.21902L5.83853 9.07948L5.88945 9.02964L6.08466 8.91003L6.24591 8.84026H7.56142L7.91787 8.92L8.18097 8.91003L8.50349 9.05954L8.6902 9.16918L8.9533 7.39499L7.94334 7.09597L7.45108 7.01623H7.27285L7.09462 6.98633ZM10.5404 15.8872L11.5334 8.91003H9.65773L8.67323 15.8872H10.5404Z" fill="white"/>
<path d="M10.5743 15.9665H8.63078L9.62378 8.90962H11.5758L10.5743 15.9665ZM8.71565 15.8868H10.5149L11.4909 8.95945H9.69167L8.71565 15.8868ZM11.7201 15.8868H13.6297L14.3256 11.6307V11.5111L14.3766 11.4015L14.4275 11.3018L14.4869 11.2121L14.5463 11.1323L14.6142 11.0626L14.6821 10.9928L14.75 10.933L14.8179 10.8832H15.8279L16.3286 8.88968H15.2592L15.2253 8.90962H14.716L14.6651 8.95945L14.6142 9.00929L14.5633 9.05913L14.5208 9.11893L14.4784 9.17873L14.3766 9.70701V9.77678L14.4445 8.83984H12.781L11.7201 15.8868Z" fill="white"/>
<path d="M13.6552 15.9667H11.6777L12.7385 8.85004H14.436L14.3766 9.6275L14.5208 9.42815L14.6651 9.26867L14.7755 9.169L14.8858 9.07929L15.0046 8.99956L15.2592 8.86998L15.5308 8.78027H16.388L15.8873 10.9033H15.8363L15.5053 10.8136H15.3271L15.1319 10.8734L14.9961 10.9332H14.8603L14.7245 11.0429L14.6566 11.1027L14.5972 11.1724L14.5378 11.2522L14.4869 11.3419L14.436 11.4416L14.3935 11.5512V11.6608L13.6552 15.9667ZM11.7625 15.887H13.5957L14.2832 11.6708L14.3256 11.5412L14.3766 11.4316L14.4275 11.3319L14.4869 11.2422L14.5463 11.1525L14.6142 11.0728L14.6821 11.003L14.8264 10.8934H14.9028L15.047 10.8136L15.2253 10.704H15.6496L15.8788 10.7737L16.3625 8.83011H15.6157L15.3526 8.91982L15.1065 9.03942L14.8858 9.1989L14.7839 9.28861L14.6397 9.43812L14.4699 9.67734L14.3511 9.86672L14.3766 8.90985H12.8064L11.7625 15.887ZM25.7408 15.9368H23.9076L24.0434 14.9401L24.001 14.9999L23.9585 15.0597V15.1694L23.9161 15.2192V15.269H23.0759L22.8637 15.887H21.336L21.1663 15.7176L21.0899 15.6677L21.0135 15.6079L20.9456 15.5381L20.8777 15.4684L20.8098 15.3886L20.7419 15.3089L20.6825 15.2192L20.6231 15.1195L20.5722 15.0198L20.5637 14.8903L20.5212 14.7806L20.4788 14.671V14.0231L20.3175 13.8935V12.9666L20.8862 8.90985H22.7279L22.2441 12.5081V13.4649L22.295 13.5546L22.346 13.6344L22.4054 13.7042L22.4648 13.764H23.3899L23.5002 13.7141L23.6105 13.6443L23.7124 13.5646L23.8142 13.4749L23.9076 13.3752L23.9925 13.2556L24.0688 13.126L24.1367 12.9765L24.1962 12.8171L24.2386 12.6376V12.4483L24.8072 8.90985H26.6489L25.7408 15.9368Z" fill="white"/>
<path d="M25.7748 15.9765H23.8652L23.9925 15.0296L23.8227 15.2489L23.6021 15.4881L23.4493 15.6077L23.339 15.6775L23.2117 15.7472L22.9995 15.827L22.7534 15.8868H21.2596L21.0984 15.7771L21.022 15.7074L20.9456 15.6376L20.8777 15.5678L20.7419 15.3984L20.6825 15.3087L20.6231 15.209L20.5297 14.89L20.4449 14.6608L20.377 14.4116V14.282L20.3175 14.0328V12.9663L20.8777 8.85978H22.7873L22.2781 12.6773V13.4348L22.3205 13.5245L22.3714 13.6042L22.4308 13.6641L22.4903 13.7239H23.3644L23.4663 13.674L23.5681 13.6142L23.67 13.5444L23.7633 13.4547L23.8567 13.3551L23.9415 13.2454L24.0179 13.1158L24.0858 12.9763L24.1368 12.8168L24.1792 12.6474V12.458L24.7733 8.90962H26.6829L25.7748 15.9765ZM20.9201 8.90962L20.3685 12.8966V14.302L20.4279 14.5511V14.6708L20.5128 14.89L20.6146 15.0894L20.7249 15.2688L20.8522 15.4283L20.9201 15.498L20.988 15.5678L21.0644 15.6276L21.2172 15.7273H22.3629L22.7449 15.6775L22.9825 15.6177L23.1862 15.5379L23.3644 15.4382L23.4663 15.3685L23.653 15.199L23.8652 14.9498L24.1113 14.6209L23.95 15.8868H25.7154L26.6065 8.90962H24.8412L24.3829 12.4181V12.6075L24.3404 12.7869L24.281 12.9564L24.2131 13.1059L24.1368 13.2355L24.0434 13.3551L23.95 13.4547L23.8482 13.5444L23.7463 13.6242L23.636 13.694L23.5257 13.7438H22.6176L22.5412 13.694L22.4733 13.6341L22.4139 13.5644L22.3545 13.4747L22.3035 13.385L22.2611 13.2753V12.3882L22.6855 8.90962H20.9201ZM15.8279 15.8868H17.695L18.4079 11.6307L18.4504 11.5111L18.4928 11.4015L18.5437 11.3018L18.6032 11.2121L18.6626 11.1323L18.7305 11.0626L18.7984 10.9928L18.8663 10.933L18.9426 10.8832H19.9441L20.4449 8.88968H19.5028L19.4688 8.90962H18.8068L18.7559 8.95945L18.705 9.00929L18.6201 9.46779V9.52759L18.5777 9.5874L18.5353 9.6472L18.4928 9.70701V9.77678L18.5607 8.83984H16.9227L15.8279 15.8868Z" fill="white"/>
<path d="M17.7714 15.9665H15.7854L16.8463 8.84984H18.5437L18.4843 9.6871L18.6201 9.43792L18.722 9.32828L18.8747 9.17877L19.0445 9.04919L19.1633 8.97942L19.2991 8.90965H19.4688L19.681 8.83988H20.5467L19.9781 10.9031H19.9271L19.5961 10.8134H19.4264L19.2312 10.8732L19.0954 10.933H18.9596L18.8917 10.9829L18.8238 11.0427L18.7559 11.1025L18.6965 11.1722L18.6371 11.252L18.5862 11.3417L18.5353 11.4414L18.4928 11.541L18.4504 11.6606L17.7714 15.9665ZM15.8703 15.8868H17.6696L18.374 11.6706L18.4164 11.541L18.4674 11.4314L18.5268 11.3317L18.5862 11.242L18.6456 11.1523L18.7135 11.0726L18.7814 11.0028L18.8493 10.943L18.9257 10.8832H18.9936L19.1378 10.8034L19.2736 10.7436H19.698L19.9271 10.8134L20.4109 8.86978H19.664L19.4009 8.95948L19.2736 9.01929L19.1548 9.08906L18.9342 9.24854L18.7389 9.43792L18.6201 9.60736L18.4928 9.79674L18.4164 9.91635L18.4928 8.91961H16.9227L15.8703 15.8868ZM12.781 8.79004H14.4445V8.88971H12.781V8.79004Z" fill="white"/>
<path d="M16.8887 8.79004H18.5352V8.88971H16.8887V8.79004Z" fill="white"/>
</svg>
