<svg width="34" height="24" viewBox="0 0 34 24" fill="none" xmlns="http://www.w3.org/2000/svg">
<g clip-path="url(#clip0_1_385)">
<path fill-rule="evenodd" clip-rule="evenodd" d="M31.0036 12.406C32.6518 12.4299 34 13.8284 34 15.5165C34 17.2045 32.6518 18.6239 31.0036 18.6478H22.0734C23.191 18.1807 23.7364 17.2344 24.2982 16.1329H30.9666C31.0484 16.1353 31.1299 16.1211 31.2061 16.0913C31.2824 16.0614 31.352 16.0164 31.4109 15.959C31.4697 15.9015 31.5165 15.8328 31.5486 15.7568C31.5807 15.6808 31.5975 15.5991 31.5978 15.5165C31.5992 15.4323 31.5839 15.3486 31.5527 15.2705C31.5215 15.1924 31.4751 15.1214 31.4162 15.0617C31.3574 15.002 31.2873 14.9548 31.21 14.9229C31.1328 14.8911 31.05 14.8752 30.9666 14.8762H27.8564C27.0471 14.8699 26.2734 14.5398 25.7047 13.9585C25.1361 13.3771 24.819 12.5918 24.823 11.7747C24.823 10.0702 26.1844 8.68066 27.8564 8.68066H32.6518V11.0941H27.8564C27.6855 11.1022 27.5243 11.1765 27.4064 11.3017C27.2886 11.4268 27.2231 11.593 27.2237 11.7657C27.2237 12.1239 27.509 12.4075 27.8564 12.4075H31.005L31.0036 12.406ZM18.9321 8.68066C21.6048 8.68066 23.769 10.906 23.769 13.6478C23.769 16.3911 21.5959 18.6478 18.9321 18.6478H16.5077V24.0001H14.0878V13.6568C14.0878 10.915 16.2594 8.68066 18.9306 8.68066H18.9321ZM18.9321 16.1329C19.2545 16.1333 19.5738 16.0692 19.8716 15.9442C20.1693 15.8192 20.4395 15.6359 20.6666 15.4048C20.8937 15.1737 21.0732 14.8994 21.1946 14.5978C21.3161 14.2963 21.3771 13.9734 21.3742 13.6478C21.3742 12.2598 20.2803 11.1254 18.9321 11.1254C17.5928 11.1254 16.5077 12.2598 16.5077 13.6478V16.1329H18.9321Z" fill="#5F6360"/>
<path fill-rule="evenodd" clip-rule="evenodd" d="M6.43783 18.6478H12.8269C12.7499 19.089 12.5218 19.4889 12.1824 19.7776C11.843 20.0662 11.4139 20.2253 10.9702 20.2269H1.88626C0.847044 20.2269 0 19.3284 0 18.2746V9.00896C0 7.95373 0.847044 7.11045 1.88626 7.11045H10.9702C12.0035 7.11045 12.8564 7.97612 12.8564 9.03284L12.8505 16.1328H6.43783C5.45922 16.1328 4.60478 15.6552 4.18052 14.8194H11.3102V13.6179C11.3121 12.3072 10.7995 11.0491 9.88464 10.1192C8.96974 9.18932 7.72712 8.66343 6.42896 8.65672C5.33702 8.66308 4.27854 9.03792 3.42191 9.72162C2.56528 10.4053 1.95969 11.3586 1.70148 12.4299C1.70148 12.4299 1.56252 13.1567 1.56252 13.6328C1.56252 14.103 1.70887 14.8209 1.70887 14.8209C2.23365 16.9925 4.148 18.6478 6.43783 18.6478ZM6.42896 11.009C7.40757 11.009 8.25461 11.6179 8.67591 12.406H4.17313C4.59591 11.6179 5.45183 11.009 6.42896 11.009ZM10.5415 4.09403V5.24328C10.5415 5.38955 10.4173 5.53284 10.2636 5.53284H8.7513C8.60643 5.53284 8.48374 5.38955 8.48374 5.24179V4.09403C8.48374 2.96866 7.55983 2.04627 6.42896 2.04627C5.29661 2.04627 4.3727 2.96866 4.3727 4.09403V5.24328C4.3727 5.38955 4.23965 5.53284 4.09478 5.53284H2.57957C2.43174 5.53284 2.31052 5.38955 2.31052 5.24179V3.98507C2.37113 1.77612 4.19678 0 6.42896 0C8.69956 0 10.5415 1.83582 10.5415 4.09403Z" fill="#A31660"/>
</g>
<defs>
<clipPath id="clip0_1_385">
<rect width="34" height="24" fill="white"/>
</clipPath>
</defs>
</svg>
