<svg width="34" height="24" viewBox="0 0 34 24" fill="none" xmlns="http://www.w3.org/2000/svg">
<g clip-path="url(#clip0_1_390)">
<path fill-rule="evenodd" clip-rule="evenodd" d="M0 4.30501C0 1.92751 1.7544 6.54875e-06 3.91952 6.54875e-06H30.0805C31.1177 -0.00198506 32.1133 0.450362 32.8482 1.25762C33.5832 2.06488 33.9975 3.16098 34 4.30501V19.695C33.9989 20.2615 33.8967 20.8223 33.6991 21.3452C33.5016 21.8682 33.2126 22.3431 32.8486 22.7428C32.4847 23.1426 32.0529 23.4594 31.5779 23.6751C31.103 23.8908 30.5941 24.0012 30.0805 24H3.91952C2.88227 24.002 1.88675 23.5497 1.15178 22.7424C0.416801 21.9351 0.00252215 20.839 0 19.695L0 4.30501ZM1.54496 19.668C1.54496 21.18 2.55136 22.2855 3.91952 22.2855H16.9755V1.71451H3.91952C2.55136 1.71451 1.54496 2.82001 1.54496 4.33201V19.668ZM20.9195 19.5H24.14V13.785H24.1794C24.7833 15.036 26.0073 15.4995 27.1252 15.4995C29.9037 15.4995 31.382 12.9195 31.382 9.81301C31.3834 7.26901 29.9771 4.50001 27.4013 4.50001C25.9284 4.50001 24.5766 5.17051 23.9306 6.64201H23.8925V4.74001H20.9209V19.5H20.9195ZM28.0595 9.89251C28.0595 11.5635 27.3278 12.7125 26.112 12.7125C25.0322 12.7125 24.14 11.5635 24.14 10.0365C24.14 8.45551 24.9288 7.28701 26.112 7.28701C27.3591 7.28701 28.0595 8.50051 28.0595 9.89251Z" fill="#05337A"/>
<path fill-rule="evenodd" clip-rule="evenodd" d="M14.3834 4.74V13.875C14.3834 18.126 12.4998 19.5 8.69313 19.5C7.46617 19.5061 6.24715 19.2829 5.08777 18.84L5.24825 16.0185C6.24513 16.5615 7.07609 16.875 8.44425 16.875C10.3278 16.875 11.341 15.9015 11.341 13.875V13.32H11.3002C10.5196 14.535 9.43297 15.09 8.12873 15.09C5.53929 15.09 3.91953 12.945 3.91953 9.8835C3.91953 6.804 5.24825 4.5 8.18721 4.5C9.57713 4.5 10.7046 5.34 11.3968 6.6075H11.4308V4.74H14.382H14.3834ZM7.29233 9.831C7.29233 11.4375 8.17089 12.348 9.14465 12.348C10.3034 12.348 11.2282 11.277 11.2282 9.687C11.2282 8.535 10.608 7.242 9.14465 7.242C7.92881 7.242 7.29233 8.421 7.29233 9.831Z" fill="#EE3525"/>
</g>
<defs>
<clipPath id="clip0_1_390">
<rect width="34" height="24" fill="white"/>
</clipPath>
</defs>
</svg>
