<svg width="34" height="24" viewBox="0 0 34 24" fill="none" xmlns="http://www.w3.org/2000/svg">
<g clip-path="url(#clip0_1_395)">
<path fill-rule="evenodd" clip-rule="evenodd" d="M18.904 18.9913H13.192V4.69629H18.904H18.6717C23.4392 4.69629 28.509 6.21429 28.509 11.8588C28.509 17.8213 23.4392 18.9838 18.6717 18.9838H18.904V18.9913Z" fill="#DB4093"/>
<path fill-rule="evenodd" clip-rule="evenodd" d="M19.5443 0C23.664 0.0615 27.1377 1.026 29.6178 2.805C31.0506 3.84644 32.1573 5.13929 32.8497 6.5805C33.6128 8.1405 34 9.963 34 12C34 16.2495 32.5172 19.428 29.6064 21.438C27.2057 23.091 23.817 23.9475 19.5443 23.991V24H0V0H19.5443ZM19.1817 1.5975H1.97011V22.4025H19.1817C27.8233 22.4025 32.0318 18.9975 32.0318 12C32.0318 8.4645 30.7794 5.775 28.3107 4.0005C26.1196 2.427 22.9651 1.5975 19.1817 1.5975ZM4.99233 18.795H10.6137V11.268H4.99233V18.795ZM7.85778 4.947C12.0983 4.947 12.0983 10.071 7.85778 10.071C3.60778 10.071 3.60778 4.947 7.85778 4.947Z" fill="black"/>
</g>
<defs>
<clipPath id="clip0_1_395">
<rect width="34" height="24" fill="white"/>
</clipPath>
</defs>
</svg>
