<svg width="34" height="24" viewBox="0 0 34 24" fill="none" xmlns="http://www.w3.org/2000/svg">
<g clip-path="url(#clip0_1_346)">
<path d="M16.9869 20.8781C18.0422 19.7531 18.8856 18.3801 19.4628 16.8475C20.04 15.3149 20.3381 13.6568 20.338 11.9802C20.338 8.58845 19.1204 5.35528 16.9872 3.08225C15.1205 1.0896 12.6893 -0.00964121 10.1703 6.37173e-05C4.55314 6.37173e-05 -0.000289917 5.37244 -0.000289917 12.0001C-0.000289917 18.6273 4.55314 23.9997 10.1703 23.9997C12.6938 23.9986 15.1255 22.8851 16.9872 20.8781H16.9869Z" fill="#009DDD"/>
<path d="M16.9869 20.8779C18.0422 19.7529 18.8856 18.3799 19.4628 16.8473C20.04 15.3147 20.3381 13.6566 20.338 11.9799C20.338 8.58824 19.1204 5.35507 16.9872 3.08203V20.8779H16.9869Z" fill="#009DDD"/>
<path d="M23.821 4.86541e-06C21.2949 -0.00261472 18.8585 1.1033 16.9869 3.10209C16.6384 3.50425 16.3092 3.92905 16.0009 4.3745H18.0232C18.2997 4.78298 18.5585 5.20765 18.7986 5.6469H15.1586C14.9442 6.06115 14.7446 6.48577 14.5603 6.91965H19.3718C19.532 7.34687 19.6922 7.76449 19.8099 8.19205H14.1726C14.0501 8.61556 13.9489 9.04719 13.8694 9.48471H20.1049C20.2494 10.3186 20.3228 11.1682 20.324 12.0196C20.324 13.3137 20.1475 14.5993 19.8014 15.8275H14.1726C14.2935 16.2603 14.4342 16.6851 14.5941 17.0999H19.3718C19.1982 17.5365 19.0041 17.9614 18.7904 18.3727H15.1586C15.4168 18.8107 15.6982 19.229 16.0012 19.6252H18.0235C17.7035 20.0708 17.3572 20.4894 16.9872 20.8777C20.3496 24.4852 25.3321 25.0229 29.1935 22.1954C33.0545 19.3675 34.8572 13.8602 33.6091 8.70438C32.361 3.54853 28.3654 -0.00479925 23.821 4.86541e-06Z" fill="#ED1C2E"/>
<path d="M30.4692 14.5942C30.4715 14.4915 30.5083 14.3941 30.5715 14.3233C30.6346 14.2526 30.7191 14.2142 30.8062 14.2167C30.8486 14.2153 30.8908 14.2241 30.9302 14.2425C30.9697 14.261 31.0055 14.2888 31.0355 14.3241C31.0655 14.3594 31.089 14.4016 31.1047 14.448C31.1204 14.4945 31.1278 14.5442 31.1266 14.5942C31.1278 14.6451 31.1204 14.6958 31.1049 14.7434C31.0895 14.7909 31.0662 14.8344 31.0364 14.8714C31.0067 14.9084 30.971 14.9381 30.9315 14.9588C30.892 14.9795 30.8494 14.9909 30.8062 14.9922C30.718 14.9873 30.6346 14.9437 30.5723 14.8701C30.5099 14.7965 30.4732 14.6981 30.4692 14.5942ZM30.8062 14.9023C30.8391 14.9011 30.8715 14.8921 30.9013 14.8758C30.9312 14.8595 30.9579 14.8363 30.9799 14.8075C31.002 14.7787 31.0189 14.745 31.0295 14.7083C31.0402 14.6717 31.0445 14.6328 31.0422 14.5942C31.0433 14.5573 31.038 14.5205 31.0265 14.4862C31.0151 14.4518 30.9977 14.4206 30.9756 14.3945C30.9535 14.3684 30.927 14.3479 30.8979 14.3344C30.8687 14.3209 30.8375 14.3146 30.8062 14.3159C30.7734 14.3132 30.7405 14.3183 30.7094 14.331C30.6784 14.3436 30.6498 14.3635 30.6254 14.3895C30.6011 14.4155 30.5814 14.447 30.5676 14.4822C30.5538 14.5174 30.5462 14.5554 30.5452 14.5942C30.5452 14.7644 30.662 14.9023 30.8062 14.9023ZM30.8062 14.7633H30.7305V14.4353H30.9242C30.9411 14.4353 30.9242 14.4353 30.9242 14.5046C30.9242 14.5743 30.9242 14.5942 30.8653 14.5942L30.9242 14.7335H30.84V14.6141L30.8062 14.7633ZM30.8062 14.5746H30.882V14.5046H30.8062V14.5746ZM8.89802 14.9919H7.62546L8.38393 10.3092L6.64796 14.9919H5.49366L5.29151 10.3391L4.53305 14.9919H3.36185L4.35624 8.94727H6.34475L6.44582 12.7055L7.8445 8.94727H9.89213L8.89802 14.9919ZM23.0456 14.9123C22.7476 15.0171 22.4383 15.0708 22.1272 15.0715C21.4867 15.0715 21.1328 14.6937 21.1328 13.9878C21.1241 13.8389 21.1241 13.6893 21.1328 13.5403L21.2086 13.0435L21.2677 12.6657L21.8998 8.94727H23.1551L22.9783 10.0707H23.585L23.408 11.2738H22.7424L22.422 13.3417C22.4167 13.4111 22.4167 13.4809 22.422 13.5503C22.422 13.8087 22.5653 13.9281 22.8604 13.9281C22.9723 13.9437 23.0854 13.9437 23.1974 13.9281L23.0456 14.9123ZM26.7279 10.0807C26.6807 10.0686 26.632 10.0686 26.5848 10.0807H26.3405C25.8823 10.1006 25.4667 10.4026 25.245 10.8761L25.363 10.1205H24.2168L23.4417 15.0914H24.714C25.169 12.059 25.3545 11.5223 25.9694 11.5223H26.2729L26.7279 10.0807ZM18.0238 11.6118C18.0238 12.2281 18.3186 12.6653 19.001 12.9738C19.5236 13.2322 19.5993 13.3019 19.5993 13.5403C19.5993 13.7792 19.3634 13.9878 18.8662 13.9878C18.4664 13.9866 18.069 13.9163 17.6865 13.7792L17.5432 14.9123H17.6024L17.8214 14.9819H18.1584C18.3969 15.0011 18.6361 15.0011 18.8749 14.9819C20.206 14.9819 20.8465 14.4651 20.8465 13.3417C20.8465 12.6554 20.5853 12.258 19.9279 11.9598C19.2707 11.6612 19.3715 11.7309 19.3715 11.4924C19.3715 11.2539 19.5909 11.0947 20.0123 11.0947C20.3193 11.0978 20.6257 11.1211 20.9307 11.1644L21.0571 10.0409C20.6917 9.97627 20.3227 9.94301 19.9532 9.94137C18.5207 9.94137 18.0238 10.697 18.0238 11.6118ZM13.0014 14.9919H11.9654V14.4751C11.7915 14.6786 11.5829 14.8361 11.3533 14.9373C11.1237 15.0384 10.8785 15.0807 10.634 15.0615C10.4816 15.0713 10.3292 15.0435 10.1865 14.9798C10.0438 14.9161 9.91394 14.8179 9.80533 14.6916C9.69665 14.5652 9.61155 14.4134 9.55548 14.246C9.4994 14.0786 9.47359 13.8993 9.47969 13.7195C9.47969 12.5164 10.3223 11.8105 11.7126 11.8105C11.8838 11.8002 12.0554 11.8002 12.2267 11.8105C12.2412 11.7086 12.2412 11.6046 12.2267 11.5024C12.2267 11.1743 12.0076 11.0549 11.384 11.0549C11.0359 11.0549 10.6888 11.0947 10.3474 11.1743L10.1706 11.244H10.0526L10.2294 10.1404C10.7391 9.99045 11.2634 9.92353 11.7883 9.94137C12.8838 9.94137 13.4736 10.4386 13.4736 11.373C13.4669 11.7076 13.4328 12.0404 13.3725 12.3671L13.1113 14.1271V14.8529L13.0014 14.9919ZM12.0831 12.7847C11.9905 12.7757 11.8975 12.7757 11.8049 12.7847C11.0887 12.7847 10.7263 13.0435 10.7263 13.5403C10.7212 13.6097 10.7291 13.6795 10.7493 13.745C10.7695 13.8104 10.8016 13.8698 10.8434 13.9191C10.8851 13.9683 10.9355 14.0062 10.991 14.0302C11.0465 14.0541 11.1058 14.0634 11.1647 14.0575C11.2947 14.0486 11.4219 14.0092 11.5388 13.9417C11.6557 13.8741 11.7599 13.7796 11.8454 13.6639C11.931 13.5481 11.9961 13.4133 12.0369 13.2674C12.0777 13.1216 12.0934 12.9677 12.0831 12.8146V12.7847ZM17.164 14.9123C16.7416 15.0512 16.305 15.1216 15.8664 15.1212C14.4508 15.1212 13.7177 14.3457 13.7177 12.8842C13.685 12.5139 13.7176 12.1396 13.8133 11.7847C13.909 11.4299 14.0659 11.1021 14.274 10.8219C14.4819 10.542 14.7367 10.3158 15.0224 10.1574C15.308 9.99902 15.6184 9.91192 15.934 9.90157C16.1471 9.87188 16.3632 9.89621 16.5678 9.9729C16.7723 10.0496 16.9606 10.1769 17.12 10.3463C17.2796 10.5158 17.4067 10.7235 17.4927 10.9554C17.5788 11.1874 17.622 11.4383 17.6192 11.6914C17.6176 12.1073 17.5723 12.5213 17.4844 12.924H14.9562V13.0929C14.9562 13.6598 15.3188 13.958 16.0519 13.958C16.5031 13.96 16.9502 13.855 17.3664 13.6498L17.164 14.9123ZM16.49 11.9299V11.6712C16.49 11.2738 16.271 11.035 15.8917 11.035C15.5125 11.035 15.2177 11.363 15.0913 11.9299H16.49ZM30.6714 12.735C30.6431 13.0828 30.5566 13.4207 30.4168 13.729C30.2771 14.0372 30.0869 14.3098 29.8573 14.531C29.6278 14.7518 29.3634 14.9168 29.0794 15.0164C28.7954 15.1159 28.4975 15.1481 28.2028 15.1109C27.9392 15.1477 27.6719 15.1146 27.4205 15.0142C27.1691 14.9139 26.9398 14.7487 26.7494 14.5307C26.5589 14.3125 26.4121 14.047 26.3195 13.7537C26.2269 13.4603 26.1909 13.1463 26.2141 12.8345C26.1874 12.4349 26.2345 12.0333 26.3521 11.6572C26.4697 11.2811 26.655 10.9395 26.8953 10.6558C27.1354 10.3724 27.4249 10.1537 27.7437 10.0149C28.0625 9.8761 28.4031 9.82045 28.742 9.85181C29.0031 9.82021 29.2669 9.85526 29.5154 9.95456C29.7639 10.0539 29.9914 10.2151 30.1823 10.4273C30.3734 10.6396 30.5235 10.8979 30.6225 11.1846C30.7214 11.4712 30.7669 11.7796 30.7558 12.0888C30.7768 12.2937 30.7768 12.5006 30.7558 12.7055L30.6714 12.735ZM29.3569 12.0988C29.3569 11.582 29.1801 11.1047 28.6578 11.1047C28.1353 11.1047 27.6212 11.9993 27.6212 12.7947C27.6212 13.5901 27.8993 13.8983 28.3374 13.8983C28.585 13.839 28.8112 13.692 28.9859 13.4771C29.1606 13.2621 29.2754 12.9894 29.3149 12.6955C29.3356 12.4906 29.3356 12.2837 29.3149 12.0789L29.3569 12.0988Z" fill="white"/>
</g>
<defs>
<clipPath id="clip0_1_346">
<rect width="34" height="24" fill="white"/>
</clipPath>
</defs>
</svg>
