<svg width="34" height="24" viewBox="0 0 34 24" fill="none" xmlns="http://www.w3.org/2000/svg">
<g clip-path="url(#clip0_1_338)">
<path d="M10.1657 0.72168C5.62302 0.729314 1.63563 4.0569 0.396315 8.87495C-0.842682 13.6926 0.966706 18.832 4.82976 21.4673C8.69281 24.1026 13.6727 23.5932 17.0305 20.2205C17.4016 19.8474 17.7472 19.4446 18.0643 19.0153H16.0135C15.7394 18.6476 15.4874 18.2605 15.2592 17.8566H18.844C19.0636 17.4716 19.2618 17.0722 19.4374 16.6607H14.6659C14.5041 16.2777 14.3626 15.8847 14.2422 15.4836H19.8611C20.2055 14.3385 20.3801 13.1397 20.378 11.9332C20.3769 11.1257 20.2973 10.3207 20.1406 9.53186H13.9371C14.0139 9.13452 14.1103 8.74134 14.2252 8.35476H19.8441C19.7182 7.94408 19.571 7.54169 19.4034 7.14956H14.6574C14.83 6.74422 15.0253 6.35109 15.2422 5.97246H18.827C18.5884 5.55517 18.3251 5.15569 18.0388 4.77662H16.039C16.3428 4.37239 16.6743 3.99442 17.0305 3.64603C15.1792 1.77533 12.7617 0.732656 10.2504 0.72168H10.1657Z" fill="#931B1D"/>
<path d="M33.9805 11.9337C34.0703 13.4638 33.8745 14.998 33.4052 16.4414C32.9358 17.8848 32.2029 19.2068 31.2516 20.3255C30.3004 21.4442 29.1512 22.3359 27.8749 22.9455C26.5987 23.5551 25.2225 23.8696 23.8316 23.8696C22.4407 23.8696 21.0646 23.5551 19.7884 22.9455C18.5121 22.3359 17.3628 21.4442 16.4116 20.3255C15.4604 19.2068 14.7275 17.8848 14.2581 16.4414C13.7887 14.998 13.5929 13.4638 13.6828 11.9337C13.5926 10.4034 13.7881 8.86891 14.2573 7.4252C14.7265 5.9815 15.4594 4.65926 16.4106 3.54026C17.3619 2.42126 18.5112 1.52929 19.7876 0.919511C21.064 0.309734 22.4404 -0.00488281 23.8315 -0.00488281C25.2226 -0.00488281 26.5989 0.309734 27.8753 0.919511C29.1517 1.52929 30.3011 2.42126 31.2523 3.54026C32.2036 4.65926 32.9364 5.9815 33.4056 7.4252C33.8748 8.86891 34.0707 10.4034 33.9805 11.9337Z" fill="#F16622"/>
<path d="M33.9805 12.0646C34.0703 13.5947 33.8745 15.1289 33.4052 16.5723C32.9358 18.0157 32.2029 19.3376 31.2516 20.4563C30.3004 21.575 29.1512 22.4668 27.8749 23.0764C26.5987 23.686 25.2225 24.0005 23.8316 24.0005C22.4407 24.0005 21.0646 23.686 19.7884 23.0764C18.5121 22.4668 17.3628 21.575 16.4116 20.4563C15.4604 19.3376 14.7275 18.0157 14.2581 16.5723C13.7887 15.1289 13.5929 13.5947 13.6828 12.0646C13.5926 10.5342 13.7881 8.99977 14.2573 7.55606C14.7265 6.11236 15.4594 4.79012 16.4106 3.67112C17.3619 2.55212 18.5112 1.66015 19.7876 1.05037C21.064 0.440594 22.4404 0.125977 23.8315 0.125977C25.2226 0.125977 26.5989 0.440594 27.8753 1.05037C29.1517 1.66015 30.3011 2.55212 31.2523 3.67112C32.2036 4.79012 32.9364 6.11236 33.4056 7.55606C33.8748 8.99977 34.0707 10.5342 33.9805 12.0646Z" fill="#F7981D"/>
<path d="M10.1657 0.853516C5.62018 0.855945 1.6287 4.18353 0.387502 9.00435C-0.853069 13.8245 0.958208 18.9677 4.82504 21.6019C8.69155 24.2362 13.6743 23.7222 17.0305 20.3422C17.4021 19.9698 17.7476 19.567 18.0643 19.1374H16.0135C15.7395 18.7729 15.4875 18.389 15.2592 17.988H18.844C19.0637 17.5999 19.2618 17.1974 19.4374 16.7828H14.6659C14.5043 16.3997 14.3629 16.0067 14.2422 15.6057H19.8611C20.2094 14.4582 20.387 13.2561 20.3868 12.046C20.3856 11.2385 20.3059 10.4334 20.1491 9.64461H13.9371C14.0143 9.24705 14.1105 8.85425 14.2252 8.46786H19.8441C19.7209 8.05729 19.5766 7.65479 19.4119 7.26231H14.6659C14.839 6.85733 15.0342 6.46416 15.2507 6.08521H18.8355C18.5966 5.66813 18.3333 5.26867 18.0473 4.88937H16.039C16.3434 4.48876 16.6749 4.11407 17.0305 3.7685C15.1779 1.9012 12.7606 0.861932 10.2504 0.853516H10.1657Z" fill="#CB2026"/>
<path d="M13.8776 14.914L14.013 13.8958H13.7335C13.3608 13.8958 13.3183 13.6716 13.3438 13.5127L13.6403 11.4854H14.2082L14.3435 10.3642H13.8015L13.9116 9.66319H12.8439C12.8439 9.66319 12.208 13.5873 12.208 14.0638C12.1986 14.1926 12.2136 14.3222 12.2519 14.4444C12.2903 14.5666 12.3513 14.6786 12.4309 14.7735C12.5106 14.8683 12.6073 14.9439 12.7148 14.9955C12.8224 15.047 12.9385 15.0734 13.0557 15.0729C13.3439 15.0679 13.6297 15.0143 13.9031 14.914H13.8776ZM14.2252 12.98C14.193 13.2601 14.2187 13.5445 14.3005 13.812C14.3823 14.0795 14.518 14.3231 14.6974 14.5245C14.8768 14.7259 15.0953 14.8799 15.3364 14.9748C15.5776 15.0698 15.8351 15.1034 16.0896 15.0729C16.4794 15.0985 16.8696 15.0317 17.2339 14.8768L17.4202 13.7275C17.0579 13.901 16.6704 14.0023 16.276 14.0266C15.1151 14.0266 15.3184 13.0921 15.3184 13.0921H17.5134C17.5824 12.71 17.6277 12.3228 17.6488 11.9338C17.669 11.7028 17.6433 11.4698 17.5735 11.2508C17.5038 11.0319 17.3916 10.8324 17.2448 10.6661C17.098 10.4998 16.9201 10.3708 16.7235 10.288C16.5269 10.2051 16.3163 10.1705 16.1063 10.1865C15.0219 10.1865 14.2167 11.476 14.2167 12.9429L14.2252 12.98ZM16.1233 11.2984C16.734 11.2984 16.6238 12.0552 16.6238 12.1208H15.4119C15.4119 12.0458 15.5221 11.2984 16.1151 11.2984H16.1233ZM22.963 14.914L23.1578 13.6154C22.8777 13.7747 22.573 13.876 22.2594 13.9145C22.1047 13.9177 21.9511 13.8837 21.8094 13.815C21.6677 13.7462 21.5413 13.6443 21.4389 13.5163C21.3365 13.3884 21.2605 13.2374 21.2163 13.0738C21.1721 12.9102 21.1607 12.738 21.1829 12.5691C21.1829 11.1582 21.8439 10.3829 22.5815 10.3829C22.9345 10.3956 23.2776 10.5152 23.573 10.7285L23.7512 9.46712C23.3637 9.28251 22.9517 9.16868 22.5308 9.13086C21.2849 9.13086 20.0729 10.3267 20.0729 12.5691C20.0729 14.0544 20.7255 15.0448 22.0221 15.0448C22.3388 15.0343 22.6538 14.9905 22.963 14.914ZM7.93669 10.2427C7.49095 10.2431 7.049 10.3319 6.63159 10.5044L6.47892 11.5319C6.85757 11.3872 7.25649 11.3176 7.65716 11.3265C8.06386 11.3265 8.35189 11.3733 8.35189 11.7377C8.36984 11.8362 8.36984 11.9379 8.35189 12.0365H7.88601C6.95362 12.0365 5.97054 12.4758 5.97054 13.8025C5.94957 13.9652 5.96105 14.1311 6.00419 14.2885C6.04733 14.4458 6.12108 14.5909 6.2203 14.7137C6.31952 14.8364 6.44183 14.9338 6.57871 14.9991C6.71558 15.0644 6.86372 15.096 7.0128 15.0916C7.22348 15.0973 7.43262 15.0507 7.62479 14.9554C7.81695 14.86 7.98723 14.7182 8.12305 14.5406V14.9983H9.07244L9.49614 11.7096C9.50233 11.5015 9.46665 11.2945 9.39168 11.1034C9.31671 10.9123 9.20429 10.7418 9.0625 10.6043C8.92071 10.4668 8.75306 10.3655 8.57159 10.3079C8.39011 10.2502 8.19931 10.2376 8.01287 10.2708L7.93669 10.2427ZM8.16554 12.9148C8.16554 13.1202 8.05537 14.0547 7.40282 14.0547C7.34767 14.0587 7.29238 14.0499 7.24048 14.029C7.18858 14.0081 7.14119 13.9755 7.10134 13.9332C7.06149 13.891 7.03004 13.8402 7.00899 13.7838C6.98795 13.7275 6.97778 13.667 6.97911 13.606C6.97911 13.2792 7.13997 12.8867 7.92819 12.8867C8.00689 12.8721 8.08684 12.8721 8.16554 12.8867V12.9148ZM10.4282 15.0354C10.6741 15.0354 12.0642 15.101 12.0642 13.5221C12.0642 11.9431 10.7757 12.3353 10.7757 11.7377C10.7757 11.4386 10.9876 11.3452 11.3691 11.3452C11.5218 11.3452 12.1063 11.4011 12.1063 11.4011L12.242 10.3454C11.9123 10.2779 11.5773 10.2465 11.2419 10.2517C10.4455 10.2517 9.63181 10.6071 9.63181 11.8123C9.63181 13.1761 10.9876 13.0456 10.9876 13.6154C10.9876 13.9985 10.6064 14.036 10.318 14.036C9.99249 14.0233 9.67016 13.9604 9.36047 13.849L9.2163 14.8956C9.60877 15.0257 10.0194 15.0762 10.4282 15.0448V15.0354ZM31.9123 9.29916L31.6838 10.8969C31.5548 10.7106 31.3897 10.5585 31.2004 10.4518C31.0112 10.3451 30.8027 10.2865 30.5902 10.2802C29.5987 10.2802 28.7768 11.5975 28.7768 13.0831C28.7768 14.0173 29.2175 15.017 30.1159 15.017C30.3062 15.0177 30.4944 14.9739 30.6683 14.8886C30.8421 14.8032 30.9976 14.6782 31.1244 14.5218L31.0734 14.9514H32.1245L32.9719 9.27071L31.9123 9.29916ZM31.438 12.4196C31.438 13.0456 31.1581 13.8864 30.5902 13.8864C30.2005 13.8864 30.0227 13.5221 30.0227 12.9523C30.0227 12.0177 30.3954 11.4104 30.8701 11.4104C31.3448 11.4104 31.4635 11.7096 31.4635 12.4008L31.438 12.4196ZM2.08073 14.9796L2.74178 10.6911L2.83465 14.9796H3.58069L4.97047 10.6911L4.31792 14.9796H5.46185L6.30956 9.29916H4.61476L3.53819 12.784L3.47051 9.29916H1.91106L1.06335 14.9796H2.08073ZM18.7253 14.9889C19.0389 13.0178 19.0984 11.4104 19.8523 11.7002C19.9193 11.2192 20.0537 10.7528 20.2508 10.3173C20.1803 10.3098 20.1094 10.3098 20.0389 10.3173C19.5561 10.3173 19.1915 11.0461 19.1915 11.0461L19.2847 10.3735H18.2931L17.6236 15.0448L18.7253 14.9889ZM25.4545 10.2427C25.0088 10.2431 24.5668 10.3319 24.1494 10.5044L23.9967 11.5319C24.3754 11.3872 24.7743 11.3176 25.175 11.3265C25.5732 11.3265 25.8697 11.3733 25.8697 11.7377C25.8877 11.8363 25.8877 11.9379 25.8697 12.0365H25.4038C24.4714 12.0365 23.4884 12.4758 23.4884 13.8025C23.4674 13.9652 23.4789 14.1311 23.522 14.2885C23.5651 14.4458 23.6389 14.5909 23.7381 14.7137C23.8373 14.8364 23.9597 14.9338 24.0965 14.9991C24.2334 15.0644 24.3815 15.096 24.5306 15.0916C24.7414 15.098 24.9507 15.0518 25.143 14.9563C25.3353 14.8609 25.5055 14.7188 25.6409 14.5406V14.9983H26.5903L27.014 11.7096C27.0201 11.5015 26.9845 11.2945 26.9095 11.1034C26.8345 10.9123 26.7221 10.7418 26.5803 10.6043C26.4385 10.4668 26.2709 10.3655 26.0894 10.3079C25.9079 10.2502 25.7171 10.2376 25.5307 10.2708L25.4545 10.2427ZM25.6834 12.9148C25.6834 13.1202 25.5732 14.0547 24.9206 14.0547C24.8652 14.0602 24.8093 14.0524 24.7568 14.0321C24.7043 14.0117 24.6564 13.9792 24.6162 13.9366C24.5761 13.8941 24.5446 13.8426 24.5241 13.7856C24.5035 13.7286 24.4942 13.6673 24.4969 13.606C24.4969 13.2792 24.6578 12.8867 25.446 12.8867C25.5247 12.8721 25.6047 12.8721 25.6834 12.8867V12.9148ZM27.8019 14.9889C28.1157 13.0178 28.1749 11.4104 28.9294 11.7002C28.9951 11.2189 29.1295 10.7522 29.3276 10.3173C29.2572 10.3099 29.1862 10.3099 29.1158 10.3173C28.6326 10.3173 28.2684 11.0461 28.2684 11.0461L28.3616 10.3735H27.37L26.7001 15.0448L27.8019 14.9889Z" fill="white"/>
</g>
<defs>
<clipPath id="clip0_1_338">
<rect width="34" height="24" fill="white"/>
</clipPath>
</defs>
</svg>
