<svg width="34" height="24" viewBox="0 0 34 24" fill="none" xmlns="http://www.w3.org/2000/svg">
<g clip-path="url(#clip0_1_375)">
<path d="M12.1773 23.5916L13.913 0.379785H16.689L14.9731 23.5916H12.1773ZM24.8513 0.971376C24.0522 0.315283 23.209 -0.0133907 22.3602 0.000417674C19.6107 0.000417674 17.6762 3.15603 17.6628 7.58603C17.6628 10.9237 19.0409 12.7744 20.1009 13.8973C21.161 15.0198 21.5453 15.7632 21.5386 16.78C21.5386 18.2971 20.6774 19.0402 19.8757 19.0402C18.9743 19.1014 18.0788 18.686 17.2588 17.8265L16.901 17.4624L16.5101 22.7572C17.5007 23.5917 18.5486 24.0131 19.6041 24.0015C22.5258 24.0015 24.4206 20.8909 24.4472 16.0667C24.4472 13.427 23.7184 11.4244 22.1151 9.75542C21.1411 8.64784 20.5383 7.93488 20.5383 6.84255C20.5383 5.75022 21.0418 4.83995 22.1283 4.83995C22.8413 4.80648 23.5497 5.11133 24.2087 5.73531L24.4604 6.00822L24.8513 0.971376ZM29.5883 0.379785C29.2873 0.300991 28.9834 0.451471 28.7235 0.807951C28.4637 1.16443 28.2624 1.70705 28.1507 2.35187L24.0297 23.5916H26.9713L27.5412 20.0417H31.0592L31.3838 23.5916H34.0008L31.715 0.379785H29.5883ZM28.3229 15.3839L29.4293 8.89058C29.4293 8.89058 29.6613 7.58603 29.8136 6.69101L29.9991 8.69361L30.6616 15.3991L28.3229 15.3839ZM7.10893 16.2792L6.86376 13.0931C6.15629 8.86543 4.78629 5.39309 3.02112 3.35369L5.47905 23.5912H8.42065L12.8331 0.379785H9.89153L7.10893 16.2792Z" fill="#293688"/>
<path d="M0 0.379827V0.743936C3.4848 2.67059 5.90972 7.58607 6.86375 13.1084L5.85672 2.35191C5.77999 1.72981 5.60938 1.1902 5.37524 0.829091C5.14109 0.467982 4.85859 0.308786 4.57801 0.379827H0Z" fill="#F7981D"/>
</g>
<defs>
<clipPath id="clip0_1_375">
<rect width="34" height="24" fill="white"/>
</clipPath>
</defs>
</svg>
