<svg width="80" height="20" viewBox="0 0 80 20" fill="none" xmlns="http://www.w3.org/2000/svg">
<g clip-path="url(#clip0_1_333)">
<path d="M21.024 7.08887H29.1243V8.62733H25.9393V17.2758H24.1879V8.62733H21.017V7.08887H21.024ZM28.7783 9.89979H30.2754V11.3232H30.3037C30.3531 11.1219 30.4449 10.9278 30.5791 10.7409C30.7133 10.554 30.8757 10.3743 31.0664 10.2233C31.2571 10.0651 31.4689 9.94293 31.702 9.84228C31.935 9.74882 32.1752 9.6985 32.4153 9.6985C32.5989 9.6985 32.7331 9.70569 32.8037 9.71288C32.8743 9.72007 32.9449 9.73445 33.0226 9.74164V11.3089C32.9096 11.2873 32.7966 11.2729 32.6766 11.2585C32.5565 11.2442 32.4435 11.237 32.3305 11.237C32.0622 11.237 31.8079 11.2945 31.5678 11.4023C31.3277 11.5101 31.1229 11.6755 30.9463 11.884C30.7698 12.0997 30.6285 12.3585 30.5226 12.6748C30.4167 12.9911 30.3672 13.3505 30.3672 13.7603V17.2686H28.7712V9.89979H28.7783ZM40.3602 17.2758H38.7924V16.2477H38.7641C38.5664 16.6216 38.2769 16.9163 37.8884 17.1392C37.5 17.3621 37.1045 17.4771 36.702 17.4771C35.7486 17.4771 35.0565 17.2398 34.6328 16.7582C34.2091 16.2765 33.9972 15.5504 33.9972 14.5799V9.89979H35.5932V14.4217C35.5932 15.0687 35.7133 15.5288 35.9605 15.7948C36.2006 16.0608 36.5466 16.1974 36.9845 16.1974C37.3235 16.1974 37.5989 16.1471 37.8249 16.0393C38.0509 15.9314 38.2345 15.7948 38.3687 15.6151C38.5099 15.4426 38.6088 15.2269 38.6723 14.9825C38.7359 14.738 38.7641 14.472 38.7641 14.1845V9.90698H40.3602V17.2758ZM43.0791 14.9106C43.1285 15.3851 43.3051 15.7158 43.6088 15.9099C43.9195 16.0968 44.2867 16.1974 44.7175 16.1974C44.8658 16.1974 45.0353 16.183 45.226 16.1615C45.4167 16.1399 45.6003 16.0896 45.7627 16.0249C45.9322 15.9602 46.0664 15.8595 46.1794 15.7301C46.2853 15.6007 46.3348 15.4354 46.3277 15.2269C46.3206 15.0184 46.243 14.8459 46.1017 14.7165C45.9605 14.5799 45.7839 14.4792 45.565 14.393C45.3461 14.3139 45.0989 14.242 44.8164 14.1845C44.5339 14.127 44.2514 14.0623 43.9619 13.9976C43.6653 13.9329 43.3757 13.8466 43.1003 13.7531C42.8249 13.6597 42.5777 13.5303 42.3588 13.3649C42.1398 13.2068 41.9633 12.9983 41.8362 12.7467C41.702 12.495 41.6384 12.1859 41.6384 11.8121C41.6384 11.4095 41.7373 11.0788 41.928 10.8056C42.1187 10.5324 42.3658 10.3168 42.6554 10.1514C42.952 9.98606 43.2769 9.87104 43.637 9.79915C43.9972 9.73445 44.3432 9.6985 44.6681 9.6985C45.0424 9.6985 45.4026 9.74164 45.7415 9.82072C46.0805 9.8998 46.3913 10.0292 46.6667 10.2161C46.9421 10.3958 47.1681 10.6331 47.3517 10.9206C47.5353 11.2082 47.6483 11.5605 47.6978 11.9702H46.0311C45.9534 11.582 45.7839 11.316 45.5085 11.1866C45.2331 11.05 44.9153 10.9853 44.5622 10.9853C44.4492 10.9853 44.315 10.9925 44.1596 11.0141C44.0043 11.0357 43.863 11.0716 43.7218 11.1219C43.5876 11.1723 43.4746 11.2513 43.3757 11.352C43.2839 11.4526 43.2345 11.582 43.2345 11.7474C43.2345 11.9487 43.3051 12.1068 43.4393 12.2291C43.5735 12.3513 43.75 12.4519 43.9689 12.5382C44.1879 12.6173 44.435 12.6892 44.7175 12.7467C45 12.8042 45.2896 12.8689 45.5862 12.9336C45.8757 12.9983 46.1582 13.0846 46.4407 13.178C46.7232 13.2715 46.9704 13.4009 47.1893 13.5662C47.4082 13.7316 47.5848 13.9329 47.7189 14.1773C47.8531 14.4217 47.9237 14.7309 47.9237 15.0903C47.9237 15.5288 47.8249 15.8955 47.6271 16.2046C47.4294 16.5066 47.1752 16.7582 46.8644 16.9451C46.5537 17.132 46.2006 17.2758 45.8192 17.3621C45.4379 17.4483 45.0565 17.4915 44.6822 17.4915C44.2232 17.4915 43.7995 17.4411 43.411 17.3333C43.0226 17.2255 42.6836 17.0673 42.4011 16.8588C42.1187 16.6431 41.8927 16.3771 41.7302 16.0608C41.5678 15.7445 41.4831 15.3635 41.4689 14.925H43.0791V14.9106ZM48.3475 9.89979H49.5551V7.68556H51.1511V9.89979H52.5918V11.1147H51.1511V15.0544C51.1511 15.2269 51.1582 15.3707 51.1723 15.5001C51.1865 15.6223 51.2218 15.7301 51.2712 15.8164C51.3206 15.9027 51.3983 15.9674 51.5043 16.0105C51.6102 16.0536 51.7444 16.0752 51.928 16.0752C52.041 16.0752 52.154 16.0752 52.267 16.068C52.38 16.0608 52.493 16.0465 52.606 16.0177V17.2758C52.4294 17.2974 52.2528 17.3117 52.0904 17.3333C51.9209 17.3549 51.7514 17.3621 51.5749 17.3621C51.1511 17.3621 50.8122 17.3189 50.5579 17.2398C50.3037 17.1608 50.0989 17.0385 49.9576 16.8804C49.8093 16.7222 49.7175 16.5281 49.661 16.2909C49.6116 16.0536 49.5763 15.7805 49.5692 15.4785V11.1291H48.3616V9.89979H48.3475ZM53.7218 9.89979H55.2331V10.8991H55.2613C55.4873 10.4677 55.798 10.1658 56.2006 9.97887C56.6031 9.79196 57.0339 9.6985 57.5071 9.6985C58.0791 9.6985 58.5735 9.79915 58.9972 10.0076C59.4209 10.2089 59.774 10.4893 60.0565 10.8488C60.339 11.2082 60.5438 11.6252 60.685 12.0997C60.8263 12.5741 60.8969 13.0846 60.8969 13.6237C60.8969 14.1198 60.8334 14.6014 60.7062 15.0615C60.5791 15.5288 60.3884 15.9386 60.1342 16.2981C59.88 16.6575 59.5551 16.9379 59.1596 17.1536C58.7641 17.3692 58.3051 17.4771 57.7684 17.4771C57.5353 17.4771 57.3023 17.4555 57.0692 17.4124C56.8362 17.3692 56.6102 17.2974 56.3983 17.2039C56.1865 17.1104 55.9817 16.9882 55.8051 16.8372C55.6215 16.6863 55.4732 16.5137 55.3461 16.3196H55.3178V20.0004H53.7218V9.89979ZM59.3009 13.595C59.3009 13.2643 59.2585 12.9408 59.1738 12.6245C59.089 12.3081 58.9619 12.0349 58.7924 11.7905C58.6229 11.5461 58.411 11.352 58.1639 11.2082C57.9096 11.0644 57.6201 10.9853 57.2952 10.9853C56.6243 10.9853 56.1158 11.2226 55.7769 11.6971C55.4379 12.1715 55.2684 12.8042 55.2684 13.595C55.2684 13.9688 55.3108 14.3139 55.4026 14.6302C55.4944 14.9465 55.6215 15.2197 55.8051 15.4498C55.9817 15.6798 56.1935 15.8595 56.4407 15.9889C56.6879 16.1255 56.9774 16.1902 57.3023 16.1902C57.6695 16.1902 57.9732 16.1112 58.2274 15.9602C58.4817 15.8092 58.6865 15.6079 58.8489 15.3707C59.0113 15.1263 59.1314 14.8531 59.202 14.5439C59.2656 14.2348 59.3009 13.9185 59.3009 13.595ZM62.1187 7.08887H63.7147V8.62733H62.1187V7.08887ZM62.1187 9.89979H63.7147V17.2758H62.1187V9.89979ZM65.1413 7.08887H66.7373V17.2758H65.1413V7.08887ZM71.6314 17.4771C71.0523 17.4771 70.5367 17.3764 70.0848 17.1823C69.6328 16.9882 69.2514 16.715 68.9336 16.3771C68.6229 16.0321 68.3828 15.6223 68.2204 15.1478C68.0579 14.6733 67.9732 14.1485 67.9732 13.5806C67.9732 13.0199 68.0579 12.5022 68.2204 12.0278C68.3828 11.5533 68.6229 11.1435 68.9336 10.7984C69.2444 10.4534 69.6328 10.1874 70.0848 9.99325C70.5367 9.79915 71.0523 9.6985 71.6314 9.6985C72.2105 9.6985 72.726 9.79915 73.178 9.99325C73.63 10.1874 74.0113 10.4605 74.3291 10.7984C74.6399 11.1435 74.88 11.5533 75.0424 12.0278C75.2048 12.5022 75.2896 13.0199 75.2896 13.5806C75.2896 14.1485 75.2048 14.6733 75.0424 15.1478C74.88 15.6223 74.6399 16.0321 74.3291 16.3771C74.0184 16.7222 73.63 16.9882 73.178 17.1823C72.726 17.3764 72.2105 17.4771 71.6314 17.4771ZM71.6314 16.1902C71.9845 16.1902 72.2952 16.1112 72.5565 15.9602C72.8178 15.8092 73.0297 15.6079 73.1992 15.3635C73.3687 15.1191 73.4887 14.8387 73.5735 14.5296C73.6512 14.2204 73.6935 13.9041 73.6935 13.5806C73.6935 13.2643 73.6512 12.9552 73.5735 12.6388C73.4958 12.3225 73.3687 12.0493 73.1992 11.8049C73.0297 11.5605 72.8178 11.3664 72.5565 11.2154C72.2952 11.0644 71.9845 10.9853 71.6314 10.9853C71.2783 10.9853 70.9675 11.0644 70.7062 11.2154C70.4449 11.3664 70.2331 11.5677 70.0636 11.8049C69.8941 12.0493 69.774 12.3225 69.6893 12.6388C69.6116 12.9552 69.5692 13.2643 69.5692 13.5806C69.5692 13.9041 69.6116 14.2204 69.6893 14.5296C69.767 14.8387 69.8941 15.1191 70.0636 15.3635C70.2331 15.6079 70.4449 15.8092 70.7062 15.9602C70.9675 16.1183 71.2783 16.1902 71.6314 16.1902ZM75.7557 9.89979H76.9633V7.68556H78.5593V9.89979H80V11.1147H78.5593V15.0544C78.5593 15.2269 78.5664 15.3707 78.5805 15.5001C78.5947 15.6223 78.63 15.7301 78.6794 15.8164C78.7288 15.9027 78.8065 15.9674 78.9125 16.0105C79.0184 16.0536 79.1526 16.0752 79.3362 16.0752C79.4492 16.0752 79.5622 16.0752 79.6752 16.068C79.7882 16.0608 79.9011 16.0465 80.0141 16.0177V17.2758C79.8376 17.2974 79.661 17.3117 79.4986 17.3333C79.3291 17.3549 79.1596 17.3621 78.9831 17.3621C78.5593 17.3621 78.2204 17.3189 77.9661 17.2398C77.7119 17.1608 77.5071 17.0385 77.3658 16.8804C77.2175 16.7222 77.1257 16.5281 77.0692 16.2909C77.0198 16.0536 76.9845 15.7805 76.9774 15.4785V11.1291H75.7698V9.89979H75.7557Z" fill="#191919"/>
<path d="M19.1596 7.08842H11.8432L9.58333 0L7.31638 7.08842L0 7.08124L5.92514 11.4666L3.65819 18.5478L9.58333 14.1697L15.5014 18.5478L13.2415 11.4666L19.1596 7.08842Z" fill="#00B67A"/>
<path d="M13.75 13.07L13.2415 11.4668L9.58331 14.1699L13.75 13.07Z" fill="#005128"/>
</g>
<defs>
<clipPath id="clip0_1_333">
<rect width="80" height="20" fill="white"/>
</clipPath>
</defs>
</svg>
