<svg width="56" height="56" viewBox="0 0 56 56" fill="none" xmlns="http://www.w3.org/2000/svg">
<g clip-path="url(#clip0_1_294)">
<path fill-rule="evenodd" clip-rule="evenodd" d="M55.6421 27.9075C55.6421 43.193 43.2509 55.5842 27.9654 55.5842C12.6803 55.5842 0.28907 43.193 0.28907 27.9075C0.28907 12.622 12.6803 0.230469 27.9654 0.230469C43.2509 0.230469 55.6421 12.622 55.6421 27.9075Z" fill="#FFFFFE"/>
<path fill-rule="evenodd" clip-rule="evenodd" d="M5.00342 25.2286C5.08409 25.1805 5.14862 25.1094 5.19669 25.0156C5.24508 24.9214 5.27504 24.8302 5.2869 24.742C5.29381 24.6903 5.29447 24.6363 5.29019 24.5797C5.28533 24.5241 5.27315 24.4694 5.25397 24.417C5.23572 24.3668 5.20595 24.3216 5.16705 24.285C5.12578 24.2474 5.07346 24.2242 5.01791 24.2188C4.92078 24.2057 4.84144 24.232 4.77987 24.2985C4.71094 24.3755 4.6539 24.4624 4.61064 24.5563C4.55928 24.6623 4.50693 24.7769 4.45327 24.8997C4.4009 25.0206 4.33258 25.134 4.25013 25.2368C4.16848 25.3389 4.06641 25.4189 3.94427 25.4768C3.82179 25.5345 3.66672 25.5509 3.4784 25.5256C3.29896 25.5019 3.14685 25.4472 3.02207 25.3623C2.90048 25.2809 2.79912 25.1728 2.72576 25.0462C2.65118 24.9158 2.60244 24.7723 2.58221 24.6235C2.55998 24.4625 2.55998 24.2992 2.58221 24.1382C2.60728 23.9395 2.66607 23.7465 2.75605 23.5676C2.84952 23.3903 2.97799 23.2338 3.13368 23.1076L3.62194 23.6884C3.51582 23.7475 3.42574 23.8316 3.35954 23.9334C3.29293 24.0339 3.24983 24.1481 3.23344 24.2675C3.22585 24.3267 3.22485 24.3866 3.23048 24.446C3.23641 24.5072 3.24958 24.5629 3.27065 24.6139C3.29205 24.6643 3.32168 24.7071 3.3602 24.7416C3.40096 24.777 3.45145 24.7993 3.50506 24.8055C3.54945 24.8129 3.59496 24.8094 3.63769 24.7953C3.68041 24.7812 3.71907 24.7569 3.75035 24.7245C3.81652 24.6574 3.8771 24.5704 3.93143 24.4631C3.98608 24.3561 4.04172 24.2392 4.09934 24.1141C4.15443 23.9915 4.22431 23.8761 4.30742 23.7704C4.38882 23.6675 4.49191 23.5839 4.60933 23.5254C4.72884 23.4659 4.87831 23.4481 5.05742 23.4718C5.23093 23.4948 5.37842 23.5498 5.49991 23.6357C5.62173 23.7213 5.71853 23.8274 5.79162 23.9531C5.86438 24.0789 5.91278 24.2195 5.93714 24.3739C5.96118 24.5293 5.96282 24.6857 5.94175 24.8437C5.91818 25.0228 5.86825 25.1974 5.79359 25.3619C5.71869 25.5257 5.60877 25.671 5.4716 25.7876L5.00342 25.2286ZM3.76253 30.1257C3.58135 30.1359 3.39978 30.1146 3.22587 30.0628C3.06558 30.0143 2.91744 29.9322 2.79128 29.8221C2.66229 29.7065 2.56005 29.5641 2.49167 29.405C2.41628 29.2361 2.37347 29.0402 2.36327 28.8166C2.35339 28.5894 2.37808 28.3893 2.43768 28.2141C2.49727 28.0396 2.58452 27.8921 2.69876 27.7723C2.81428 27.6508 2.95466 27.5557 3.11031 27.4934C3.27879 27.426 3.4577 27.3883 3.63906 27.3821L5.63852 27.2923L5.67079 28.009L3.69898 28.0979C3.60331 28.1011 3.50902 28.1217 3.42078 28.1588C3.33649 28.195 3.26406 28.2431 3.20414 28.3047C3.14333 28.3658 3.09629 28.4392 3.06619 28.52C3.03432 28.6051 3.02042 28.6959 3.02536 28.7867C3.02784 28.8745 3.0488 28.9608 3.08686 29.04C3.12493 29.1192 3.17925 29.1895 3.24628 29.2463C3.31213 29.3016 3.38818 29.3437 3.47543 29.3724C3.56268 29.4004 3.65684 29.4119 3.75792 29.4076L5.73005 29.3187L5.76199 30.0364L3.76253 30.126V30.1257ZM5.59144 33.3561C5.65038 33.2827 5.68593 33.1938 5.69811 33.0888C5.71041 32.9929 5.70663 32.8957 5.68692 32.8011C5.67428 32.7484 5.65619 32.6972 5.63293 32.6483C5.60912 32.5977 5.57855 32.5507 5.54206 32.5084C5.50755 32.4676 5.46389 32.4355 5.41464 32.4149C5.36273 32.3944 5.30567 32.3909 5.25167 32.405C5.15619 32.427 5.091 32.4791 5.05643 32.563C5.01911 32.6593 4.99615 32.7606 4.98828 32.8636C4.97741 32.9808 4.96819 33.1063 4.96095 33.2403C4.95414 33.3718 4.92989 33.5019 4.88885 33.6271C4.84769 33.7512 4.7802 33.8619 4.68604 33.959C4.59188 34.0558 4.45195 34.1259 4.26626 34.1677C4.08979 34.2079 3.92846 34.2105 3.78195 34.1746C3.63949 34.141 3.5066 34.0752 3.39345 33.9824C3.27802 33.8862 3.18232 33.7686 3.11163 33.636C3.03449 33.4931 2.97744 33.3402 2.94207 33.1817C2.8955 32.9867 2.88314 32.7852 2.90552 32.5861C2.93046 32.3872 2.9959 32.1956 3.0978 32.0231L3.75858 32.3958C3.67966 32.4886 3.62472 32.5994 3.59857 32.7184C3.55721 32.8946 3.57767 33.0797 3.65651 33.2426C3.68351 33.2979 3.71545 33.3456 3.75331 33.3858C3.79051 33.4263 3.83331 33.4556 3.88204 33.4747C3.9323 33.494 3.98736 33.4969 4.03942 33.4832C4.08365 33.4748 4.12515 33.4557 4.16033 33.4276C4.1955 33.3995 4.22327 33.3632 4.24124 33.3219C4.27976 33.2363 4.30577 33.1333 4.31927 33.0137C4.3331 32.8942 4.34495 32.7658 4.35417 32.6285C4.36371 32.4909 4.38874 32.3592 4.42923 32.2334C4.46967 32.1087 4.53712 31.9943 4.62678 31.8986C4.71765 31.8005 4.85099 31.7314 5.02779 31.6912C5.19833 31.6523 5.35538 31.652 5.49925 31.6899C5.64007 31.7263 5.77127 31.793 5.8838 31.8851C5.99607 31.9776 6.09057 32.0925 6.16728 32.2292C6.24399 32.3655 6.30029 32.5123 6.33552 32.6674C6.37667 32.8465 6.3905 33.0263 6.37799 33.205C6.36512 33.3845 6.31321 33.559 6.22588 33.7163L5.59144 33.3561ZM6.5831 35.8969L6.23313 35.0359L6.82114 34.7966L7.79239 37.1832L7.20372 37.4226L6.85374 36.5619L4.42462 37.55L4.15399 36.8849L6.5831 35.8969ZM8.07718 39.6334L7.0065 39.8187L7.41838 40.4999L8.07718 39.6334ZM8.74554 38.9064L9.05271 39.4144L6.99926 42.3134L6.58014 41.6203L7.02527 41.0231L6.37009 39.9409L5.63918 40.0657L5.22928 39.3888L8.74554 38.9064ZM10.6133 41.6131L11.0732 42.1649L8.57005 44.25L8.1111 43.6982L10.6133 41.6131ZM12.1291 43.3798L12.8643 44.0205L12.4211 46.6373L12.4277 46.6432L13.9159 44.9367L14.4565 45.4085L12.3158 47.8637L11.6083 47.247L12.0603 44.565L12.0537 44.5588L10.5297 46.3067L9.98874 45.8352L12.1291 43.3798ZM16.453 47.787L15.6101 48.4731L16.3032 48.8649L16.453 47.787ZM16.6792 46.8259L17.1961 47.1179L16.8263 50.651L16.1211 50.2526L16.2166 49.5141L15.1153 48.8912L14.5391 49.3581L13.8504 48.9686L16.6792 46.8259ZM19.851 49.7476L20.3429 49.9165C20.3953 49.9339 20.4483 49.9461 20.5033 49.9514C20.5579 49.9579 20.6103 49.9547 20.66 49.9421C20.7129 49.9291 20.7614 49.9024 20.8007 49.8646C20.84 49.8269 20.8687 49.7795 20.8839 49.7271C20.9051 49.672 20.9097 49.6117 20.897 49.554C20.8845 49.5037 20.8595 49.4574 20.8243 49.4193C20.786 49.3794 20.742 49.3456 20.6936 49.3189C20.6439 49.2906 20.5916 49.267 20.5375 49.2484L20.0762 49.0904L19.851 49.7476ZM19.4141 51.023L20.0232 51.2314C20.0756 51.2495 20.1306 51.2621 20.1879 51.2686C20.2458 51.2759 20.3014 51.2719 20.3551 51.2574C20.4124 51.2432 20.465 51.2143 20.5079 51.1737C20.5508 51.1331 20.5824 51.0821 20.5997 51.0257C20.6248 50.9532 20.6267 50.8884 20.606 50.8311C20.5849 50.7733 20.5497 50.7217 20.5036 50.681C20.4546 50.6377 20.4002 50.6012 20.3416 50.5723C20.2854 50.5436 20.2274 50.5189 20.1678 50.4982L19.6542 50.3221L19.4141 51.023ZM19.5939 48.2831L20.7429 48.6769C20.8766 48.723 21.0077 48.778 21.1361 48.8432C21.2645 48.908 21.3728 48.9874 21.4607 49.0812C21.5486 49.174 21.6085 49.2833 21.6405 49.4071C21.6724 49.5322 21.6599 49.6788 21.6019 49.8473C21.5423 50.0212 21.4439 50.1486 21.3079 50.2299C21.1713 50.3109 21.0149 50.3494 20.8384 50.3438L20.8351 50.3524C20.9319 50.4018 21.0146 50.4617 21.0827 50.5318C21.1509 50.6023 21.2036 50.6806 21.2408 50.7662C21.2776 50.8518 21.2974 50.944 21.2997 51.0418C21.3013 51.1421 21.2851 51.2418 21.252 51.3365C21.196 51.4991 21.115 51.6229 21.008 51.7075C20.9029 51.7918 20.7795 51.8504 20.6478 51.8787C20.5093 51.9079 20.3667 51.9133 20.2264 51.8945C20.0814 51.877 19.9386 51.8443 19.8003 51.7971L18.538 51.3645L19.5939 48.2831ZM23.3792 49.4147L24.087 49.5332L23.6577 52.0924L24.969 52.312L24.8594 52.9655L22.8405 52.6271L23.3792 49.4147ZM26.766 49.8625L28.9792 49.8687L28.9772 50.5308L27.4818 50.5272L27.4801 51.134L28.8926 51.1379L28.8909 51.8007L27.4785 51.7964L27.4765 52.4595L29.0545 52.4634L29.0526 53.1262L26.7568 53.1196L26.766 49.8625ZM33.9753 50.4538L34.4353 50.3224C34.4972 50.3046 34.5555 50.2819 34.6094 50.2533C34.661 50.2267 34.7077 50.1916 34.7474 50.1492C34.7846 50.1081 34.8106 50.0597 34.8248 50.0027C34.8389 49.9458 34.8356 49.8809 34.8146 49.8072C34.7915 49.7271 34.755 49.6689 34.7039 49.6304C34.653 49.5923 34.5933 49.5674 34.5304 49.5579C34.4615 49.548 34.3914 49.5495 34.323 49.5622C34.2534 49.5744 34.1845 49.5901 34.1166 49.6093L33.7626 49.7104L33.9753 50.4538ZM32.9053 49.3238L34.0692 48.9916C34.2311 48.9449 34.3885 48.9159 34.5416 48.9041C34.6947 48.8922 34.8353 48.9073 34.9637 48.9485C35.0921 48.9903 35.2054 49.0627 35.3038 49.1671C35.4022 49.2712 35.478 49.4167 35.531 49.602C35.5833 49.7851 35.5975 49.9468 35.5738 50.0877C35.5536 50.2212 35.499 50.3471 35.4154 50.4531C35.3331 50.5565 35.2261 50.6441 35.0934 50.7155C34.9514 50.7908 34.8016 50.8504 34.6466 50.8933L34.1423 51.0382L34.4912 52.2587L33.8012 52.4562L32.9053 49.3238ZM37.8732 48.5505L37.9542 49.6336L38.6719 49.2896L37.8732 48.5505ZM37.2144 47.8153L37.7494 47.5585L40.436 49.8826L39.706 50.2329L39.1542 49.7318L38.0138 50.2793L38.0674 51.0187L37.354 51.3608L37.2144 47.8153ZM42.2879 45.6933C42.1809 45.666 42.0689 45.664 41.961 45.6874C41.851 45.7111 41.7417 45.7631 41.6327 45.8431C41.5241 45.9231 41.4391 46.018 41.3769 46.1276C41.3154 46.2364 41.2773 46.3568 41.265 46.4812C41.2528 46.6066 41.265 46.7354 41.3035 46.8671C41.3414 46.9994 41.4046 47.1258 41.4935 47.2467C41.5847 47.3708 41.6867 47.4699 41.8003 47.5436C41.9139 47.6184 42.0318 47.6691 42.1539 47.6951C42.2757 47.7214 42.3976 47.7228 42.5187 47.6984C42.641 47.6738 42.7563 47.6223 42.8562 47.5476C42.9747 47.4607 43.0616 47.3589 43.1169 47.2421C43.1722 47.1255 43.1966 47.0011 43.1907 46.868L43.9367 46.874C43.9421 47.1039 43.8835 47.3309 43.7675 47.5295C43.6553 47.7245 43.5037 47.894 43.3224 48.0273C43.1306 48.1714 42.9145 48.2798 42.6843 48.3473C42.473 48.4098 42.2511 48.4281 42.0324 48.401C41.8143 48.3721 41.6048 48.2972 41.4177 48.1814C41.2222 48.0629 41.047 47.8982 40.8926 47.6879C40.7385 47.4778 40.6338 47.2618 40.5792 47.0393C40.5247 46.8262 40.5161 46.604 40.5538 46.3874C40.5938 46.1708 40.6775 45.9647 40.7998 45.7816C40.9259 45.5906 41.0911 45.4194 41.2966 45.2686C41.457 45.1512 41.6371 45.0632 41.8283 45.0089C41.9277 44.9815 42.0318 44.966 42.1394 44.9628C42.2478 44.9595 42.3564 44.973 42.466 45.0029L42.2879 45.6933ZM43.2868 43.7275L43.7754 43.202L44.7664 44.1225L44.6367 42.2752L45.2761 41.5877L45.3979 43.6797L47.7463 43.7146L47.0635 44.4491L45.0291 44.3668L46.1617 45.4201L45.6725 45.9452L43.2868 43.7275ZM47.5518 39.9083L48.203 40.7785L48.6228 40.1026L47.5518 39.9083ZM46.6009 39.6429L46.9137 39.1385L50.429 39.6531L50.0016 40.3409L49.2674 40.2155L48.6001 41.2904L49.0432 41.885L48.6251 42.5567L46.6009 39.6429ZM52.0538 35.1153C52.083 35.3494 52.0802 35.5864 52.0455 35.8198C52.0103 36.0537 51.9506 36.2832 51.8674 36.5046C51.7855 36.7301 51.6639 36.9391 51.5082 37.1216C51.3656 37.2893 51.19 37.4258 50.9923 37.5226C50.794 37.6181 50.5776 37.6703 50.3575 37.6757C50.1287 37.6833 49.8923 37.6415 49.648 37.55C49.4041 37.4584 49.198 37.3347 49.0304 37.1786C48.8683 37.0299 48.7395 36.8486 48.6524 36.6465C48.5674 36.4434 48.5247 36.2251 48.527 36.0049C48.5296 35.7649 48.5753 35.5274 48.662 35.3036C48.7449 35.075 48.8596 34.8592 49.0027 34.6626C49.1352 34.4821 49.3088 34.3357 49.5091 34.2355L49.8482 34.9032C49.7191 34.9592 49.6085 35.0362 49.5167 35.1324C49.4251 35.2295 49.3468 35.3635 49.2822 35.536C49.2303 35.6692 49.2056 35.8113 49.2095 35.9542C49.2147 36.0878 49.2454 36.2136 49.3017 36.3295C49.3583 36.4457 49.4386 36.5488 49.5427 36.6383C49.6464 36.7279 49.7689 36.7996 49.9094 36.8517C50.0533 36.9057 50.1926 36.933 50.3289 36.933C50.4645 36.933 50.5919 36.908 50.7108 36.8573C50.8309 36.8061 50.9389 36.7302 51.0275 36.6344C51.1241 36.5295 51.1988 36.4064 51.2471 36.2722C51.3018 36.1257 51.3327 35.993 51.3393 35.8745C51.3464 35.7771 51.3445 35.6792 51.3334 35.5821L50.8379 35.3964L50.6331 35.944L50.0125 35.7115L50.4596 34.5184L52.0538 35.1153ZM49.5766 32.5044L49.7224 31.8015L52.9118 32.4642L52.7656 33.1668L49.5766 32.5044ZM50.0178 30.2179L50.0639 29.2433L52.3906 27.9675L52.3909 27.9583L50.13 27.8513L50.1636 27.1342L53.4178 27.2886L53.373 28.2256L50.9893 29.5363V29.5452L53.3055 29.6555L53.2713 30.3723L50.0178 30.2179ZM52.5911 22.1815C52.7323 22.3704 52.8471 22.5778 52.9322 22.7978C53.0171 23.0174 53.0783 23.2449 53.1162 23.4813C53.1568 23.7178 53.1546 23.9597 53.1096 24.1954C53.0684 24.4118 52.9831 24.6173 52.8591 24.7993C52.7369 24.9771 52.5782 25.1259 52.383 25.2457C52.1881 25.3659 51.9616 25.4462 51.7044 25.4874C51.447 25.5285 51.2066 25.5226 50.9841 25.4699C50.7695 25.421 50.5678 25.327 50.3924 25.194C50.2178 25.0599 50.0725 24.8914 49.9657 24.6988C49.8496 24.489 49.7719 24.2601 49.7363 24.0229C49.6956 23.7831 49.6886 23.5387 49.7155 23.297C49.7413 23.0746 49.8199 22.8616 49.9447 22.6757L50.5699 23.0879C50.4853 23.2008 50.427 23.3216 50.3951 23.4514C50.3628 23.5808 50.3615 23.7365 50.3905 23.9179C50.4148 24.0693 50.4622 24.202 50.5337 24.3169C50.6048 24.4312 50.6934 24.525 50.8 24.5981C50.9064 24.6709 51.0272 24.7209 51.1619 24.7476C51.2965 24.7739 51.4381 24.7752 51.5862 24.7515C51.7377 24.7272 51.8727 24.6817 51.9909 24.6146C52.1091 24.5477 52.2072 24.4625 52.2855 24.3597C52.3639 24.2573 52.4189 24.1408 52.4508 24.0098C52.4829 23.8707 52.4868 23.7266 52.462 23.586C52.4373 23.4316 52.3988 23.3012 52.3458 23.1949C52.304 23.1066 52.2539 23.0225 52.1963 22.9437L51.6735 23.0273L51.7657 23.6041L51.1118 23.7095L50.9103 22.4505L52.5911 22.1815ZM15.732 5.91519L16.4434 5.59056L17.7834 7.27527L17.7923 7.27132L17.5444 5.08815L18.1519 4.81093L19.6571 6.48082L19.6654 6.4772L19.2736 4.29962L19.9347 3.99738L20.4203 7.35659L19.8389 7.62196L18.25 5.86877L18.2417 5.87272L18.5242 8.22183L17.9632 8.47732L15.732 5.91519ZM21.8851 3.47291L24.0439 2.98531L24.1897 3.6316L22.7312 3.96084L22.8649 4.55314L24.2427 4.24267L24.3886 4.88863L23.0111 5.19943L23.1566 5.84605L24.6961 5.49805L24.842 6.14467L22.6025 6.65005L21.8851 3.47291ZM31.6694 4.73652C31.6591 4.91788 31.6176 5.09611 31.5465 5.2633C31.4774 5.42199 31.3816 5.55632 31.2588 5.66826C31.1295 5.7836 30.9767 5.86953 30.811 5.92013C30.6352 5.97577 30.4354 5.99585 30.2118 5.98104C29.9856 5.96589 29.7891 5.91947 29.6218 5.84045C29.4643 5.76869 29.3243 5.66341 29.2116 5.53196C29.104 5.40357 29.0251 5.25357 28.9805 5.0921C28.9323 4.91699 28.9147 4.73489 28.9285 4.5538L29.0618 2.55664L29.7779 2.60438L29.6462 4.57421C29.6396 4.67495 29.6495 4.76945 29.6758 4.85735C29.7022 4.94526 29.7427 5.02197 29.7967 5.08914C29.8527 5.15766 29.9226 5.21362 30.0017 5.25338C30.0809 5.29314 30.1675 5.31581 30.2559 5.31993C30.3435 5.32732 30.4316 5.31619 30.5145 5.28726C30.5974 5.25833 30.6733 5.21225 30.7373 5.15202C30.7998 5.09276 30.8502 5.02164 30.8881 4.93802C30.9259 4.85472 30.9483 4.7622 30.9552 4.66113L31.0863 2.69196L31.8027 2.7397L31.6694 4.73652ZM35.3937 4.28382C35.352 4.19542 35.286 4.12073 35.2034 4.0685C35.1235 4.01408 35.035 3.97356 34.9416 3.94866C34.889 3.93579 34.8351 3.92872 34.781 3.92759C34.7251 3.92613 34.6693 3.93222 34.615 3.94569C34.5631 3.95802 34.5149 3.98238 34.4741 4.01681C34.4325 4.0539 34.4037 4.10323 34.3918 4.15772C34.3678 4.2532 34.3852 4.33452 34.4445 4.40333C34.5031 4.47149 34.5821 4.537 34.6819 4.59989C34.7816 4.66244 34.8896 4.72796 35.0058 4.7948C35.1217 4.86163 35.2258 4.94098 35.3186 5.03382C35.4108 5.12667 35.4786 5.23663 35.5227 5.36438C35.5665 5.49245 35.5655 5.64851 35.5198 5.83288C35.4757 6.0087 35.4046 6.15422 35.3068 6.26846C35.2083 6.38304 35.0928 6.4693 34.9594 6.52823C34.8216 6.58759 34.6736 6.61978 34.5235 6.62305C34.361 6.62742 34.1987 6.60925 34.0412 6.56906C33.8464 6.52261 33.661 6.44286 33.4933 6.33332C33.3276 6.22074 33.1862 6.07583 33.0778 5.90729L33.7093 5.48587C33.757 5.59912 33.8288 5.69526 33.9243 5.77395C34.0201 5.85362 34.1258 5.90762 34.2417 5.93692C34.2983 5.95075 34.3572 5.95832 34.4188 5.95931C34.4801 5.96063 34.5373 5.95273 34.59 5.93791C34.6427 5.92276 34.6888 5.89741 34.7273 5.86317C34.7671 5.82683 34.7947 5.77912 34.8063 5.72654C34.8188 5.68325 34.8205 5.63755 34.8112 5.59345C34.8019 5.54936 34.7819 5.50823 34.753 5.47368C34.6844 5.39221 34.6038 5.32171 34.514 5.26462C34.4135 5.19811 34.3039 5.12963 34.1857 5.05917C34.07 4.99102 33.9631 4.90874 33.8677 4.81422C33.7744 4.72191 33.7025 4.61018 33.6573 4.48696C33.6112 4.36152 33.6102 4.21106 33.654 4.03525C33.6961 3.86569 33.7669 3.72543 33.8657 3.61448C33.9645 3.50254 34.0807 3.41793 34.2137 3.35932C34.3512 3.30002 34.4986 3.26686 34.6483 3.26154C34.8056 3.25478 34.9631 3.27086 35.1158 3.30928C35.2912 3.35266 35.4592 3.42178 35.6143 3.51439C35.768 3.60658 35.8974 3.7284 36.0018 3.88116L35.3937 4.28415V4.28382ZM38.0753 4.31641L40.1051 5.19778L39.841 5.80556L38.4698 5.20997L38.2278 5.76671L39.5233 6.3297L39.2593 6.93747L37.9637 6.37448L37.6997 6.98225L39.1473 7.61109L38.8833 8.21887L36.7775 7.30392L38.0753 4.31641ZM28 8.17113C17.2474 8.17113 8.4996 16.919 8.4996 27.6719C8.4996 38.4248 17.2474 47.1726 28.0003 47.1726C38.7526 47.1726 47.5004 38.4248 47.5004 27.6719C47.5004 16.919 38.7526 8.17113 28 8.17113ZM28 47.7316C16.9389 47.7316 7.93989 38.7329 7.93989 27.6715C7.93989 16.6105 16.9389 7.61175 28.0003 7.61175C39.0611 7.61175 48.0601 16.6105 48.0601 27.6715C48.0601 38.7329 39.0611 47.732 28 47.732" fill="#265344"/>
<path fill-rule="evenodd" clip-rule="evenodd" d="M28 0.560351C12.8692 0.560351 0.559704 12.8702 0.559704 28.001C0.559704 43.1314 12.8692 55.4409 28 55.4409C43.1308 55.4409 55.4403 43.1314 55.4403 28.001C55.4403 12.8702 43.1308 0.560351 28 0.560351ZM28 56.0006C12.5607 56.0006 0 43.4399 0 28.001C0 12.5614 12.5607 0.000976562 28 0.000976562C43.4393 0.000976562 56 12.5614 56 28.001C56 43.4399 43.4396 56.0006 28 56.0006Z" fill="#265344"/>
<path fill-rule="evenodd" clip-rule="evenodd" d="M23.9583 39.1772C23.9583 39.4041 23.8921 39.6368 23.4009 39.6368H22.9179V38.7097H23.3887C23.8934 38.7097 23.9583 38.9596 23.9583 39.1772ZM23.3735 38.3199H22.4494V40.8655H22.9179V40.0191H23.4048C24.4386 40.0191 24.4386 39.4505 24.4386 39.1772C24.4386 38.9425 24.4386 38.3199 23.3735 38.3199ZM26.0749 39.943V39.9845C26.0749 40.3236 25.8636 40.5261 25.5096 40.5261C25.2311 40.5261 25.0777 40.4296 25.0777 40.2548C25.0777 40.1277 25.1511 40.0454 25.5274 40.0033L26.0749 39.943ZM25.5686 38.794C24.9562 38.794 24.6717 39.0337 24.6717 39.5496V39.5684L25.1169 39.5641V39.5456C25.1169 39.2296 25.2989 39.1647 25.5725 39.1647C25.9673 39.1647 26.0598 39.326 26.0743 39.5875L25.4609 39.6484C24.8637 39.7056 24.6088 39.8887 24.6088 40.2588C24.6088 40.6558 24.9061 40.8932 25.404 40.8932C25.7908 40.8932 26.067 40.7454 26.1842 40.589L26.2639 40.8655H26.524V39.7066C26.524 39.2253 26.4509 38.794 25.5686 38.794ZM27.7751 38.794C26.9402 38.794 26.7644 39.3646 26.7644 39.8436C26.7644 40.5399 27.1074 40.8932 27.783 40.8932C28.3714 40.8932 28.695 40.5969 28.695 40.0592V40.0402H28.2324L28.2308 40.0573C28.2012 40.3681 28.0681 40.4948 27.7712 40.4948C27.4018 40.4948 27.2296 40.2867 27.2296 39.8396C27.2296 39.3843 27.3991 39.1723 27.7629 39.1723C28.0619 39.1723 28.2015 39.3125 28.2305 39.6411L28.2321 39.6586H28.6953V39.6395C28.6953 39.0943 28.3687 38.794 27.7751 38.794ZM30.8133 38.8213H30.1736L29.4437 39.5815V38.0572H28.9867V40.8655H29.4437V39.9927L30.2635 40.8655H30.8904L29.7696 39.7886L30.8133 38.8213ZM32.0983 38.794C31.8007 38.794 31.5923 38.872 31.4781 39.0264V38.0572H31.029V40.8655H31.4781L31.486 39.7218C31.486 39.3576 31.56 39.1841 31.9808 39.1841C32.3864 39.1841 32.4519 39.3428 32.4519 39.7218V40.8655H32.905V39.7613C32.905 39.1805 32.7677 38.794 32.0983 38.794ZM33.6514 39.6566C33.6793 39.3155 33.8403 39.1565 34.1561 39.1565C34.3102 39.1565 34.4307 39.1993 34.5136 39.2836C34.62 39.3916 34.643 39.5437 34.643 39.6563H33.651L33.6514 39.6566ZM34.6433 40.2268C34.6114 40.3589 34.5288 40.534 34.1834 40.534C33.8568 40.534 33.6764 40.3635 33.6471 40.027H35.1102L35.1115 40.0095C35.1454 39.5898 35.0621 39.2579 34.8702 39.0501C34.7135 38.8802 34.4863 38.794 34.1953 38.794C33.517 38.794 33.173 39.1456 33.173 39.8396C33.173 40.5386 33.5187 40.8932 34.1992 40.8932C34.9403 40.8932 35.0937 40.4797 35.1194 40.2334L35.1214 40.2127H34.6473L34.6433 40.2268ZM35.4194 40.8655H35.876V38.0572H35.419L35.4194 40.8655ZM37.7668 39.8475C37.7668 40.243 37.6746 40.5067 37.2249 40.5067C36.7804 40.5067 36.6912 40.2542 36.6912 39.8472C36.6912 39.4442 36.784 39.1762 37.2367 39.1762C37.6766 39.1762 37.7668 39.4446 37.7668 39.8475ZM37.3503 38.794C36.8634 38.794 36.6616 38.9744 36.5845 39.0821L36.5062 38.8213H36.2461V41.6495H36.6952V40.6565C36.7831 40.7605 36.9714 40.8935 37.3582 40.8935C37.9324 40.8935 38.2238 40.5413 38.2238 39.8472C38.2238 39.1581 37.9219 38.794 37.3503 38.794ZM17.7798 40.0612C17.7799 40.1561 17.7988 40.25 17.8355 40.3375C17.8722 40.425 17.9259 40.5043 17.9935 40.5709C18.0593 40.6357 18.1374 40.6874 18.2266 40.7256C18.3155 40.7638 18.4123 40.7829 18.5163 40.7829C18.6236 40.7829 18.7201 40.7638 18.8067 40.7256C18.8933 40.6874 18.967 40.6357 19.0283 40.5709C19.0892 40.5064 19.1356 40.4293 19.1675 40.3421C19.1995 40.2542 19.2153 40.1607 19.2153 40.0612C19.2153 39.9621 19.1995 39.8686 19.1675 39.7807C19.1372 39.6956 19.0898 39.6177 19.0283 39.5516C18.9655 39.4857 18.8902 39.4331 18.8067 39.3968C18.7151 39.3577 18.6162 39.3383 18.5166 39.3399C18.417 39.3389 18.3183 39.3584 18.2266 39.3972C18.0514 39.4689 17.9115 39.6067 17.8371 39.7807C17.7988 39.8692 17.7793 39.9648 17.7798 40.0612ZM17.5737 38.0572H17.8028V39.4887H17.8104C17.846 39.4274 17.8904 39.3748 17.9441 39.3303C17.9974 39.2859 18.0554 39.2487 18.1176 39.2194C18.1802 39.1897 18.2457 39.1687 18.3142 39.1548C18.383 39.1407 18.4505 39.1338 18.5166 39.1338C18.6516 39.1338 18.7754 39.1565 18.8887 39.2026C18.9988 39.246 19.0989 39.3116 19.1827 39.3953C19.2664 39.479 19.3321 39.5791 19.3756 39.6892C19.4214 39.8024 19.4444 39.9262 19.4444 40.0612C19.4444 40.1962 19.4214 40.3203 19.3753 40.4333C19.3318 40.5434 19.2661 40.6434 19.1823 40.7271C19.0986 40.8108 18.9985 40.8764 18.8883 40.9199C18.7754 40.966 18.6513 40.989 18.5163 40.989C18.4505 40.989 18.383 40.9821 18.3142 40.9679C18.2463 40.9543 18.1803 40.9325 18.1176 40.9031C18.0552 40.8739 17.9969 40.8367 17.9441 40.7925C17.8905 40.748 17.8453 40.6944 17.8104 40.6341H17.8028V40.9432H17.5737V38.0572ZM20.4522 41.4891C20.4084 41.6037 20.3488 41.6939 20.2725 41.7601C20.1961 41.8259 20.0947 41.8595 19.9669 41.8595C19.9285 41.8593 19.8902 41.856 19.8524 41.8496C19.8151 41.8435 19.7781 41.8354 19.7417 41.8253L19.7648 41.6113C19.7977 41.6211 19.8316 41.631 19.8659 41.6399C19.9004 41.6488 19.9353 41.6531 19.9712 41.6531C20.0091 41.6539 20.0466 41.6448 20.0799 41.6267C20.1113 41.609 20.1393 41.5856 20.1622 41.5576C20.1846 41.53 20.2043 41.4983 20.2208 41.4644C20.2376 41.4299 20.252 41.395 20.2649 41.3591L20.4252 40.9508L19.7075 39.1795H19.9633L20.5474 40.6644L21.1163 39.1795H21.3606L20.4522 41.4891ZM31.1031 20.9039C31.1063 20.9121 31.1063 20.9154 31.1077 20.9161C31.1169 20.9207 31.1261 20.9259 31.1356 20.9286C31.5459 21.0603 31.9643 21.1139 32.3933 21.057C32.8574 20.9959 33.3022 20.8328 33.6958 20.5796C34.0886 20.3277 34.4168 20.0067 34.7164 19.6525C35.0812 19.2205 35.3499 18.7382 35.4977 18.191C35.5158 18.1241 35.53 18.0547 35.5352 17.9855C35.5425 17.891 35.4964 17.8212 35.4115 17.7791C35.379 17.7631 35.345 17.7503 35.3101 17.7409C35.2226 17.717 35.1345 17.6953 35.046 17.6757C34.785 17.6195 34.5186 17.592 34.2516 17.5937C33.9816 17.5947 33.7149 17.6309 33.4495 17.6843C33.0186 17.7709 32.6008 17.8976 32.2123 18.1083C31.6996 18.3859 31.2845 18.7668 30.9921 19.2748C30.8038 19.6017 30.6945 19.9573 30.6204 20.3251C30.6181 20.3353 30.6217 20.3475 30.623 20.3666L30.7034 20.3205L33.1002 18.8603C33.1397 18.8363 33.1796 18.8112 33.2224 18.7935C33.3583 18.7375 33.4874 18.748 33.5993 18.8494C33.7544 18.9904 33.7511 19.2156 33.5895 19.3637C33.5366 19.4094 33.4794 19.4498 33.4186 19.4842C32.6673 19.9442 31.915 20.4031 31.1633 20.8624C31.1419 20.8756 31.1222 20.8907 31.1031 20.9039ZM26.0335 20.3544C26.0354 20.3264 26.0381 20.3139 26.0371 20.301C26.0237 20.0782 25.9718 19.8593 25.8837 19.6541C25.7204 19.2672 25.4682 18.9446 25.163 18.6611C24.8422 18.3654 24.4763 18.1226 24.0791 17.9421C23.4644 17.6589 22.8237 17.5042 22.1419 17.5588C21.8367 17.5835 21.5433 17.6543 21.27 17.7952C21.1337 17.8653 21.1453 17.8324 21.1637 17.9951C21.2039 18.3493 21.3184 18.6812 21.487 18.9946C21.7876 19.5537 22.2104 20.0037 22.7259 20.3679C23.2823 20.7603 23.8881 21.0257 24.5772 21.0672C24.8887 21.086 25.1929 21.0478 25.4849 20.9332C25.5024 20.9266 25.5185 20.9151 25.5452 20.9006C25.4563 20.8413 25.3786 20.7854 25.2973 20.7343C24.8126 20.4341 24.3273 20.1351 23.8421 19.8355C23.635 19.7074 23.4275 19.5797 23.2205 19.451C23.1289 19.394 23.0492 19.3245 23.0035 19.2238C22.9179 19.0348 23.0535 18.7968 23.2593 18.7727C23.364 18.7602 23.4601 18.7895 23.55 18.8389C23.6136 18.8731 23.6751 18.9127 23.7367 18.9508C24.4745 19.4032 25.2123 19.8562 25.9502 20.3083C25.9739 20.3228 25.9986 20.335 26.0335 20.3544ZM28.6947 19.0144C28.7144 19.0015 28.7276 18.9946 28.7378 18.9851C28.9091 18.8305 29.07 18.6648 29.2195 18.4889C29.4733 18.186 29.6771 17.8538 29.7891 17.4719C29.874 17.1802 29.9175 16.8806 29.9395 16.5774C29.9668 16.1944 29.9419 15.8095 29.8655 15.4333C29.7598 14.9166 29.5639 14.4227 29.2867 13.9741C29.1072 13.6798 28.9149 13.3933 28.666 13.1503C28.5627 13.0496 28.4537 12.9541 28.3444 12.854C28.3207 12.8738 28.3003 12.8893 28.2821 12.907C28.1906 12.9953 28.0978 13.0815 28.0092 13.1727C27.6062 13.5889 27.2898 14.0627 27.0755 14.6016C26.7947 15.3082 26.7038 16.043 26.7568 16.798C26.7868 17.2266 26.9194 17.6243 27.1331 17.9964C27.3247 18.3292 27.5703 18.6193 27.8456 18.8853C27.8897 18.9275 27.9358 18.9683 27.9957 19.0236C27.997 18.9755 27.999 18.9456 27.999 18.9156C27.997 18.4981 27.9931 18.081 27.9934 17.6635C27.9937 17.0337 27.997 16.4039 27.999 15.774C27.999 15.7582 27.999 15.7428 27.9997 15.7273C28.0017 15.6517 28.022 15.5777 28.0589 15.5116C28.0863 15.4613 28.1271 15.4194 28.1768 15.3908C28.2265 15.3622 28.2831 15.3478 28.3404 15.3493C28.4678 15.3483 28.5663 15.4003 28.6305 15.511C28.6733 15.5844 28.6904 15.6647 28.6907 15.7497C28.692 16.0216 28.6953 16.2936 28.695 16.5662C28.695 17.0689 28.692 17.5717 28.6911 18.0744C28.6904 18.3648 28.6911 18.6552 28.6911 18.9456C28.6911 18.9653 28.693 18.9848 28.6947 19.0144ZM18.9081 28.502H19.0039L23.336 28.5079C24.0333 28.5086 24.7307 28.5079 25.4283 28.5079C25.4593 28.5079 25.4902 28.5063 25.5215 28.5063C25.7256 28.5043 25.8632 28.4082 25.9446 28.2218C25.9847 28.129 26.0325 28.0398 26.0819 27.9519C26.3884 27.4047 26.6979 26.8595 27.0031 26.3123C27.2477 25.8727 27.4877 25.4312 27.7294 24.9904C27.7412 24.969 27.7501 24.9456 27.7662 24.91H27.648L21.9315 24.9104C21.6648 24.9104 21.3975 24.9143 21.1305 24.916C21.0705 24.9148 21.0112 24.9279 20.9574 24.9543C20.9037 24.9807 20.857 25.0196 20.8213 25.0677C20.7897 25.1086 20.763 25.1533 20.74 25.1998C20.5115 25.6535 20.2593 26.0943 20.0074 26.5355C19.6904 27.0909 19.3766 27.6486 19.0625 28.2064C19.0105 28.2986 18.9647 28.3934 18.9081 28.502ZM37.6707 28.504C37.6519 28.4658 37.6401 28.4401 37.6272 28.4151C37.4208 28.0078 37.2127 27.6022 37.0083 27.1946C36.6517 26.4861 36.2974 25.7769 35.9419 25.0681C35.9226 25.0286 35.9004 24.9906 35.8754 24.9545C35.8505 24.9177 35.8165 24.888 35.7768 24.8682C35.737 24.8484 35.6928 24.8393 35.6485 24.8416C35.6174 24.8421 35.5863 24.845 35.5557 24.8505C35.4031 24.8802 35.2482 24.8968 35.0928 24.9002C34.5742 24.9025 34.0557 24.9048 33.5368 24.9051C32.1342 24.9058 30.731 24.9054 29.3281 24.9051C29.2478 24.9051 29.1675 24.9018 29.0871 24.9012C29.0588 24.9012 29.0295 24.9002 29.0019 24.9058C28.9765 24.9116 28.9527 24.923 28.9322 24.9392C28.9118 24.9554 28.8952 24.9759 28.8837 24.9993C28.8606 25.0398 28.8929 25.0691 28.909 25.0987C29.097 25.4447 29.2837 25.7917 29.477 26.1348C29.7736 26.6606 30.0765 27.1831 30.3731 27.7092C30.4726 27.885 30.5624 28.0661 30.6543 28.2462C30.7192 28.3736 30.813 28.4648 30.9559 28.4925C31.0244 28.5056 31.0952 28.5109 31.1646 28.5109C31.3329 28.5109 31.5014 28.5027 31.6697 28.5027C32.0746 28.503 32.4786 28.5076 32.8832 28.5079C34.4494 28.5086 36.0159 28.5079 37.5821 28.5079C37.6071 28.5079 37.6325 28.5056 37.671 28.504H37.6707ZM27.8696 25.8326C27.8051 25.957 27.7455 26.0716 27.6866 26.1868L26.6274 28.2554C26.5662 28.3753 26.5115 28.4991 26.4463 28.6166C26.2695 28.9343 25.9979 29.1052 25.6341 29.1207C25.4662 29.1279 25.2973 29.1223 25.129 29.122C24.8877 29.1213 24.6467 29.1197 24.4057 29.119C23.4283 29.1168 22.4509 29.1164 21.4735 29.1177C21.3829 29.1174 21.2924 29.1229 21.2026 29.1342C21.1087 29.1467 21.0495 29.2079 21.029 29.3001C21.0171 29.353 21.0108 29.4071 21.0103 29.4614C21.0093 29.6089 21.0139 29.7571 21.0149 29.9046C21.0165 30.1637 21.0175 30.4231 21.0175 30.6822V33.809C21.0175 34.0503 21.0136 34.2913 21.0165 34.5323C21.0172 34.612 21.0271 34.6927 21.0455 34.77C21.0728 34.8863 21.1548 34.9564 21.2694 34.9841C21.3221 34.9966 21.3767 35.0022 21.4307 35.0022C21.8663 35.0028 22.3019 35.0008 22.7378 35.0005C23.7255 35 24.7132 35 25.7009 35.0005C26.3495 35.0012 26.9971 35.0045 27.6454 35.0051C27.702 35.0051 27.7593 34.9999 27.815 34.9887C27.8513 34.9827 27.8848 34.9655 27.9108 34.9395C27.9369 34.9136 27.9541 34.8801 27.9602 34.8438C27.9717 34.7885 27.9769 34.7309 27.9773 34.6742C27.9773 33.9302 27.9753 33.1864 27.9753 32.4423V25.8586L27.8699 25.8322L27.8696 25.8326ZM28.6137 25.8734V25.9778C28.6124 28.179 28.6117 30.3803 28.6107 32.5823L28.6111 34.6739C28.6111 34.7078 28.6104 34.7417 28.615 34.775C28.6354 34.9284 28.7046 34.9949 28.8593 35.0038C28.9495 35.0091 29.0404 35.0058 29.1309 35.0058C29.6725 35.0041 30.2144 35.0005 30.7564 35.0008C32.1434 35.0015 33.5309 35.0041 34.9179 35.0055C35.0137 35.0058 35.1102 35.0081 35.2057 35.0012C35.4213 34.9864 35.5418 34.8708 35.5685 34.6568C35.5757 34.6002 35.5807 34.5432 35.5807 34.4862C35.5817 33.3168 35.5813 32.1473 35.581 30.9782C35.581 30.9058 35.5797 30.8334 35.5761 30.7609C35.5607 30.4501 35.5664 30.1386 35.5929 29.8285C35.6037 29.6968 35.6034 29.5651 35.5711 29.4344C35.532 29.2764 35.4319 29.1786 35.2761 29.1351C35.1679 29.1084 35.0563 29.0974 34.9449 29.1026C34.5512 29.1128 34.1574 29.1246 33.7636 29.1312C33.5848 29.1345 33.4061 29.1279 33.2273 29.1269C32.8176 29.1244 32.4079 29.1229 31.9983 29.1223C31.7912 29.1223 31.5837 29.1263 31.3763 29.1263C31.2236 29.1263 31.0701 29.1309 30.9187 29.1174C30.6405 29.0927 30.4041 28.9774 30.2309 28.7539C30.1616 28.6634 30.1008 28.5667 30.0492 28.4651C29.8259 28.024 29.6096 27.5782 29.3867 27.1367C29.177 26.7202 28.962 26.306 28.749 25.8912C28.7401 25.8737 28.7276 25.8576 28.7161 25.8398L28.6137 25.8734ZM21.408 35.6554C21.331 35.6448 21.2536 35.6389 21.1779 35.6231C21.0888 35.6063 21.0012 35.5828 20.9158 35.5526C20.6695 35.4605 20.521 35.2761 20.447 35.0282C20.3969 34.8606 20.3804 34.6877 20.3798 34.5136L20.3749 33.0669C20.3735 32.7844 20.3693 32.5019 20.3696 32.2191C20.3699 31.8069 20.3729 31.3947 20.3752 30.9825C20.3778 30.5216 20.3834 30.06 20.3828 29.5984C20.3828 29.5095 20.3679 29.4173 20.3446 29.3307C20.3318 29.2757 20.3024 29.2259 20.2603 29.1882C20.2183 29.1505 20.1656 29.1267 20.1095 29.12C20.0331 29.1055 19.9551 29.102 19.8777 29.1095C19.5518 29.1516 19.2258 29.1338 18.8999 29.1161C18.7776 29.1111 18.6581 29.0779 18.5509 29.0189C18.3158 28.8872 18.2167 28.6581 18.2924 28.3993C18.3188 28.3078 18.3619 28.2209 18.4044 28.1353C18.7221 27.4909 19.0836 26.871 19.4415 26.2481C19.7324 25.7399 20.019 25.2292 20.3011 24.7161C20.4433 24.4577 20.6626 24.325 20.9454 24.2838C21.0248 24.272 21.1058 24.2684 21.1858 24.2684C23.4157 24.2674 25.6459 24.2677 27.8762 24.2677H27.9881L27.9934 24.2005V24.1923L27.9993 22.6913C27.9993 22.6706 27.9983 22.6498 27.9993 22.6291C28.0079 22.4648 27.9407 22.3469 27.7955 22.2663C27.6484 22.1843 27.5068 22.0928 27.3626 22.0052C27.0969 21.8439 26.8312 21.6819 26.5658 21.5199C26.5056 21.4813 26.4369 21.4576 26.3657 21.4511C26.2944 21.4445 26.2226 21.4551 26.1563 21.482C25.8323 21.6022 25.4998 21.6917 25.1574 21.7401C24.3359 21.8574 23.5619 21.7197 22.8461 21.2937C22.291 20.9645 21.7945 20.5635 21.383 20.063C20.8983 19.4737 20.5945 18.8007 20.4591 18.0514C20.4435 17.9647 20.4306 17.8775 20.4206 17.79C20.393 17.5552 20.4749 17.3949 20.683 17.2813C20.8684 17.1809 21.0682 17.115 21.2694 17.0551C21.7336 16.9168 22.2087 16.8661 22.6917 16.8971C23.2712 16.9336 23.8253 17.0791 24.3636 17.2928C24.7343 17.44 25.0816 17.628 25.3974 17.8733C25.964 18.3148 26.3522 18.8817 26.5859 19.5583C26.6936 19.8704 26.7621 20.1914 26.8058 20.5183C26.8279 20.6833 26.873 20.839 27.0024 20.9552C27.0386 20.9882 27.0771 21.0214 27.1203 21.0431C27.4001 21.1821 27.6546 21.3619 27.9187 21.5255C27.9401 21.5387 27.9625 21.5498 27.9921 21.5666C27.9954 21.538 27.9987 21.5182 27.9987 21.4988C27.9964 21.2835 27.9914 21.0685 27.9921 20.8538C27.9921 20.7735 28.002 20.6932 28.0089 20.6135C28.0454 20.1914 27.8841 19.85 27.5815 19.5665C27.4456 19.4391 27.304 19.3166 27.1726 19.1846C26.6327 18.6417 26.2705 18.0003 26.1141 17.248C26.0387 16.882 26.0134 16.5074 26.0391 16.1345C26.0891 15.3839 26.2748 14.6685 26.5889 13.9856C26.8082 13.5029 27.114 13.0644 27.491 12.6917C27.6533 12.5274 27.8311 12.3792 28.022 12.2492C28.2723 12.0833 28.428 12.0806 28.6726 12.2512C29.0282 12.4998 29.3311 12.8043 29.5955 13.147C30.005 13.6788 30.2737 14.278 30.4466 14.923C30.5485 15.293 30.6149 15.6719 30.6448 16.0545C30.6974 16.7927 30.5832 17.5009 30.251 18.1682C30.0519 18.5624 29.7927 18.923 29.4825 19.2373C29.2909 19.4343 29.0841 19.6162 28.8642 19.7812C28.7431 19.8724 28.6815 19.9896 28.6907 20.1424C28.6934 20.1835 28.6911 20.2253 28.6911 20.2668L28.6957 21.27V21.534C28.7148 21.5284 28.7269 21.5278 28.7365 21.5219C29.0526 21.3276 29.367 21.132 29.6831 20.9391C29.7236 20.9155 29.7586 20.8835 29.7857 20.8452C29.8128 20.8069 29.8313 20.7633 29.8401 20.7172C29.8658 20.5931 29.8829 20.467 29.904 20.3419C30.007 19.7311 30.2056 19.1573 30.5661 18.6479C31.0066 18.0257 31.592 17.5858 32.2949 17.2981C32.7117 17.1272 33.146 17.0195 33.5908 16.9524C33.8672 16.9076 34.1471 16.8885 34.427 16.8954C34.9588 16.9132 35.4701 17.0205 35.9524 17.251C35.9827 17.2651 36.0117 17.2829 36.0406 17.3004C36.2145 17.4047 36.2843 17.5628 36.2714 17.76C36.2517 18.0616 36.1802 18.3533 36.0877 18.64C35.878 19.2886 35.5234 19.849 35.0526 20.3379C34.7135 20.6909 34.3398 21.0023 33.92 21.2555C33.5092 21.5059 33.0519 21.6705 32.5757 21.7395C32.23 21.7895 31.8837 21.7856 31.5376 21.7352C31.194 21.6848 30.8572 21.5958 30.5335 21.4698C30.3735 21.4083 30.2283 21.4247 30.0824 21.5166C29.6919 21.7625 29.2978 22.0025 28.9054 22.2452C28.8698 22.2664 28.8361 22.2906 28.8046 22.3176C28.7708 22.3458 28.7438 22.3812 28.7257 22.4213C28.7075 22.4614 28.6987 22.5051 28.7 22.5491C28.7019 22.9122 28.6976 23.2751 28.6957 23.6382C28.6944 23.8193 28.6924 24.0007 28.6914 24.1824C28.6914 24.2074 28.6937 24.2328 28.6953 24.2674H35.4345C35.5566 24.2655 35.6782 24.2826 35.795 24.3181C36.0238 24.3905 36.1967 24.5344 36.3067 24.7461C36.705 25.5089 37.1584 26.2408 37.5795 26.9908C37.7951 27.375 37.9966 27.7672 38.2024 28.1563C38.2643 28.2742 38.3045 28.3993 38.3074 28.5349C38.312 28.7694 38.1998 28.9287 37.9953 29.0291C37.8452 29.1026 37.6835 29.1197 37.5186 29.122C37.3164 29.1253 37.1143 29.1279 36.9128 29.1358C36.8222 29.1398 36.732 29.1499 36.6428 29.1661C36.3893 29.2112 36.2711 29.3307 36.2365 29.5869C36.2168 29.7304 36.2052 29.8756 36.2049 30.0201C36.2026 31.3529 36.2043 32.686 36.2029 34.0187C36.2023 34.2519 36.1973 34.485 36.1878 34.718C36.181 34.8557 36.1502 34.9911 36.0966 35.118C36.0001 35.3518 35.827 35.5026 35.5879 35.574C35.4796 35.6063 35.365 35.6188 35.2534 35.6402C35.2231 35.6458 35.1925 35.6501 35.1622 35.655H21.4077L21.408 35.6554Z" fill="#265344"/>
</g>
<defs>
<clipPath id="clip0_1_294">
<rect width="56" height="56" fill="white"/>
</clipPath>
</defs>
</svg>
