<svg width="47" height="56" viewBox="0 0 47 56" fill="none" xmlns="http://www.w3.org/2000/svg">
<g clip-path="url(#clip0_1_300)">
<path d="M45.2079 27.6816V3.91623C45.2073 3.34975 44.9804 2.80664 44.5772 2.40604C44.1739 2.00543 43.6271 1.78004 43.0567 1.7793H3.94283C3.37236 1.77991 2.82544 2.00525 2.42206 2.40587C2.01868 2.80649 1.79179 3.34967 1.79117 3.91623V27.6816H45.2079Z" fill="black"/>
<path d="M43.0567 0H3.9433C1.76908 0 0 1.75697 0 3.91631V44.9018C0 47.0611 1.76908 48.8181 3.9433 48.8181H43.0572C45.2314 48.8181 47.0005 47.0611 47.0005 44.9018V3.91631C47.0005 1.75697 45.2309 0 43.0567 0ZM3.9433 1.77938H43.0572C43.6276 1.78 44.1746 2.00533 44.5779 2.40595C44.9813 2.80657 45.2082 3.34975 45.2088 3.91631V27.6817H1.7907V3.91631C1.79132 3.34975 2.01821 2.80657 2.42159 2.40595C2.82497 2.00533 3.3719 1.78 3.94236 1.77938H3.9433Z" fill="#FFF37B"/>
<path d="M5.09527 43.9498H10.1017V42.5994H6.63499V41.2938H9.91277V39.9434H6.63499V38.8082H10.1017V37.4667H5.09527V43.9498ZM16.0726 39.3445C15.8564 37.9134 14.6226 37.3593 13.3532 37.3593C12.0748 37.3593 10.6427 37.9759 10.6427 39.2997C10.6427 40.462 11.6062 40.9722 12.6684 41.1865L13.4613 41.3475C14.1813 41.4997 14.6767 41.7055 14.6767 42.1256C14.6767 42.6624 14.0915 42.8323 13.5604 42.8323C12.7591 42.8323 12.2186 42.5191 12.0475 41.8395H10.5167C10.7597 43.2436 11.8402 44.0661 13.5242 44.0661C14.884 44.0661 16.2615 43.2973 16.2615 41.9375C16.2615 40.5778 14.9291 40.2566 13.8753 40.0419L12.9837 39.8631C12.5246 39.7651 12.2275 39.5317 12.2275 39.2101C12.2275 38.8077 12.6599 38.5846 13.2629 38.5846C13.9205 38.5846 14.3975 38.8526 14.5507 39.3445H16.0726ZM19.9153 37.3588C17.9343 37.3588 16.5835 38.6378 16.5835 40.6861C16.5835 42.7605 17.7721 44.0661 19.6902 44.0661C20.6264 44.0661 21.2656 43.807 21.6891 43.2347L21.7342 43.9498H22.9139V40.3369H19.7978V41.5888H21.3737V41.7144C21.3737 42.5369 20.6358 42.8053 19.9242 42.8053C18.8888 42.8053 18.2134 42.0538 18.2134 40.6861C18.2134 39.3184 18.9513 38.6201 19.897 38.6201C20.7345 38.6201 21.1848 39.0495 21.3286 39.4962H22.842C22.5271 38.0833 21.3648 37.3588 19.9153 37.3588ZM27.2647 43.8425C27.2647 44.7368 26.7063 45.1485 25.7969 45.1485C24.9772 45.1485 24.5542 44.7284 24.4912 44.2182H23.9061C24.0048 45.086 24.7704 45.6312 25.779 45.6312C26.9315 45.6312 27.8315 45.0678 27.8315 43.7799V39.1387H27.2647V39.9705C26.931 39.3894 26.3458 39.0584 25.6258 39.0584C24.5091 39.0584 23.6086 39.9705 23.6086 41.4637C23.6086 42.9668 24.5091 43.8695 25.6258 43.8695C26.3458 43.8695 26.9315 43.5475 27.2647 42.9663V43.8425ZM27.3093 41.4637C27.3093 42.7964 26.4901 43.3776 25.7428 43.3776C24.8423 43.3776 24.212 42.6531 24.212 41.4637C24.212 40.2832 24.8423 39.5593 25.7428 39.5593C26.4901 39.5593 27.3093 40.1404 27.3093 41.4637ZM31.0035 44.0661C32.0751 44.0661 32.8582 43.512 33.1012 42.5103H32.516C32.3271 43.181 31.796 43.5563 31.0393 43.5563C30.049 43.5563 29.3195 42.8767 29.2927 41.7055H33.1467C33.2187 40.203 32.3449 39.0584 30.9852 39.0584C29.689 39.0584 28.7165 40.0153 28.7165 41.5622C28.7165 43.0559 29.5898 44.0661 31.0035 44.0661ZM30.9763 39.5593C31.9492 39.5593 32.5343 40.3817 32.5343 41.1958H29.3106C29.4276 40.1222 30.0758 39.5593 30.9763 39.5593ZM34.5835 39.1387H34.0256V43.9498H34.5835V41.2761C34.5835 40.2566 35.2138 39.5588 36.0513 39.5588C37.0242 39.5588 37.2672 40.167 37.2672 41.0702V43.9503H37.8251V40.9181C37.8251 39.738 37.3391 39.0584 36.1956 39.0584C35.2862 39.0584 34.8265 39.4962 34.5835 39.9523V39.1387ZM41.9043 38.0394C41.9043 38.5007 41.7197 38.9431 41.3913 39.2692C41.0629 39.5954 40.6175 39.7787 40.153 39.7787C39.6886 39.7787 39.2431 39.5954 38.9147 39.2692C38.5863 38.9431 38.4018 38.5007 38.4018 38.0394C38.4018 37.5781 38.5863 37.1358 38.9147 36.8096C39.2431 36.4834 39.6886 36.3002 40.153 36.3002C40.6175 36.3002 41.0629 36.4834 41.3913 36.8096C41.7197 37.1358 41.9043 37.5781 41.9043 38.0394ZM4.4744 30.9051H5.02947V33.3216H4.47487V30.9056L4.4744 30.9051ZM5.55728 31.5539H6.05078V31.8349C6.13914 31.659 6.33278 31.5138 6.62888 31.5138C6.97997 31.5138 7.22813 31.7234 7.22813 32.1962V33.3221H6.73463V32.2672C6.73463 32.0272 6.63922 31.9124 6.42161 31.9124C6.21058 31.9124 6.05031 32.0408 6.05031 32.3012V33.3221H5.55681L5.55728 31.5539ZM7.57922 32.4632V32.4361C7.57922 31.855 7.91621 31.5138 8.36224 31.5138C8.64799 31.5138 8.82518 31.6384 8.92388 31.8177V30.7529H9.41362V33.3221H8.92388V33.028C8.83177 33.2073 8.61369 33.3594 8.3519 33.3594C7.9195 33.3594 7.57922 33.0514 7.57922 32.4632ZM8.93752 32.4464V32.4193C8.93752 32.0679 8.78054 31.8886 8.5117 31.8886C8.23581 31.8886 8.08306 32.0744 8.08306 32.4263V32.4534C8.08306 32.8044 8.2532 32.9772 8.49806 32.9772C8.75657 32.9772 8.93752 32.8044 8.93752 32.4464ZM9.77835 32.46V32.4329C9.77835 31.8751 10.1764 31.5133 10.6939 31.5133C11.1531 31.5133 11.562 31.7803 11.562 32.4128V32.5482H10.2789C10.2921 32.8422 10.4523 33.0108 10.7207 33.0108C10.9491 33.0108 11.0614 32.9127 11.092 32.7638H11.5582C11.5004 33.1461 11.1945 33.359 10.7075 33.359C10.1699 33.359 9.77835 33.0243 9.77835 32.46ZM11.0821 32.2471C11.0647 31.9801 10.9284 31.8513 10.6939 31.8513C10.473 31.8513 10.3226 31.9964 10.285 32.2471H11.0821ZM11.9192 31.5539H12.4127V31.8312C12.5114 31.6622 12.7191 31.5138 12.9814 31.5138C13.4171 31.5138 13.7569 31.8349 13.7569 32.4193V32.4464C13.7569 33.0313 13.4237 33.359 12.9814 33.359C12.7055 33.359 12.5048 33.2236 12.4127 33.0514V33.9238H11.9192V31.5539ZM13.2568 32.4502V32.4226C13.2568 32.0646 13.0801 31.8886 12.8315 31.8886C12.573 31.8886 12.3958 32.0679 12.3958 32.4226V32.4497C12.3958 32.8044 12.5659 32.9772 12.8348 32.9772C13.1074 32.9772 13.2568 32.7951 13.2568 32.4502ZM14.013 32.46V32.4329C14.013 31.8751 14.4111 31.5133 14.9286 31.5133C15.3883 31.5133 15.7962 31.7803 15.7962 32.4128V32.5482H14.5131C14.5272 32.8422 14.687 33.0108 14.9559 33.0108C15.1838 33.0108 15.2961 32.9127 15.3272 32.7638H15.7934C15.7351 33.1461 15.4287 33.359 14.9422 33.359C14.4046 33.359 14.013 33.0243 14.013 32.46ZM15.3164 32.2471C15.2994 31.9801 15.1636 31.8513 14.9286 31.8513C14.7077 31.8513 14.5573 31.9964 14.5197 32.2471H15.3164ZM16.1539 31.5539H16.6474V31.8349C16.7362 31.659 16.9303 31.5138 17.2264 31.5138C17.5771 31.5138 17.8252 31.7234 17.8252 32.1962V33.3221H17.3317V32.2672C17.3317 32.0272 17.2363 31.9124 17.0187 31.9124C16.8072 31.9124 16.6474 32.0408 16.6474 32.3012V33.3221H16.1539V31.5539ZM18.1763 32.4632V32.4361C18.1763 31.855 18.5133 31.5138 18.9589 31.5138C19.2446 31.5138 19.4218 31.6384 19.5205 31.8177V30.7529H20.0107V33.3221H19.5205V33.028C19.4289 33.2073 19.2108 33.3594 18.949 33.3594C18.5166 33.3594 18.1763 33.0514 18.1763 32.4632ZM19.5346 32.4464V32.4193C19.5346 32.0679 19.3776 31.8886 19.1088 31.8886C18.8329 31.8886 18.6797 32.0744 18.6797 32.4263V32.4534C18.6797 32.8044 18.8503 32.9772 19.0952 32.9772C19.3537 32.9772 19.5346 32.8044 19.5346 32.4464ZM20.375 32.46V32.4329C20.375 31.8751 20.7735 31.5133 21.2905 31.5133C21.7502 31.5133 22.1586 31.7803 22.1586 32.4128V32.5482H20.8755C20.8891 32.8422 21.0489 33.0108 21.3178 33.0108C21.5457 33.0108 21.6581 32.9127 21.6891 32.7638H22.1549C22.0975 33.1461 21.7911 33.359 21.3042 33.359C20.7665 33.359 20.375 33.0243 20.375 32.46ZM21.6787 32.2471C21.6618 31.9801 21.5255 31.8513 21.2905 31.8513C21.0696 31.8513 20.9192 31.9964 20.8821 32.2471H21.6787ZM22.5163 31.5539H23.0098V31.8349C23.0981 31.659 23.2918 31.5138 23.5884 31.5138C23.939 31.5138 24.1871 31.7234 24.1871 32.1962V33.3221H23.6936V32.2672C23.6936 32.0272 23.5987 31.9124 23.3806 31.9124C23.1696 31.9124 23.0093 32.0408 23.0093 32.3012V33.3221H22.5158V31.5539H22.5163ZM24.7187 32.7979V31.9021H24.4908V31.5539H24.7187V31.1721H25.2084V31.5539H25.583V31.9021H25.2084V32.754C25.2084 32.8959 25.2804 32.9636 25.4058 32.9636C25.47 32.9654 25.5339 32.9539 25.5934 32.93V33.3081C25.497 33.3408 25.3958 33.3569 25.294 33.3557C24.9194 33.3557 24.7187 33.1667 24.7187 32.7979ZM25.9745 30.7529H26.4648V33.3216H25.9745V30.7529ZM27.4861 33.1429L26.7782 31.5539H27.3093L27.7417 32.6154L28.1398 31.5539H28.6127L27.6492 33.9238H27.173L27.4861 33.1429ZM30.3559 30.9051H31.074L31.8636 33.3216H31.2879L31.121 32.7848H30.2398L30.0729 33.3216H29.5559L30.3559 30.9051ZM30.3592 32.3955H31.0021L30.6825 31.3513L30.3592 32.3955ZM32.1221 32.6933V31.5539H32.6124V32.6257C32.6124 32.8656 32.7111 32.9804 32.9226 32.9804C33.1294 32.9804 33.2929 32.8521 33.2929 32.5916V31.5544H33.7831V33.3221H33.2929V33.0453C33.2013 33.2241 33.0208 33.3594 32.728 33.3594C32.3811 33.3594 32.1221 33.1569 32.1221 32.6933ZM34.1478 32.4632V32.4361C34.1478 31.855 34.4848 31.5138 34.9304 31.5138C35.2166 31.5138 35.3933 31.6384 35.492 31.8177V30.7529H35.9823V33.3221H35.492V33.028C35.4004 33.2073 35.1823 33.3594 34.9205 33.3594C34.4881 33.3594 34.1478 33.0514 34.1478 32.4632ZM35.5061 32.4464V32.4193C35.5061 32.0679 35.3492 31.8886 35.0803 31.8886C34.8044 31.8886 34.6517 32.0744 34.6517 32.4263V32.4534C34.6517 32.8044 34.8218 32.9772 35.0667 32.9772C35.3252 32.9772 35.5061 32.8044 35.5061 32.4464ZM36.432 31.047C36.432 30.9709 36.4626 30.9042 36.5129 30.8566C36.5632 30.8089 36.6327 30.78 36.7112 30.78C36.7911 30.78 36.8616 30.8085 36.9124 30.8566C36.9631 30.9046 36.9937 30.9709 36.9937 31.047C36.9937 31.1231 36.9631 31.1898 36.9124 31.2374C36.8616 31.2851 36.7911 31.314 36.7112 31.314C36.6327 31.314 36.5632 31.2855 36.5129 31.2374C36.4626 31.1894 36.432 31.1231 36.432 31.047ZM36.4696 31.5539H36.9594V33.3216H36.4696V31.5539ZM37.521 32.7979V31.9021H37.2931V31.5539H37.521V31.1721H38.0112V31.5539H38.3854V31.9021H38.0112V32.754C38.0112 32.8959 38.0827 32.9636 38.2086 32.9636C38.2838 32.9636 38.3379 32.9533 38.3957 32.93V33.3081C38.2994 33.3408 38.1981 33.3569 38.0963 33.3557C37.7222 33.3557 37.521 33.1667 37.521 32.7979ZM38.6547 32.46V32.4329C38.6547 31.8751 39.0532 31.5133 39.5702 31.5133C40.0299 31.5133 40.4383 31.7803 40.4383 32.4128V32.5482H39.1552C39.1689 32.8422 39.3291 33.0108 39.5975 33.0108C39.8254 33.0108 39.9378 32.9127 39.9688 32.7638H40.435C40.3772 33.1461 40.0708 33.359 39.5843 33.359C39.0462 33.359 38.6547 33.0243 38.6547 32.46ZM39.9585 32.2471C39.9415 31.9801 39.8052 31.8513 39.5702 31.8513C39.3493 31.8513 39.1994 31.9964 39.1618 32.2471H39.9585ZM40.6902 32.4632V32.4361C40.6902 31.855 41.0272 31.5138 41.4733 31.5138C41.759 31.5138 41.9362 31.6384 42.0349 31.8177V30.7529H42.5247V33.3221H42.0349V33.028C41.9428 33.2073 41.7247 33.3594 41.4629 33.3594C41.0305 33.3594 40.6902 33.0514 40.6902 32.4632ZM42.0485 32.4464V32.4193C42.0485 32.0679 41.8916 31.8886 41.6227 31.8886C41.3473 31.8886 41.1941 32.0744 41.1941 32.4263V32.4534C41.1941 32.8044 41.3642 32.9772 41.6091 32.9772C41.8676 32.9772 42.0485 32.8044 42.0485 32.4464Z" fill="black"/>
<path d="M5.21559 17.6246H15.1599V14.9425H8.27388V12.349H14.7839V9.66642H8.27435V7.41092H15.1599V4.74606H5.21606L5.21559 17.6246ZM27.6064 8.47659C27.1773 5.63434 24.7267 4.5332 22.2052 4.5332C19.6653 4.5332 16.8218 5.75898 16.8218 8.3879C16.8218 10.6971 18.7351 11.7095 20.8459 12.1362L22.4195 12.4554C23.8506 12.7575 24.8343 13.1659 24.8343 14.0005C24.8343 15.0666 23.6716 15.4041 22.6159 15.4041C21.0245 15.4041 19.951 14.7824 19.6117 13.4324H16.5708C17.054 16.2215 19.2004 17.8557 22.5445 17.8557C25.2456 17.8557 27.9824 16.3279 27.9824 13.628C27.9824 10.9281 25.3349 10.2886 23.2424 9.862L21.472 9.50725C20.5597 9.3112 19.9694 8.84955 19.9694 8.21006C19.9694 7.41092 20.8281 6.96654 22.0261 6.96654C23.3317 6.96654 24.2797 7.49961 24.5838 8.47659H27.6064ZM35.8262 4.5332C31.8914 4.5332 29.2086 7.07297 29.2086 11.141C29.2086 15.2622 31.5694 17.8557 35.3793 17.8557C37.239 17.8557 38.509 17.3403 39.3498 16.2033L39.4391 17.6246H41.7821V10.4483H35.5931V12.9353H38.7233V13.1836C38.7233 14.8178 37.2569 15.3509 35.8436 15.3509C33.7869 15.3509 32.4455 13.8586 32.4455 11.1405C32.4455 8.42244 33.9119 7.0375 35.79 7.0375C37.4534 7.0375 38.3478 7.89031 38.6335 8.7786H41.6387C41.0127 5.97183 38.7059 4.5332 35.8262 4.5332ZM14.4304 25.3956L16.4956 23.2269C17.0399 22.6551 17.3867 22.1617 17.3867 21.653C17.3867 21.1908 17.1263 20.8935 16.6375 20.8935C16.1407 20.8935 15.8258 21.1829 15.7389 21.9195H14.5799C14.6433 20.6274 15.4315 19.9226 16.693 19.9226C17.9385 19.9226 18.6482 20.6116 18.6482 21.6217C18.6482 22.3657 18.2144 22.9763 17.5601 23.6027L16.4956 24.6362H18.6872V25.5991H14.4304V25.3956ZM19.4044 22.9371V22.671C19.4044 20.9486 20.4135 19.9226 21.8644 19.9226C23.3153 19.9226 24.3159 20.9094 24.3159 22.6472V22.9058C24.3159 24.6203 23.3778 25.685 21.8564 25.685C20.3585 25.685 19.4044 24.6516 19.4044 22.9371ZM23.0469 22.9137V22.6631C23.0469 21.5353 22.6526 20.9014 21.8719 20.9014C21.0837 20.9014 20.6819 21.5045 20.6819 22.6631V22.9291C20.6819 24.1036 21.0997 24.6908 21.8879 24.6908C22.6841 24.6908 23.0469 24.0882 23.0469 22.9137ZM24.8442 25.3956L26.9094 23.2269C27.4536 22.6551 27.8005 22.1617 27.8005 21.653C27.8005 21.1908 27.5401 20.8935 27.0513 20.8935C26.5545 20.8935 26.2396 21.1829 26.1527 21.9195H24.9937C25.0571 20.6274 25.8453 19.9226 27.1068 19.9226C28.3523 19.9226 29.062 20.6116 29.062 21.6217C29.062 22.3657 28.6282 22.9763 27.9735 23.6027L26.9094 24.6362H29.101V25.5991H24.8442V25.3956ZM31.2926 21.2539L30.1496 21.9974V20.9173L31.4501 20.001H32.5696V25.5991H31.2926V21.2539Z" fill="#FFF37B"/>
<path d="M9.25759 51.3527H10.3809L11.9042 55.9365H11.0135L10.6455 54.8022H8.883L8.52157 55.9365H7.71458L9.25759 51.3527ZM9.08369 54.18H10.4453L9.76754 52.0515L9.08369 54.18ZM12.6087 51.3527H15.4945V52.0258H13.4674V53.2824H15.0941V53.9238H13.4674V55.2639H15.604V55.937H12.6087V51.3527ZM16.1793 53.7632V53.5326C16.1793 52.1416 16.9538 51.2888 18.1162 51.2888C19.2846 51.2888 20.0464 52.135 20.0464 53.5135V53.744C20.0464 55.1225 19.3231 56.0009 18.1162 56.0009C16.9412 56.0009 16.1793 55.1421 16.1793 53.7632ZM19.1878 53.7445V53.52C19.1878 52.5453 18.8132 51.9553 18.1223 51.9553C17.4253 51.9553 17.0441 52.5066 17.0441 53.5261V53.7571C17.0441 54.7957 17.4445 55.3213 18.1354 55.3213C18.8451 55.3213 19.1878 54.7836 19.1878 53.7445ZM22.7325 55.0076H20.4474V54.7056L22.4872 51.3527H23.5653V54.3728H24.1853V55.0076H23.5649V55.9365H22.733L22.7325 55.0076ZM22.7457 54.3728V52.0001L21.3639 54.3723L22.7457 54.3728ZM24.722 54.7444H25.5285C25.6127 55.1038 25.8256 55.3344 26.3228 55.3344C26.9813 55.3344 27.3361 54.8088 27.3493 53.7632C27.1359 54.1095 26.7618 54.3406 26.2128 54.3406C25.3222 54.3406 24.683 53.7571 24.683 52.853C24.683 51.9171 25.3415 51.2822 26.3938 51.2822C27.6008 51.2822 28.1948 52.0898 28.1948 53.4108V53.6479C28.1948 55.1547 27.5237 55.9944 26.3355 55.9944C25.3932 55.9944 24.832 55.5332 24.722 54.7444ZM27.2849 52.8912C27.2849 52.276 26.9169 51.9171 26.3872 51.9171C25.8707 51.9171 25.5285 52.2825 25.5285 52.8273C25.5285 53.379 25.8646 53.744 26.3938 53.744C26.9169 53.744 27.2849 53.3972 27.2849 52.8912ZM28.6277 55.783L30.3709 53.9555C30.8099 53.4938 31.0745 53.0901 31.0745 52.6541C31.0745 52.2247 30.8292 51.9553 30.3836 51.9553C29.9254 51.9553 29.6349 52.2181 29.5574 52.8656H28.7696C28.8279 51.8652 29.4347 51.2883 30.4099 51.2883C31.365 51.2883 31.9332 51.8335 31.9332 52.6415C31.9332 53.2376 31.5784 53.7571 31.0294 54.2827L30.0029 55.277H31.9656V55.937H28.6277V55.783ZM34.568 52.045H32.4183V51.3527H35.6457V51.4554L33.9674 55.937H33.0828L34.568 52.045ZM38.1889 52.045H36.0391V51.3527H39.2666V51.4554L37.5883 55.937H36.7042L38.1889 52.045Z" fill="black"/>
</g>
<defs>
<clipPath id="clip0_1_300">
<rect width="47" height="56" fill="white"/>
</clipPath>
</defs>
</svg>
