<svg width="39" height="58" viewBox="0 0 39 58" fill="none" xmlns="http://www.w3.org/2000/svg">
<g clip-path="url(#clip0_1_307)">
<path d="M0.194027 2.14064C0.194027 1.06573 0.150811 0.194336 0.0975016 0.194336C0.0441923 0.194336 0.000976562 1.06573 0.000976562 2.14064V43.597C0.000976562 44.6719 0.0441923 45.5433 0.0975016 45.5433C0.150811 45.5433 0.194027 44.6719 0.194027 43.597V2.14064Z" fill="white"/>
<path d="M0.194027 2.14064C0.194027 1.06573 0.150811 0.194336 0.0975016 0.194336C0.0441923 0.194336 0.000976562 1.06573 0.000976562 2.14064V43.597C0.000976562 44.6719 0.0441923 45.5433 0.0975016 45.5433C0.150811 45.5433 0.194027 44.6719 0.194027 43.597V2.14064Z" stroke="#285C4D" stroke-width="2"/>
<path d="M10.6484 36.345L10.0433 34.4525H10.3913L10.7088 35.5426L10.8211 35.9499C10.8256 35.9313 10.8609 35.802 10.9268 35.5632L11.2396 34.4525H11.5803L11.8737 35.5488L11.9693 35.9108L12.0834 35.5471L12.4297 34.4515H12.7545L12.1224 36.3441H11.7854L11.4773 35.2111L11.4003 34.8892L10.9947 36.345H10.6484ZM13.4628 36.345L12.8565 34.4525H13.2046L13.5221 35.5426L13.6344 35.9499C13.6391 35.9313 13.6744 35.802 13.7403 35.5632L14.0523 34.4525H14.3927L14.6872 35.5488L14.7818 35.9108L14.8958 35.5471L15.2429 34.4515H15.5678L14.9348 36.3441H14.5989L14.2898 35.2111L14.2128 34.8892L13.8062 36.345H13.4628ZM16.2751 36.345L15.67 34.4525H16.0181L16.3355 35.5426L16.4478 35.9499C16.4525 35.9313 16.4876 35.802 16.5535 35.5632L16.8665 34.4525H17.2062L17.5005 35.5488L17.596 35.9108L17.7101 35.5471L18.0564 34.4515H18.3813L17.7491 36.3441H17.4121L17.104 35.2111L17.027 34.8892L16.6214 36.345H16.2751ZM18.4519 36.345V35.9811H18.8296V36.345H18.4519ZM19.3996 36.345V34.7012H19.111V34.4525H19.3996V34.252C19.3996 34.1245 19.4124 34.0317 19.4347 33.9702C19.4672 33.8872 19.5248 33.8203 19.6055 33.7687C19.6874 33.7162 19.8005 33.6912 19.9461 33.6912C20.039 33.6912 20.1431 33.702 20.2562 33.7224L20.2071 34.0005C20.142 33.9892 20.0761 33.9832 20.0101 33.9826C19.9101 33.9826 19.8366 34.0023 19.7958 34.0441C19.7541 34.0869 19.7336 34.1636 19.7336 34.2769V34.4507H20.1177V34.6994H19.7336V36.3431H19.3996V36.345ZM20.2868 35.7736L20.621 35.7316C20.6396 35.859 20.6887 35.9544 20.7731 36.0241C20.8586 36.0883 20.9756 36.123 21.1261 36.123C21.2782 36.123 21.3913 36.0918 21.4638 36.0338C21.5379 35.9715 21.5742 35.9019 21.5742 35.8217C21.5742 35.7485 21.5426 35.6915 21.4767 35.6496C21.4303 35.622 21.3189 35.5854 21.139 35.5418C20.8985 35.483 20.7314 35.4303 20.6368 35.3884C20.5403 35.3429 20.4678 35.2841 20.4204 35.2094C20.3713 35.1337 20.3455 35.0453 20.3463 34.9552C20.3463 34.8695 20.3658 34.7911 20.4075 34.7216C20.4465 34.6486 20.5011 34.5897 20.569 34.5406C20.6348 34.4999 20.706 34.4684 20.7806 34.4472C20.8745 34.4224 20.9712 34.4101 21.0684 34.4106C21.2205 34.4106 21.355 34.431 21.472 34.4748C21.5882 34.5184 21.6737 34.5755 21.7294 34.6486C21.784 34.7216 21.822 34.8207 21.8435 34.9427L21.5167 34.9863C21.5019 34.8875 21.4592 34.8108 21.3905 34.7547C21.3199 34.7002 21.2197 34.6726 21.0935 34.6726C20.943 34.6726 20.8353 34.6967 20.7694 34.7458C20.7035 34.7948 20.6729 34.8501 20.6729 34.9161C20.6729 34.9579 20.686 34.9963 20.7129 35.0291C20.7398 35.0622 20.7815 35.0914 20.841 35.1148C20.8726 35.1272 20.9701 35.1549 21.1296 35.1967C21.3626 35.2574 21.527 35.3065 21.6189 35.3446C21.7117 35.3849 21.785 35.44 21.8378 35.5132C21.8899 35.5864 21.9168 35.679 21.9168 35.7886C21.9168 35.8947 21.8843 35.9937 21.8203 36.0901C21.7561 36.1835 21.6623 36.2575 21.5409 36.3075C21.4184 36.36 21.2809 36.3859 21.1269 36.3859C20.8734 36.3859 20.6784 36.3351 20.5438 36.2325C20.4102 36.1309 20.3241 35.9758 20.2868 35.7736ZM23.5698 35.6531L23.8967 35.6969C23.8614 35.9126 23.7695 36.0819 23.6246 36.2014C23.4762 36.3254 23.2961 36.3859 23.0835 36.3859C22.8152 36.3859 22.5999 36.3003 22.4384 36.1337C22.276 35.9634 22.1933 35.7211 22.1933 35.4063C22.1933 35.2012 22.2296 35.0212 22.2982 34.8678C22.3634 34.7208 22.4761 34.5999 22.6184 34.5247C22.7623 34.4462 22.9174 34.4098 23.0864 34.4098C23.299 34.4098 23.4716 34.4604 23.6079 34.5665C23.7434 34.6708 23.8307 34.8207 23.8678 35.0142L23.5412 35.056C23.5113 34.9303 23.4558 34.8331 23.3778 34.7689C23.3007 34.7047 23.2069 34.6735 23.0956 34.6735C22.9285 34.6735 22.7939 34.7306 22.69 34.8456C22.5851 34.9624 22.533 35.1469 22.533 35.3974C22.533 35.6496 22.5831 35.8359 22.6843 35.9492C22.7846 36.0659 22.9164 36.123 23.0788 36.123C23.2089 36.123 23.3175 36.0846 23.4056 36.0081C23.4911 35.9322 23.5476 35.8135 23.5698 35.6531ZM24.2531 36.345V35.9811H24.6318V36.345H24.2531ZM24.9409 35.3991C24.9409 35.0469 25.0411 34.7876 25.2443 34.6192C25.4134 34.4801 25.6193 34.4106 25.8624 34.4106C26.1335 34.4106 26.3544 34.4962 26.5272 34.6646C26.6978 34.8349 26.7832 35.0702 26.7832 35.3715C26.7832 35.6148 26.7462 35.8065 26.6701 35.9464C26.5941 36.0866 26.4825 36.1934 26.3379 36.2719C26.1914 36.3491 26.028 36.3885 25.8624 36.3867C25.5869 36.3867 25.3652 36.3013 25.1952 36.1327C25.0263 35.9616 24.9409 35.7181 24.9409 35.3991ZM25.2823 35.3972C25.2823 35.6389 25.3381 35.8225 25.4487 35.9422C25.5581 36.0624 25.6973 36.123 25.8634 36.123C26.0296 36.123 26.1688 36.0624 26.2784 35.9402C26.3888 35.8199 26.4445 35.6354 26.4445 35.3867C26.4445 35.1512 26.3888 34.9741 26.2774 34.8536C26.2256 34.7954 26.1618 34.749 26.0903 34.7178C26.0188 34.6866 25.9414 34.6711 25.8634 34.6726C25.6963 34.6726 25.5581 34.7333 25.4487 34.8516C25.3371 34.9731 25.2823 35.1558 25.2823 35.3974V35.3972ZM27.1686 36.345V34.4525H27.4628V34.743C27.5408 34.6076 27.6112 34.5184 27.6754 34.4748C27.7413 34.431 27.8119 34.4106 27.8889 34.4106C28.002 34.4106 28.1153 34.4437 28.2333 34.5149L28.1143 34.8073C28.0403 34.767 27.9574 34.7456 27.8731 34.745C27.8015 34.745 27.7376 34.7654 27.6781 34.8073C27.6196 34.8515 27.5764 34.9129 27.5547 34.9828C27.5172 35.1035 27.4988 35.2292 27.5001 35.3555V36.3441H27.1686V36.3448V36.345ZM28.3372 36.5L28.6703 36.5438C28.6843 36.6426 28.7206 36.7121 28.7818 36.7594C28.8643 36.8182 28.9776 36.8503 29.1195 36.8503C29.2716 36.8503 29.3916 36.8192 29.475 36.7594C29.5587 36.6997 29.6154 36.615 29.6458 36.5089C29.6634 36.4429 29.67 36.3048 29.6692 36.0944C29.5234 36.2619 29.3405 36.3448 29.1232 36.3448C28.8502 36.3448 28.6406 36.2514 28.4922 36.0632C28.3436 35.8752 28.2693 35.6506 28.2693 35.3875C28.2693 35.2084 28.3037 35.0408 28.3705 34.8875C28.4402 34.7358 28.5377 34.6173 28.6675 34.5344C28.7966 34.4507 28.9487 34.4106 29.1225 34.4106C29.3553 34.4106 29.5466 34.5033 29.6969 34.6878V34.4525H30.0005V36.0873C30.0005 36.3814 29.9697 36.5901 29.9067 36.7141C29.8463 36.8361 29.7461 36.9332 29.6115 37.0046C29.476 37.0759 29.3099 37.1107 29.1131 37.1107C28.8791 37.1107 28.689 37.0617 28.5441 36.9609C28.4012 36.8583 28.3315 36.7051 28.3372 36.5ZM28.6102 35.3643C28.6102 35.613 28.6638 35.794 28.766 35.9091C28.868 36.0239 28.999 36.0794 29.154 36.0794C29.3089 36.0794 29.438 36.0241 29.5429 35.9108C29.6468 35.796 29.6989 35.6185 29.6989 35.3742C29.6989 35.1424 29.6458 34.9669 29.5372 34.8483C29.4306 34.7316 29.3007 34.6726 29.1484 34.6726C28.999 34.6726 28.8727 34.7296 28.7678 34.8464C28.6628 34.9641 28.6102 35.1362 28.6102 35.3643ZM20.1987 3.36465C14.1868 3.36465 12.0631 12.3402 10.085 19.5587C9.3713 18.8645 7.17131 16.758 7.16858 16.7607C6.72593 16.3399 6.21815 16.4754 5.90615 16.7687C5.59434 17.07 5.54891 17.627 5.90615 17.9649C5.9237 17.9793 8.8877 20.8182 9.9134 21.8007C10.1954 22.0654 10.6037 22.2205 11.0105 21.9906C11.4356 21.7427 11.4941 21.2979 11.5042 21.2979C15.0146 6.18757 18.1529 5.06183 20.1895 5.06183C21.9028 5.06183 23.877 6.27769 23.877 8.71038C26.4334 8.71038 28.0344 11.9319 25.9767 13.9179C27.6828 14.7095 28.4421 15.6848 28.4421 16.9166C28.4421 18.1513 27.3653 19.4108 25.7967 19.4073C24.24 19.4073 23.4483 18.4472 22.2341 18.4445C21.6848 18.4445 21.3496 18.8707 21.3496 19.2905V22.3417H19.0589V19.3032C19.055 18.8263 18.6884 18.4518 18.2346 18.4518C18.2262 18.4518 18.0377 18.4563 18.0424 18.4616L14.9748 18.8281C14.6035 18.8787 14.2629 19.264 14.2629 19.665C14.2629 20.1331 14.6601 20.519 15.2049 20.5136C15.2728 20.5136 15.3656 20.5136 15.357 20.5058C15.3525 20.5058 17.2998 20.2668 17.2998 20.2668V23.2775C17.2998 23.6609 17.7491 24.0317 18.1529 24.0327H22.2286C22.7038 24.0327 23.1141 23.6403 23.1141 23.1777V20.4285C23.9672 20.9295 25.1525 21.123 25.7622 21.123C28.0476 21.123 30.2306 19.3964 30.2205 16.8664C30.2111 14.5686 28.3844 13.4239 28.3844 13.4239C29.4575 10.6783 27.7235 8.02917 25.4736 7.29191C24.6614 4.46003 22.1442 3.36426 20.1987 3.36426V3.36465ZM17.6313 27.3916C17.6313 28.102 18.4573 28.5291 19.8143 29.1495C20.8921 29.6344 21.512 30.147 21.512 30.5569C21.512 31.2237 20.765 31.46 20.0659 31.46C18.9836 31.46 18.344 31.0464 17.9915 30.1176L17.9616 30.0372H17.8745C17.6824 30.0372 17.5311 30.0454 17.4466 30.1478C17.3723 30.2406 17.3926 30.3644 17.4262 30.4857C17.4234 30.483 17.6637 31.4394 17.6637 31.4394C17.7269 31.6729 17.8142 31.7105 18.2003 31.7827C18.3692 31.8113 19.2436 31.9575 19.9842 31.9575C22.0512 31.9575 22.9759 31.1507 22.9759 30.351C22.9759 29.769 22.3753 29.211 21.0795 28.5915L20.4892 28.3187C19.6028 27.913 19.069 27.6705 19.069 27.2437C19.069 26.8299 19.6223 26.5403 20.4177 26.5403C21.4508 26.5403 21.7283 27.0956 21.8546 27.5796L21.8778 27.6715H21.9773C22.2064 27.6715 22.3521 27.6536 22.4365 27.5627C22.4876 27.5129 22.5053 27.4434 22.496 27.3603L22.4133 26.5341C22.3911 26.2702 22.1805 26.231 21.8887 26.1758C21.5416 26.115 21.1259 26.0438 20.4976 26.0438C18.7034 26.0438 17.6313 26.5483 17.6313 27.3916ZM23.5839 29.0639C23.5839 30.4999 24.8824 31.9565 27.3653 31.9565C28.6184 31.9565 29.3239 31.6821 29.8492 31.4135L29.9922 31.3395L29.7601 31.0955L29.773 31.1079C29.7192 31.032 29.6737 31.0196 29.591 31.0196L29.4696 31.0589C29.2812 31.1435 28.7065 31.3995 27.6633 31.3995C26.3796 31.3995 24.9957 30.5945 24.9957 28.8224C24.9957 27.1367 26.4956 26.5393 27.7756 26.5393C28.6981 26.5393 29.1884 26.8558 29.2775 27.5092L29.2904 27.6172H29.4054C29.514 27.6172 29.8065 27.6172 29.8065 27.4076V26.4235C29.8065 26.1838 29.5179 26.1472 29.3953 26.1312L29.2755 26.116C28.9803 26.0767 28.6974 26.0428 27.9482 26.0428C25.4198 26.0438 23.5839 27.3132 23.5839 29.0639ZM14.2211 26.1133L11.9851 26.132L10.4925 26.1071L10.266 26.1018C10.1334 26.1018 10.0386 26.1945 10.0386 26.3264C10.0386 26.3879 10.0386 26.5794 10.2845 26.5794C11.1858 26.5794 11.2183 26.6516 11.2285 26.9823L11.2351 27.1919L11.249 28.0761V29.982C11.249 30.2984 11.2378 30.8004 11.2164 31.206C11.2109 31.3218 11.2035 31.4324 10.4071 31.4324C10.1852 31.4324 10.0507 31.4752 10.0507 31.6864C10.0507 31.7486 10.0507 31.9119 10.266 31.9119L10.317 31.91C10.4106 31.9057 10.6641 31.895 11.9088 31.895C13.2344 31.895 13.5026 31.9075 13.5909 31.9102L13.64 31.9119C13.8136 31.9119 13.9649 31.8932 13.9649 31.6864C13.9649 31.4503 13.7615 31.4324 13.4255 31.4324C12.6255 31.4324 12.6208 31.3218 12.6153 31.2078C12.5958 30.835 12.58 30.3323 12.58 29.982V29.2965H13.2483C14.275 29.2965 14.391 29.3224 14.5376 30.0828C14.5774 30.2476 14.7149 30.2683 14.8301 30.2683C15.0713 30.2683 15.0983 30.1418 15.0983 30.0845L15.0788 29.8019C15.0558 29.5882 15.0443 29.3733 15.0444 29.1583V27.9915C15.0444 27.815 14.8262 27.815 14.7084 27.815C14.5144 27.815 14.4688 27.9345 14.3454 28.4864C14.2908 28.6966 13.8674 28.8179 13.1843 28.8179H12.5798V27.1028C12.5798 26.6357 12.6664 26.633 12.7729 26.6285C13.1648 26.6125 14.117 26.5794 14.4021 26.5794C14.6732 26.5794 14.9228 26.6392 15.0842 26.7418C15.5912 27.0448 15.8519 27.2507 16.0097 27.3737C16.1628 27.4932 16.2491 27.5627 16.3763 27.5627C16.4478 27.5627 16.6649 27.5627 16.6649 27.3837C16.6649 27.3399 16.6464 27.299 16.576 27.1509C16.4933 26.9753 16.3523 26.6847 16.1768 26.2408C16.1277 26.1008 15.9578 26.1008 15.6441 26.1008L14.2211 26.1133Z" fill="#285C4D"/>
<path d="M27.5373 4.23145C27.8675 4.23145 28.1513 4.34933 28.3887 4.58509C28.6261 4.82085 28.7447 5.10521 28.7446 5.43816C28.7446 5.76994 28.6264 6.05429 28.3902 6.29122C28.154 6.52815 27.8697 6.64655 27.5373 6.64642C27.2037 6.64642 26.9182 6.52854 26.6809 6.29278C26.4435 6.05702 26.3249 5.77214 26.325 5.43816C26.325 5.10625 26.4436 4.82241 26.6809 4.58665C26.9181 4.35088 27.2036 4.23248 27.5373 4.23145ZM27.534 6.4479C27.8109 6.4479 28.0482 6.34929 28.2459 6.15206C28.4437 5.95484 28.5431 5.71687 28.5443 5.43816C28.5443 5.16074 28.4454 4.92388 28.2475 4.72756C28.0496 4.53124 27.8118 4.4325 27.534 4.43133C27.2561 4.43133 27.0188 4.52949 26.8222 4.72581C26.6257 4.92213 26.5268 5.15958 26.5255 5.43816C26.5255 5.71557 26.6238 5.95296 26.8205 6.15031C27.0172 6.34767 27.2551 6.44693 27.5342 6.4481L27.534 6.4479ZM28.0985 6.1071H27.8419C27.6804 5.81373 27.5751 5.64829 27.526 5.61079C27.4769 5.5733 27.4148 5.55468 27.34 5.55494H27.215V6.1071H27.005V4.80911H27.4554C27.5901 4.80911 27.6938 4.81871 27.7664 4.83792C27.8391 4.85712 27.8979 4.89767 27.9429 4.95956C27.9879 5.02145 28.0103 5.08815 28.0102 5.15964C28.0102 5.24813 27.9781 5.32871 27.914 5.40137C27.85 5.47403 27.758 5.51458 27.6383 5.52302V5.52924C27.7163 5.54741 27.8173 5.65575 27.9413 5.85428L28.0985 6.1071ZM27.215 5.37568H27.4714C27.589 5.37568 27.6709 5.35862 27.7169 5.32449C27.7629 5.29037 27.7859 5.24184 27.7857 5.17891C27.7857 5.11792 27.7638 5.07043 27.72 5.03644C27.6762 5.00244 27.588 4.98538 27.4554 4.98525H27.215V5.37568ZM9.64879 40.5566H8.37407V41.2831H9.47875V41.5616H8.37407V42.6243H8.06305V40.2781H9.64879V40.5566ZM11.5826 40.9663C11.5697 40.8169 11.5158 40.7049 11.4208 40.6301C11.3257 40.5554 11.1894 40.5175 11.0118 40.5165C10.8514 40.5165 10.721 40.5463 10.6205 40.606C10.52 40.6657 10.4697 40.7527 10.4697 40.867C10.4697 40.9683 10.5082 41.0436 10.5852 41.0928C10.6621 41.142 10.8107 41.1915 11.0309 41.2415C11.2256 41.2843 11.3843 41.3281 11.5071 41.3729C11.63 41.4176 11.7353 41.487 11.823 41.5809C11.9108 41.6749 11.9547 41.8018 11.9547 41.9618C11.9547 42.1634 11.8745 42.331 11.714 42.4643C11.5536 42.5977 11.3436 42.6644 11.084 42.6644C10.7537 42.6644 10.5067 42.5908 10.343 42.4435C10.1793 42.2962 10.0922 42.1052 10.0817 41.8705L10.3767 41.8448C10.3906 42.0327 10.4634 42.1693 10.5949 42.2547C10.7265 42.3401 10.8852 42.3833 11.0711 42.3843C11.2453 42.3843 11.3858 42.3486 11.4927 42.2771C11.5996 42.2056 11.6535 42.1085 11.6546 41.9857C11.6546 41.8577 11.5985 41.7643 11.4865 41.7057C11.3744 41.647 11.1862 41.5894 10.9219 41.5328C10.6577 41.4763 10.4668 41.3957 10.3494 41.2911C10.232 41.1865 10.1738 41.0521 10.1747 40.8878C10.1747 40.7001 10.2485 40.5448 10.396 40.4221C10.5436 40.2993 10.7446 40.238 10.999 40.2382C11.2597 40.2382 11.4692 40.2989 11.6275 40.4205C11.7857 40.5421 11.8702 40.716 11.881 40.9421L11.5826 40.9663ZM14.4961 41.8801C14.4277 42.1436 14.3085 42.3399 14.1385 42.469C13.9684 42.5981 13.7637 42.6633 13.5242 42.6644C13.1394 42.6644 12.8594 42.5444 12.6842 42.3044C12.5089 42.0643 12.4207 41.7746 12.4195 41.4351C12.4195 41.0607 12.5227 40.7678 12.729 40.5566C12.9353 40.3453 13.2015 40.2392 13.5275 40.2382C13.7563 40.2382 13.952 40.2963 14.1145 40.4125C14.277 40.5288 14.3908 40.699 14.4559 40.9231L14.1513 40.9951C14.1 40.8318 14.022 40.7092 13.9173 40.627C13.8127 40.5449 13.6817 40.5038 13.5244 40.5038C13.2678 40.5038 13.0732 40.5875 12.9408 40.7549C12.8083 40.9223 12.742 41.148 12.7419 41.432C12.7419 41.7585 12.8114 42.0012 12.9505 42.1601C13.0896 42.3191 13.2718 42.3986 13.4971 42.3988C13.6809 42.3988 13.83 42.3491 13.9444 42.2499C14.0588 42.1506 14.1396 42.0012 14.1866 41.8016L14.4961 41.8801Z" fill="#285C4D" stroke="#285C4D" stroke-width="0.658"/>
<path d="M15.6146 40.2637C15.7797 40.2637 15.9216 40.3226 16.0403 40.4404C16.159 40.5582 16.2184 40.7004 16.2184 40.867C16.2184 41.033 16.1593 41.1751 16.0411 41.2935C15.9229 41.4118 15.7808 41.471 15.6146 41.4712C15.4478 41.4712 15.3051 41.4122 15.1864 41.2942C15.0677 41.1763 15.0084 41.0339 15.0086 40.867C15.0086 40.7011 15.0679 40.5592 15.1864 40.4414C15.305 40.3236 15.4477 40.2643 15.6146 40.2637ZM15.6131 41.3719C15.7515 41.3719 15.8701 41.3226 15.9689 41.224C16.0677 41.1254 16.1175 41.0064 16.1181 40.867C16.1181 40.7282 16.0687 40.6097 15.9699 40.5116C15.8711 40.4135 15.7522 40.3642 15.6131 40.3637C15.474 40.3637 15.3553 40.4128 15.257 40.5109C15.1587 40.6089 15.1093 40.7277 15.1088 40.867C15.1088 41.0057 15.1579 41.1245 15.2562 41.2232C15.3545 41.3219 15.4735 41.3715 15.6131 41.3719ZM15.8952 41.2014H15.7669C15.6863 41.0548 15.6337 40.9721 15.609 40.9534C15.5843 40.9348 15.5533 40.9254 15.516 40.9254H15.4536V41.2014H15.3483V40.5525H15.5737C15.641 40.5525 15.6929 40.5573 15.7293 40.5669C15.7657 40.5765 15.7951 40.5968 15.8174 40.6278C15.8398 40.6588 15.851 40.6921 15.8512 40.7277C15.8512 40.772 15.8351 40.8123 15.803 40.8485C15.7709 40.8847 15.7249 40.905 15.6651 40.9095V40.9126C15.7041 40.9217 15.7546 40.9758 15.8167 41.0751L15.8952 41.2014ZM15.4536 40.8359H15.5817C15.6406 40.8359 15.6815 40.8273 15.7045 40.8102C15.7275 40.7931 15.739 40.7688 15.7388 40.7374C15.7388 40.7069 15.7279 40.6832 15.7061 40.6662C15.6842 40.6492 15.6401 40.6406 15.5737 40.6405H15.4536V40.8359Z" fill="#285C4D" stroke="#285C4D" stroke-width="0.329"/>
<path d="M19.9304 41.8802C19.862 42.1437 19.7428 42.34 19.5729 42.4691C19.403 42.5982 19.1983 42.6634 18.9587 42.6645C18.5739 42.6645 18.2938 42.5445 18.1184 42.3045C17.9431 42.0644 17.8549 41.7747 17.854 41.4353C17.854 41.0608 17.9572 40.7679 18.1635 40.5567C18.3698 40.3455 18.636 40.2393 18.962 40.2383C19.1908 40.2383 19.3864 40.2964 19.5489 40.4127C19.7114 40.5289 19.8252 40.6991 19.8902 40.9232L19.5856 40.9952C19.5344 40.832 19.4564 40.7093 19.3516 40.6272C19.2468 40.545 19.1158 40.504 18.9587 40.504C18.7022 40.504 18.5076 40.5876 18.375 40.755C18.2424 40.9224 18.1761 41.1481 18.1761 41.4321C18.1761 41.7586 18.2457 42.0013 18.3848 42.1603C18.5239 42.3192 18.7061 42.3987 18.9314 42.3989C19.1153 42.3989 19.2645 42.3492 19.3789 42.25C19.4933 42.1507 19.574 42.0013 19.6209 41.8017L19.9304 41.8802ZM21.4184 42.6245H21.1298V40.7887C20.9855 40.9253 20.7926 41.0411 20.551 41.1361V40.8576C20.8835 40.6986 21.11 40.5018 21.2308 40.2671H21.4184V42.6245ZM22.6611 41.2145C22.8044 41.1163 22.953 41.0672 23.1069 41.0672C23.3026 41.0672 23.4731 41.136 23.6184 41.2735C23.7637 41.4111 23.8364 41.5957 23.8364 41.8274C23.8364 42.0601 23.7627 42.2574 23.6153 42.4195C23.4679 42.5816 23.2744 42.6632 23.0348 42.6645C22.8391 42.6645 22.6697 42.6096 22.5264 42.4997C22.3831 42.3898 22.3008 42.226 22.2795 42.0083L22.581 41.9859C22.6056 42.1342 22.658 42.2446 22.7382 42.3171C22.8184 42.3897 22.9172 42.4265 23.0348 42.4277C23.1813 42.4277 23.2999 42.3727 23.3906 42.2628C23.4814 42.1529 23.5269 42.0169 23.5271 41.8547C23.5271 41.6903 23.4806 41.5607 23.3875 41.4658C23.2944 41.371 23.1747 41.3235 23.0283 41.3233C22.8435 41.3233 22.7013 41.3986 22.6019 41.5491L22.3293 41.517L22.5586 40.3103H23.7243V40.5886H22.7879L22.6611 41.2145ZM25.3278 42.6245H25.0392V40.7887C24.8949 40.9253 24.7019 41.0411 24.4602 41.1361V40.8576C24.7926 40.6986 25.0193 40.5018 25.1402 40.2671H25.3278V42.6245ZM26.4806 41.4144C26.6132 41.2075 26.8019 41.104 27.0467 41.104C27.2391 41.104 27.4026 41.175 27.5373 41.3169C27.672 41.4589 27.7393 41.6403 27.7393 41.8611C27.7393 42.084 27.6725 42.2734 27.5389 42.4292C27.4052 42.5851 27.2267 42.6635 27.0034 42.6645C26.7779 42.6645 26.586 42.5813 26.4278 42.4148C26.2696 42.2484 26.1899 41.9523 26.1887 41.5265C26.1887 41.1083 26.2603 40.7941 26.4036 40.5839C26.5468 40.3737 26.7553 40.2681 27.0289 40.2671C27.2054 40.2671 27.3545 40.3161 27.4763 40.4142C27.5981 40.5123 27.6724 40.658 27.6992 40.8512L27.4106 40.8769C27.3582 40.6283 27.2256 40.504 27.013 40.504C26.8654 40.504 26.7387 40.577 26.6329 40.7231C26.5271 40.8692 26.4742 41.0997 26.4742 41.4144H26.4806ZM26.997 42.4277C27.1296 42.4277 27.237 42.3743 27.3193 42.2675C27.4016 42.1607 27.4427 42.0316 27.4427 41.8802C27.4427 41.7288 27.4016 41.6034 27.3193 41.5042C27.237 41.4049 27.1264 41.3553 26.9874 41.3553C26.8601 41.3553 26.7506 41.4017 26.6586 41.4946C26.5667 41.5875 26.5208 41.7108 26.5208 41.8644C26.5208 42.0201 26.5656 42.1529 26.6553 42.2628C26.745 42.3727 26.8589 42.4277 26.997 42.4277ZM28.9179 40.2671C29.4288 40.2671 29.6843 40.6672 29.6843 41.4674C29.6843 41.8717 29.6186 42.1721 29.4873 42.3685C29.356 42.565 29.1662 42.6636 28.9179 42.6644C28.4081 42.6644 28.1531 42.2654 28.1531 41.4674C28.1531 41.0629 28.2188 40.762 28.3503 40.5647C28.4817 40.3673 28.6709 40.2681 28.9177 40.2669L28.9179 40.2671ZM28.9179 42.4275C29.0729 42.4275 29.1899 42.3529 29.2689 42.2037C29.348 42.0544 29.3876 41.809 29.3879 41.4674C29.3879 41.2304 29.3707 41.0442 29.3364 40.9088C29.3021 40.7733 29.2497 40.672 29.1792 40.6048C29.1088 40.5376 29.0205 40.504 28.9146 40.504C28.7596 40.504 28.6432 40.5802 28.5652 40.7326C28.4872 40.8851 28.4482 41.13 28.4482 41.4674C28.4482 41.7009 28.4657 41.886 28.5008 42.0227C28.5359 42.1593 28.5884 42.2607 28.6582 42.3269C28.728 42.393 28.8146 42.4265 28.9179 42.4275ZM31.2045 41.3555C31.4984 41.4493 31.6454 41.6493 31.6454 41.9555C31.6454 42.1571 31.5732 42.3257 31.4289 42.4612C31.2846 42.5966 31.0992 42.6644 30.8726 42.6645C30.6438 42.6645 30.4578 42.5962 30.3145 42.4596C30.1712 42.323 30.0991 42.1517 30.0981 41.9458C30.0981 41.7975 30.1382 41.6678 30.2184 41.5569C30.2986 41.446 30.4076 41.3788 30.5454 41.3553V41.3488C30.3102 41.2763 30.1926 41.1179 30.1926 40.8736C30.1926 40.7007 30.2546 40.5567 30.3787 40.4415C30.5027 40.3263 30.6652 40.2681 30.8662 40.2671C31.0703 40.2671 31.2348 40.3268 31.3599 40.4461C31.485 40.5655 31.548 40.7101 31.549 40.88C31.549 41.1104 31.4342 41.2668 31.2045 41.349V41.3555ZM30.8726 41.2416C30.9805 41.2416 31.0708 41.2075 31.1436 41.1392C31.2164 41.071 31.2533 40.9846 31.2542 40.88C31.2542 40.7744 31.2173 40.6853 31.1435 40.6128C31.0696 40.5402 30.9782 40.5039 30.8693 40.5038C30.7592 40.5038 30.6683 40.5396 30.5967 40.6112C30.525 40.6828 30.4893 40.7671 30.4894 40.864C30.4894 40.9803 30.5263 41.072 30.6 41.1392C30.6737 41.2064 30.7646 41.2406 30.8726 41.2416ZM30.8726 42.4277C31.0083 42.4277 31.1216 42.3839 31.2125 42.2963C31.3033 42.2087 31.3488 42.0951 31.3488 41.9555C31.3488 41.8158 31.3022 41.7011 31.2092 41.6114C31.1161 41.5217 31.0017 41.477 30.866 41.4771C30.7261 41.4771 30.6123 41.5229 30.5247 41.6145C30.4371 41.7061 30.3932 41.8176 30.3931 41.9491C30.3931 42.0845 30.4379 42.1981 30.5276 42.2899C30.6173 42.3816 30.7323 42.4276 30.8726 42.4277Z" fill="#285C4D" stroke="#285C4D" stroke-width="0.658"/>
<path d="M12.0327 50.0928H11.255V52.1606H10.9422V50.0928H10.1712V49.8145H12.0329L12.0327 50.0928ZM13.843 52.1606H13.5525V51.0882C13.5525 50.9496 13.5226 50.8456 13.4628 50.7762C13.403 50.7068 13.3137 50.6721 13.1949 50.6722C13.0773 50.6722 12.9726 50.7128 12.8807 50.7939C12.7888 50.875 12.7423 51.0212 12.7411 51.2324V52.1606H12.4525V49.8143H12.7411V50.6561C12.878 50.5014 13.0491 50.4241 13.2543 50.4241C13.3645 50.4241 13.4698 50.4465 13.5702 50.4912C13.6707 50.536 13.7413 50.6048 13.7818 50.6977C13.8224 50.7906 13.8427 50.9198 13.8427 51.0851V52.1606H13.843ZM15.8859 51.3844H14.611C14.6227 51.5722 14.6762 51.7157 14.7714 51.8149C14.8667 51.9142 14.9865 51.9638 15.1306 51.9638C15.2406 51.9638 15.333 51.935 15.4079 51.8774C15.4828 51.8198 15.54 51.7317 15.5795 51.6133L15.8761 51.6501C15.828 51.8272 15.7398 51.9632 15.6115 52.0582C15.4832 52.1532 15.3229 52.2007 15.1306 52.2007C14.8751 52.2007 14.6756 52.1228 14.5324 51.9669C14.3891 51.8111 14.317 51.5972 14.3159 51.3252C14.3159 51.0574 14.3855 50.8403 14.5246 50.6738C14.6637 50.5073 14.8603 50.4241 15.1144 50.4241C15.2385 50.4241 15.3577 50.4513 15.4721 50.5058C15.5865 50.5603 15.6843 50.6526 15.7656 50.7826C15.8468 50.9126 15.8869 51.1132 15.8859 51.3844ZM15.5891 51.1475C15.5774 50.9747 15.5239 50.8504 15.4288 50.7746C15.3336 50.6988 15.2288 50.6604 15.1144 50.6594C14.9787 50.6594 14.8671 50.7047 14.7794 50.7954C14.6918 50.8861 14.6411 51.0035 14.6271 51.1475H15.5891ZM19.7085 52.1606H19.4198V51.0882C19.4198 51.0093 19.4145 50.9421 19.4039 50.8867C19.3932 50.8313 19.3659 50.7817 19.322 50.7378C19.278 50.694 19.2085 50.6721 19.1135 50.6722C19.0003 50.6722 18.9025 50.7117 18.82 50.7906C18.7376 50.8695 18.6965 50.9975 18.6966 51.1748V52.1606H18.408V51.0562C18.408 50.909 18.3823 50.8082 18.331 50.7538C18.2796 50.6994 18.2059 50.6722 18.1098 50.672C17.9858 50.672 17.8842 50.7148 17.8051 50.8003C17.7259 50.8858 17.6858 51.0453 17.6849 51.2787V52.1606H17.3963V50.4624H17.6561V50.6993H17.6625C17.778 50.5158 17.9473 50.4241 18.1707 50.4241C18.2957 50.4241 18.3984 50.4486 18.4786 50.4977C18.5588 50.5467 18.6176 50.6214 18.6551 50.7219C18.7812 50.5234 18.9559 50.4241 19.1792 50.4241C19.3556 50.4241 19.4876 50.4716 19.5753 50.5666C19.6629 50.6615 19.7073 50.8039 19.7085 50.9938V52.1606ZM21.7417 52.1606H21.4387C21.4109 52.1073 21.391 52.0374 21.3792 51.951C21.1858 52.1174 20.9768 52.2007 20.7523 52.2007C20.5728 52.2007 20.4311 52.1559 20.3274 52.0662C20.2236 51.9765 20.1718 51.8581 20.1718 51.7108C20.1718 51.57 20.2215 51.4543 20.3209 51.3636C20.4204 51.2729 20.5941 51.2121 20.8422 51.1812L21.1115 51.1411C21.212 51.1251 21.2948 51.1054 21.3601 51.0819C21.3601 50.9955 21.3574 50.9347 21.3519 50.8994C21.3465 50.8641 21.331 50.8268 21.3055 50.7875C21.28 50.7482 21.2378 50.7172 21.1788 50.6946C21.1197 50.672 21.0422 50.6603 20.9463 50.6594C20.8223 50.6594 20.7245 50.6823 20.6528 50.7281C20.5812 50.7739 20.5315 50.8593 20.5039 50.9842L20.2215 50.9475C20.2526 50.7736 20.3323 50.6429 20.4606 50.5553C20.5889 50.4677 20.7652 50.424 20.9896 50.4241C21.1937 50.4241 21.3434 50.4539 21.4387 50.5136C21.534 50.5733 21.5927 50.6464 21.615 50.733C21.6372 50.8195 21.6484 50.9294 21.6487 51.0627V51.45C21.6487 51.6858 21.653 51.8437 21.6616 51.9237C21.6702 52.0038 21.697 52.0827 21.7417 52.1606ZM21.3601 51.4132V51.3091C21.2093 51.3593 21.0249 51.3988 20.8069 51.4276C20.5889 51.4564 20.4798 51.5487 20.4797 51.7044C20.4797 51.7822 20.5091 51.8463 20.5678 51.8965C20.6266 51.9467 20.7111 51.9723 20.8213 51.9734C20.9634 51.9734 21.0885 51.9312 21.1965 51.8468C21.3045 51.7625 21.3591 51.618 21.3601 51.4132ZM23.1383 50.5154L23.0389 50.781C22.9674 50.7395 22.8974 50.7188 22.8288 50.7188C22.7209 50.7188 22.6392 50.7668 22.5835 50.8628C22.5279 50.9588 22.5001 51.0943 22.5001 51.2692V52.1606H22.2115V50.4624H22.4745V50.7186H22.4808C22.5728 50.5223 22.6931 50.4241 22.8415 50.4241C22.9399 50.4241 23.0389 50.4545 23.1383 50.5154ZM24.8524 52.1606H24.498L23.932 51.2916L23.7284 51.4852V52.1606H23.4398V49.8143H23.7284V51.1506L24.4115 50.4624H24.7866L24.1355 51.0915L24.8524 52.1606ZM26.9465 50.4241C27.1763 50.4241 27.3666 50.4988 27.5174 50.6481C27.6682 50.7975 27.7441 51.0098 27.745 51.2851C27.745 51.6191 27.6632 51.855 27.4997 51.9926C27.3361 52.1303 27.1517 52.1996 26.9465 52.2007C26.7316 52.2007 26.545 52.1297 26.3868 51.9878C26.2286 51.8458 26.1496 51.6207 26.1497 51.3124C26.1497 51.0136 26.2261 50.791 26.3788 50.6448C26.5316 50.4986 26.7208 50.425 26.9465 50.4241ZM26.9465 51.9636C27.1112 51.9636 27.2362 51.9028 27.3216 51.7813C27.407 51.6597 27.4498 51.4996 27.4499 51.3011C27.4499 51.0888 27.4019 50.9288 27.3057 50.8209C27.2095 50.7131 27.0897 50.6593 26.9465 50.6594C26.8001 50.6594 26.6798 50.7138 26.5857 50.8227C26.4916 50.9316 26.4446 51.0948 26.4447 51.3124C26.4447 51.5278 26.4922 51.69 26.5873 51.799C26.6823 51.908 26.802 51.9629 26.9465 51.9638V51.9636ZM29.0101 49.8032L28.9669 50.056C28.9091 50.0454 28.8525 50.0401 28.797 50.0401C28.7275 50.0401 28.6708 50.0545 28.627 50.0833C28.5832 50.1121 28.5607 50.1851 28.5597 50.3024V50.4624H28.8883V50.6849H28.5597V52.1606H28.2711V50.6849H28.0145V50.4624H28.2709V50.2785C28.2709 50.1931 28.279 50.1158 28.2951 50.0465C28.3112 49.9772 28.3535 49.9147 28.4218 49.8591C28.4902 49.8034 28.5966 49.7752 28.7409 49.7744C28.8264 49.7744 28.9162 49.784 29.0101 49.8032ZM5.09047 54.2134L4.99102 54.479C4.91939 54.4375 4.84939 54.4168 4.78101 54.4168C4.67311 54.4168 4.59127 54.4648 4.5355 54.5608C4.47973 54.6568 4.45198 54.7923 4.45224 54.9672V55.8586H4.16364V54.1604H4.4265V54.4166H4.43293C4.52484 54.2202 4.64509 54.1221 4.79368 54.1221C4.89209 54.1221 4.99102 54.1525 5.09047 54.2134ZM6.87355 55.0824H5.59845C5.61015 55.2701 5.66364 55.4136 5.75893 55.5129C5.85422 55.6122 5.97395 55.6618 6.11812 55.6618C6.2281 55.6618 6.32053 55.633 6.39541 55.5754C6.47029 55.5178 6.52749 55.4297 6.56701 55.3113L6.86361 55.3481C6.81551 55.5252 6.7273 55.6612 6.59899 55.7562C6.47068 55.8512 6.31039 55.8987 6.11812 55.8987C5.86254 55.8987 5.66312 55.8208 5.51986 55.6649C5.3766 55.5091 5.30445 55.2952 5.30341 55.0232C5.30341 54.7554 5.37296 54.5383 5.51206 54.3718C5.65116 54.2053 5.84779 54.1221 6.10194 54.1221C6.22596 54.1221 6.34517 54.1493 6.45957 54.2038C6.57397 54.2583 6.67179 54.3506 6.75304 54.4806C6.83429 54.6106 6.87459 54.8112 6.87355 55.0824ZM6.57676 54.8455C6.56506 54.6727 6.51163 54.5484 6.41647 54.4726C6.32131 54.3968 6.21653 54.3584 6.10213 54.3574C5.96641 54.3574 5.85474 54.4027 5.76712 54.4934C5.6795 54.5841 5.62874 54.7015 5.61483 54.8455H6.57676ZM8.299 54.6359C8.28613 54.543 8.24869 54.4736 8.18668 54.4276C8.12467 54.3817 8.03757 54.3583 7.92538 54.3574C7.81527 54.3574 7.72655 54.3761 7.65921 54.4134C7.59187 54.4508 7.55761 54.5052 7.55644 54.5765C7.55644 54.6438 7.58322 54.6918 7.63678 54.7206C7.69034 54.7494 7.7972 54.7846 7.95736 54.8263C8.13702 54.8722 8.27118 54.9127 8.35984 54.9479C8.4485 54.9831 8.51805 55.0322 8.56849 55.0952C8.61893 55.1583 8.64402 55.2468 8.64376 55.3609C8.64376 55.5123 8.58175 55.6398 8.45773 55.7434C8.33371 55.8469 8.16796 55.8987 7.96048 55.8987C7.74468 55.8987 7.57633 55.8533 7.45543 55.7624C7.33453 55.6716 7.25978 55.5345 7.23118 55.3512L7.51803 55.308C7.53298 55.4264 7.57679 55.515 7.64946 55.5736C7.72213 55.6323 7.82483 55.6617 7.95756 55.6618C8.08365 55.6618 8.18038 55.6357 8.24772 55.5834C8.31506 55.5311 8.34872 55.4665 8.34872 55.3897C8.34872 55.3385 8.33319 55.2974 8.30212 55.2665C8.27105 55.2356 8.23257 55.2127 8.18668 55.1976C8.14079 55.1826 8.03601 55.1548 7.87234 55.1143C7.6308 55.0567 7.47155 54.9868 7.39459 54.9047C7.31763 54.8226 7.27863 54.7244 7.27759 54.6102C7.27759 54.4683 7.33421 54.3515 7.44744 54.2599C7.56067 54.1683 7.71303 54.1223 7.90452 54.1221C8.10758 54.1221 8.26527 54.1616 8.37759 54.2406C8.48991 54.3196 8.55777 54.4385 8.58117 54.5974L8.299 54.6359ZM9.39256 54.3798C9.50046 54.208 9.66238 54.1221 9.87831 54.1221C10.1018 54.1221 10.2782 54.2027 10.4075 54.3638C10.5369 54.525 10.6016 54.7357 10.6016 54.996C10.6016 55.2723 10.5299 55.4916 10.3867 55.6538C10.2434 55.816 10.0676 55.8976 9.8592 55.8987C9.67629 55.8987 9.52984 55.8261 9.41986 55.6809H9.41167V56.5116H9.12307V54.1604H9.38613V54.3798H9.39256ZM9.83989 55.6618C9.97457 55.6618 10.0857 55.6063 10.1733 55.4952C10.261 55.3841 10.3054 55.2177 10.3065 54.996C10.3065 54.7878 10.2643 54.6278 10.1798 54.5158C10.0953 54.4038 9.98627 54.3479 9.85276 54.3479C9.71587 54.3479 9.60362 54.4103 9.516 54.5351C9.42838 54.6599 9.38398 54.8215 9.38281 55.0199C9.38281 55.2301 9.42506 55.3896 9.50956 55.4985C9.59406 55.6074 9.70417 55.6618 9.83989 55.6618ZM11.7673 54.1221C11.9971 54.1221 12.1874 54.1968 12.338 54.3461C12.4887 54.4954 12.5646 54.7078 12.5658 54.9831C12.5658 55.3171 12.484 55.5529 12.3205 55.6906C12.1569 55.8283 11.9725 55.8976 11.7673 55.8987C11.5524 55.8987 11.3658 55.8277 11.2076 55.6857C11.0494 55.5438 10.9703 55.3187 10.9703 55.0104C10.9703 54.7115 11.0467 54.489 11.1996 54.3428C11.3525 54.1966 11.5419 54.123 11.7673 54.1221ZM11.7673 55.6616C11.9319 55.6616 12.0569 55.6008 12.1424 55.4792C12.228 55.3577 12.2708 55.1976 12.2708 54.9991C12.2708 54.7868 12.2227 54.6268 12.1265 54.5189C12.0303 54.4111 11.9105 54.3573 11.7673 54.3574C11.6208 54.3574 11.5005 54.4118 11.4065 54.5207C11.3125 54.6295 11.2655 54.7928 11.2653 55.0104C11.2653 55.2258 11.3129 55.388 11.4081 55.4969C11.5032 55.6059 11.623 55.6609 11.7673 55.6618V55.6616ZM14.4195 55.8586H14.1291V54.8263C14.1291 54.6524 14.0981 54.5329 14.0361 54.4677C13.9741 54.4026 13.887 54.3701 13.7748 54.3702C13.6893 54.3702 13.6085 54.391 13.5326 54.4325C13.4567 54.474 13.4022 54.5327 13.3692 54.6087C13.3362 54.6846 13.3201 54.7918 13.321 54.9304V55.8586H13.0324V54.1604H13.2922V54.4006H13.2986C13.3596 54.3078 13.4344 54.2384 13.5231 54.1923C13.6117 54.1463 13.7154 54.1229 13.8341 54.1223C13.9239 54.1223 14.0126 54.1382 14.1003 54.1702C14.1879 54.2021 14.2563 54.2501 14.3056 54.3142C14.3549 54.3783 14.3864 54.4465 14.4002 54.5189C14.4139 54.5913 14.4204 54.6895 14.4195 54.8134V55.8586ZM15.9331 54.6359C15.9202 54.543 15.8827 54.4736 15.8207 54.4276C15.7587 54.3817 15.6716 54.3583 15.5594 54.3574C15.4493 54.3574 15.3606 54.3761 15.2933 54.4134C15.2259 54.4508 15.1917 54.5052 15.1907 54.5765C15.1907 54.6438 15.2174 54.6918 15.2708 54.7206C15.3243 54.7494 15.4312 54.7846 15.5916 54.8263C15.7711 54.8722 15.9053 54.9127 15.9941 54.9479C16.0829 54.9831 16.1524 55.0322 16.2025 55.0952C16.2527 55.1583 16.2778 55.2468 16.2778 55.3609C16.2778 55.5123 16.2158 55.6398 16.0918 55.7434C15.9678 55.8469 15.8021 55.8987 15.5947 55.8987C15.3788 55.8987 15.2105 55.8533 15.0897 55.7624C14.9689 55.6716 14.8941 55.5345 14.8652 55.3512L15.1523 55.308C15.1672 55.4264 15.211 55.515 15.2837 55.5736C15.3564 55.6323 15.459 55.6617 15.5916 55.6618C15.7177 55.6618 15.8144 55.6357 15.8818 55.5834C15.9491 55.5311 15.9828 55.4665 15.9828 55.3897C15.9828 55.3385 15.9673 55.2974 15.9364 55.2665C15.9054 55.2356 15.8669 55.2127 15.8207 55.1976C15.7746 55.1826 15.6699 55.1548 15.5066 55.1143C15.2649 55.0567 15.1057 54.9868 15.0288 54.9047C14.952 54.8226 14.913 54.7244 14.9118 54.6102C14.9118 54.4683 14.9684 54.3515 15.0815 54.2599C15.1946 54.1683 15.3469 54.1223 15.5386 54.1221C15.7418 54.1221 15.8995 54.1616 16.0116 54.2406C16.1238 54.3196 16.1917 54.4385 16.2152 54.5974L15.9331 54.6359ZM17.0426 55.8586H16.754V54.1604H17.0426V55.8586ZM17.0426 53.8389H16.754V53.5123H17.0426V53.8389ZM17.9086 54.351C18.0155 54.1984 18.1683 54.1221 18.367 54.1221C18.5862 54.1221 18.7616 54.2016 18.8932 54.3605C19.0247 54.5195 19.0904 54.7271 19.0903 54.9833C19.0903 55.2788 19.017 55.5049 18.8705 55.6618C18.724 55.8187 18.552 55.8976 18.3544 55.8987C18.1544 55.8987 17.9989 55.8143 17.8877 55.6456H17.8813V55.8586H17.6118V53.5123H17.9004V54.351H17.9086ZM18.3318 55.6618C18.4654 55.6618 18.5756 55.6047 18.6623 55.4905C18.749 55.3763 18.7928 55.2152 18.7937 55.0071C18.7937 54.8076 18.7536 54.6497 18.6734 54.5333C18.5932 54.4169 18.4825 54.3583 18.3415 54.3574C18.2025 54.3574 18.0908 54.4177 18.0063 54.5384C17.9218 54.6591 17.8791 54.8115 17.8782 54.9958C17.8782 55.1761 17.8957 55.3042 17.9308 55.38C17.9659 55.4558 18.0189 55.5219 18.0898 55.5785C18.1606 55.6351 18.2411 55.6628 18.3318 55.6618ZM19.8551 55.8586H19.5665V53.5123H19.8551V55.8586ZM21.9028 55.0824H20.6281C20.6398 55.2701 20.6932 55.4136 20.7884 55.5129C20.8835 55.6122 21.0033 55.6618 21.1476 55.6618C21.2577 55.6618 21.3502 55.633 21.425 55.5754C21.4999 55.5178 21.5571 55.4297 21.5966 55.3113L21.893 55.3481C21.8449 55.5252 21.7568 55.6612 21.6286 55.7562C21.5004 55.8512 21.3401 55.8987 21.1476 55.8987C20.8921 55.8987 20.6927 55.8208 20.5495 55.6649C20.4062 55.5091 20.3341 55.2952 20.333 55.0232C20.333 54.7554 20.4025 54.5383 20.5415 54.3718C20.6805 54.2053 20.8771 54.1221 21.1316 54.1221C21.2556 54.1221 21.3748 54.1493 21.4892 54.2038C21.6036 54.2583 21.7014 54.3506 21.7825 54.4806C21.8636 54.6106 21.9037 54.8112 21.9028 55.0824ZM21.6062 54.8455C21.5945 54.6727 21.5411 54.5484 21.4459 54.4726C21.3507 54.3968 21.246 54.3584 21.1316 54.3574C20.9958 54.3574 20.8841 54.4027 20.7964 54.4934C20.7086 54.5841 20.6579 54.7015 20.6443 54.8455H21.6062ZM24.2213 53.5012L24.178 53.754C24.1203 53.7434 24.0637 53.7381 24.0082 53.7381C23.9387 53.7381 23.882 53.7525 23.8382 53.7813C23.7943 53.8101 23.7719 53.8831 23.7709 54.0004V54.1604H24.0995V54.3829H23.7709V55.8586H23.4823V54.3829H23.2257V54.1604H23.4823V53.9765C23.4823 53.8911 23.4903 53.8138 23.5063 53.7445C23.5223 53.6752 23.5645 53.6127 23.633 53.5571C23.7015 53.5014 23.8079 53.4732 23.952 53.4724C24.0376 53.4724 24.1273 53.482 24.2213 53.5012ZM25.153 54.1221C25.3829 54.1221 25.5731 54.1968 25.7238 54.3461C25.8745 54.4954 25.9504 54.7078 25.9516 54.9831C25.9516 55.3171 25.8698 55.5529 25.7063 55.6906C25.5427 55.8283 25.3583 55.8976 25.153 55.8987C24.9382 55.8987 24.7516 55.8277 24.5934 55.6857C24.4352 55.5438 24.3561 55.3187 24.3561 55.0104C24.3561 54.7115 24.4325 54.489 24.5854 54.3428C24.7383 54.1966 24.9275 54.123 25.153 54.1221ZM25.153 55.6616C25.3176 55.6616 25.4427 55.6008 25.5282 55.4792C25.6138 55.3577 25.6565 55.1976 25.6565 54.9991C25.6565 54.7868 25.6084 54.6268 25.5122 54.5189C25.416 54.4111 25.2963 54.3573 25.153 54.3574C25.0065 54.3574 24.8863 54.4118 24.7923 54.5207C24.6983 54.6295 24.6512 54.7928 24.6511 55.0104C24.6511 55.2258 24.6987 55.388 24.7939 55.4969C24.889 55.6059 25.0087 55.6609 25.153 55.6618V55.6616ZM27.3322 54.2134L27.2327 54.479C27.1612 54.4375 27.0912 54.4168 27.0227 54.4168C26.9148 54.4168 26.833 54.4648 26.7774 54.5608C26.7218 54.6568 26.6939 54.7923 26.6939 54.9672V55.8586H26.4053V54.1604H26.6684V54.4166H26.6748C26.7667 54.2202 26.887 54.1221 27.0356 54.1221C27.1339 54.1221 27.2328 54.1525 27.3322 54.2134ZM29.1153 55.0824H27.8405C27.8522 55.2701 27.9057 55.4136 28.0008 55.5129C28.096 55.6122 28.2157 55.6618 28.36 55.6618C28.4701 55.6618 28.5626 55.633 28.6373 55.5754C28.7121 55.5178 28.7693 55.4297 28.8089 55.3113L29.1055 55.3481C29.0574 55.5252 28.9693 55.6612 28.8411 55.7562C28.7129 55.8512 28.5525 55.8987 28.36 55.8987C28.1046 55.8987 27.9052 55.8208 27.762 55.6649C27.6187 55.5091 27.5465 55.2952 27.5455 55.0232C27.5455 54.7554 27.615 54.5383 27.754 54.3718C27.8929 54.2053 28.0896 54.1221 28.344 54.1221C28.4679 54.1221 28.5871 54.1493 28.7015 54.2038C28.8159 54.2583 28.9137 54.3506 28.9949 54.4806C29.0762 54.6106 29.1163 54.8112 29.1153 55.0824ZM28.8187 54.8455C28.807 54.6727 28.7535 54.5484 28.6582 54.4726C28.5629 54.3968 28.4582 54.3584 28.344 54.3574C28.2082 54.3574 28.0964 54.4027 28.0088 54.4934C27.9212 54.5841 27.8704 54.7015 27.8565 54.8455H28.8187ZM30.5407 54.6359C30.5278 54.543 30.4904 54.4736 30.4284 54.4276C30.3664 54.3817 30.2793 54.3583 30.1671 54.3574C30.057 54.3574 29.9682 54.3761 29.9009 54.4134C29.8336 54.4508 29.7994 54.5052 29.7983 54.5765C29.7983 54.6438 29.825 54.6918 29.8783 54.7206C29.9316 54.7494 30.0386 54.7846 30.1993 54.8263C30.3788 54.8722 30.5129 54.9127 30.6015 54.9479C30.6902 54.9831 30.7598 55.0322 30.8102 55.0952C30.8606 55.1583 30.8857 55.2468 30.8855 55.3609C30.8855 55.5123 30.8234 55.6398 30.6994 55.7434C30.5754 55.8469 30.4097 55.8987 30.2024 55.8987C29.9864 55.8987 29.8181 55.8533 29.6973 55.7624C29.5766 55.6716 29.5017 55.5345 29.4729 55.3512L29.7597 55.308C29.7748 55.4264 29.8187 55.515 29.8913 55.5736C29.964 55.6323 30.0667 55.6617 30.1993 55.6618C30.3254 55.6618 30.4221 55.6357 30.4894 55.5834C30.5568 55.5311 30.5904 55.4665 30.5904 55.3897C30.5904 55.3385 30.5749 55.2974 30.5438 55.2665C30.5127 55.2356 30.4743 55.2127 30.4284 55.1976C30.3825 55.1826 30.2778 55.1548 30.1142 55.1143C29.8726 55.0567 29.7133 54.9868 29.6365 54.9047C29.5597 54.8226 29.5206 54.7244 29.5193 54.6102C29.5193 54.4683 29.576 54.3515 29.6893 54.2599C29.8027 54.1683 29.955 54.1223 30.1462 54.1221C30.3494 54.1221 30.5071 54.1616 30.6193 54.2406C30.7315 54.3196 30.7993 54.4385 30.8229 54.5974L30.5407 54.6359ZM32.0254 55.8555C31.94 55.8725 31.8679 55.881 31.809 55.881C31.6829 55.881 31.591 55.8591 31.5332 55.8154C31.4755 55.7716 31.4402 55.7151 31.4274 55.6456C31.4145 55.5762 31.4081 55.4813 31.4083 55.3609V54.3829H31.198V54.1604H31.4083V53.7381L31.6969 53.5635V54.1604H31.9855V54.3829H31.6969V55.3769C31.6969 55.4622 31.7054 55.5226 31.7224 55.5579C31.7394 55.5932 31.7843 55.6113 31.8571 55.6122C31.8987 55.6122 31.9415 55.6079 31.9855 55.5993L32.0254 55.8555ZM33.3196 54.2134L33.2202 54.479C33.1486 54.4375 33.0785 54.4168 33.01 54.4168C32.9021 54.4168 32.8203 54.4648 32.7647 54.5608C32.709 54.6568 32.6813 54.7923 32.6814 54.9672V55.8586H32.3928V54.1604H32.6557V54.4166H32.6621C32.754 54.2202 32.8743 54.1221 33.0229 54.1221C33.1213 54.1221 33.2203 54.1525 33.3196 54.2134ZM35.0208 54.1604L34.3697 55.8874C34.3687 55.8895 34.3676 55.8932 34.3666 55.8987C34.3046 56.0907 34.2324 56.2464 34.1501 56.3658C34.0679 56.4852 33.9498 56.5455 33.7958 56.5468C33.7445 56.5468 33.6819 56.5361 33.608 56.5147L33.5792 56.2428C33.6348 56.2598 33.6894 56.2683 33.743 56.2683C33.8497 56.2683 33.9234 56.239 33.9641 56.1803C34.0048 56.1217 34.0513 56.0154 34.1035 55.8617L33.4575 54.1606H33.7685L34.1695 55.2727C34.1929 55.3411 34.2179 55.4292 34.2447 55.5368H34.2512C34.2778 55.4131 34.312 55.2952 34.3537 55.1832L34.7273 54.1604H35.0208Z" fill="#285C4D" stroke="#285C4D" stroke-width="0.658"/>
</g>
<defs>
<clipPath id="clip0_1_307">
<rect width="39" height="58" fill="white"/>
</clipPath>
</defs>
</svg>
